<svg width="16" height="11" viewBox="0 0 16 11" fill="none" xmlns="http://www.w3.org/2000/svg">
<path fill-rule="evenodd" clip-rule="evenodd" d="M0.263153 5.82899C0.263153 5.6836 0.320086 5.54417 0.421426 5.44137C0.522767 5.33857 0.660215 5.28082 0.803532 5.28082H13.5489L10.1478 1.83174C10.0463 1.72881 9.98929 1.5892 9.98929 1.44364C9.98929 1.29807 10.0463 1.15846 10.1478 1.05553C10.2492 0.952602 10.3869 0.894775 10.5304 0.894775C10.6739 0.894775 10.8115 0.952602 10.9129 1.05553L15.236 5.44088C15.2863 5.4918 15.3262 5.55229 15.3535 5.61889C15.3807 5.68549 15.3947 5.75688 15.3947 5.82899C15.3947 5.90109 15.3807 5.97248 15.3535 6.03908C15.3262 6.10568 15.2863 6.16617 15.236 6.21709L10.9129 10.6024C10.8115 10.7054 10.6739 10.7632 10.5304 10.7632C10.3869 10.7632 10.2492 10.7054 10.1478 10.6024C10.0463 10.4995 9.98929 10.3599 9.98929 10.2143C9.98929 10.0688 10.0463 9.92916 10.1478 9.82623L13.5489 6.37715H0.803532C0.660215 6.37715 0.522767 6.3194 0.421426 6.2166C0.320086 6.1138 0.263153 5.97437 0.263153 5.82899Z" fill="white"/>
</svg>
