<svg width="16" height="16" viewBox="0 0 16 16" fill="none" xmlns="http://www.w3.org/2000/svg">
<g clip-path="url(#clip0_42_1592)">
<path opacity="0.7" d="M8.864 15.9539C7.908 16.1929 7.02 15.4699 6.956 14.5339C6.884 13.4829 6.726 12.5179 6.528 11.9439C6.403 11.5839 6.049 10.9309 5.488 10.3049C4.931 9.68192 4.206 9.12692 3.357 8.89492C2.685 8.71192 2 8.12992 2 7.27992V3.27892C2 2.43392 2.682 1.81492 3.448 1.73392C4.518 1.61992 5.012 1.31892 5.516 1.01092L5.564 0.980916C5.836 0.815916 6.142 0.632915 6.534 0.496916C6.931 0.360916 7.395 0.279916 8 0.279916H11.5C12.437 0.279916 13.099 0.756916 13.434 1.34392C13.5959 1.62092 13.6834 1.9351 13.688 2.25592C13.688 2.40792 13.665 2.56792 13.611 2.71992C13.812 2.98292 13.991 3.29792 14.099 3.62092C14.209 3.95092 14.271 4.38292 14.103 4.76992C14.172 4.89992 14.223 5.03892 14.262 5.17292C14.339 5.44292 14.375 5.74092 14.375 6.02992C14.375 6.31792 14.339 6.61492 14.262 6.88592C14.227 7.0105 14.1808 7.13166 14.124 7.24792C14.2991 7.49704 14.4118 7.78461 14.4525 8.08638C14.4932 8.38815 14.4608 8.69529 14.358 8.98192C14.152 9.57392 13.676 10.0819 13.158 10.2539C12.311 10.5359 11.355 10.5299 10.642 10.4649C10.494 10.4516 10.3463 10.4349 10.199 10.4149C10.5459 11.9005 10.5246 13.4484 10.137 14.9239C10.0696 15.1603 9.9402 15.3744 9.76228 15.5441C9.58436 15.7137 9.36435 15.8328 9.125 15.8889L8.864 15.9539ZM11.5 1.27892H8C7.49 1.27892 7.137 1.34792 6.86 1.44292C6.579 1.53992 6.354 1.67092 6.084 1.83592L6.044 1.85992C5.489 2.19892 4.846 2.59092 3.554 2.72792C3.221 2.76392 3 3.01792 3 3.27792V7.27992C3 7.53392 3.226 7.82292 3.62 7.92992C4.715 8.22992 5.597 8.92592 6.234 9.63792C6.869 10.3479 7.298 11.1129 7.472 11.6159C7.715 12.3159 7.879 13.3839 7.954 14.4659C7.979 14.8279 8.314 15.0599 8.621 14.9839L8.883 14.9179C9.043 14.8779 9.141 14.7749 9.171 14.6629C9.57939 13.1069 9.52903 11.466 9.026 9.93792C8.99753 9.85293 8.99242 9.76185 9.01122 9.67421C9.03002 9.58658 9.07203 9.50561 9.13285 9.43977C9.19368 9.37394 9.27108 9.32567 9.35695 9.30001C9.44283 9.27435 9.53403 9.27224 9.621 9.29392L9.624 9.29492L9.638 9.29792L9.696 9.31192C10.038 9.38453 10.3839 9.43696 10.732 9.46892C11.395 9.52892 12.189 9.52292 12.842 9.30492C13.017 9.24692 13.292 9.00492 13.412 8.65492C13.519 8.34692 13.499 7.98492 13.146 7.63292L12.793 7.27992L13.146 6.92592C13.189 6.88292 13.251 6.78492 13.3 6.61092C13.348 6.44392 13.375 6.24092 13.375 6.02992C13.375 5.81792 13.348 5.61592 13.3 5.44792C13.25 5.27392 13.189 5.17592 13.146 5.13292L12.793 4.77992L13.146 4.42592C13.193 4.37892 13.255 4.24892 13.151 3.93792C13.0426 3.63633 12.8704 3.36173 12.646 3.13292L12.293 2.77992L12.646 2.42592C12.652 2.42092 12.687 2.37592 12.687 2.25592C12.6826 2.10924 12.6409 1.96609 12.566 1.83992C12.401 1.55192 12.063 1.27992 11.5 1.27992V1.27892Z" fill="white"/>
</g>
<defs>
<clipPath id="clip0_42_1592">
<rect width="16" height="16" fill="white" transform="matrix(1 0 0 -1 0 16)"/>
</clipPath>
</defs>
</svg>
