<svg width="12" height="12" viewBox="0 0 12 12" fill="none" xmlns="http://www.w3.org/2000/svg">
<g clip-path="url(#clip0_42_1836)">
<path d="M6.10004 5.4V5.9H6.60004H11.4C11.4551 5.9 11.5 5.94504 11.5 5.99996C11.5 6.05506 11.4551 6.10004 11.4 6.10004H6.60004H6.10004V6.60004V11.4C6.10004 11.4551 6.05506 11.5 5.99996 11.5C5.94504 11.5 5.9 11.4551 5.9 11.4V6.60004V6.10004H5.4H0.599963C0.545038 6.10004 0.5 6.05512 0.5 5.99996C0.5 5.94498 0.544978 5.9 0.599963 5.9H5.4H5.9V5.4V0.599963C5.9 0.544978 5.94498 0.5 5.99996 0.5C6.05512 0.5 6.10004 0.545038 6.10004 0.599963V5.4Z" fill="black" stroke="#BCBCBC"/>
</g>
<defs>
<clipPath id="clip0_42_1836">
<rect width="12" height="12" fill="white"/>
</clipPath>
</defs>
</svg>
