<svg width="50" height="50" viewBox="0 0 50 50" fill="none" xmlns="http://www.w3.org/2000/svg">
<path fill-rule="evenodd" clip-rule="evenodd" d="M4.85328 21.175C5.03895 20.8054 5.36362 20.5244 5.75611 20.3938C6.1486 20.2631 6.57687 20.2935 6.94703 20.4781L25.0002 29.5L43.0502 20.475C43.2338 20.3812 43.4342 20.3247 43.6398 20.3087C43.8453 20.2927 44.0521 20.3175 44.248 20.3818C44.4439 20.4461 44.6252 20.5485 44.7814 20.6832C44.9375 20.8178 45.0655 20.9821 45.1579 21.1664C45.2503 21.3508 45.3053 21.5516 45.3197 21.7573C45.3341 21.963 45.3076 22.1695 45.2418 22.365C45.176 22.5604 45.0722 22.7409 44.9363 22.896C44.8004 23.0511 44.6352 23.1778 44.4501 23.2688L25.7002 32.6438C25.4829 32.7526 25.2432 32.8093 25.0002 32.8093C24.7571 32.8093 24.5174 32.7526 24.3002 32.6438L5.55015 23.2688C5.1805 23.0831 4.89956 22.7584 4.76893 22.3659C4.63829 21.9734 4.66863 21.5452 4.85328 21.175Z" fill="black"/>
<path fill-rule="evenodd" clip-rule="evenodd" d="M4.85328 21.175C5.03895 20.8054 5.36362 20.5244 5.75611 20.3938C6.1486 20.2631 6.57687 20.2935 6.94703 20.4781L25.0002 29.5L43.0502 20.475C43.2338 20.3812 43.4342 20.3247 43.6398 20.3087C43.8453 20.2927 44.0521 20.3175 44.248 20.3818C44.4439 20.4461 44.6252 20.5485 44.7814 20.6832C44.9375 20.8178 45.0655 20.9821 45.1579 21.1664C45.2503 21.3508 45.3053 21.5516 45.3197 21.7573C45.3341 21.963 45.3076 22.1695 45.2418 22.365C45.176 22.5604 45.0722 22.7409 44.9363 22.896C44.8004 23.0511 44.6352 23.1778 44.4501 23.2688L25.7002 32.6438C25.4829 32.7526 25.2432 32.8093 25.0002 32.8093C24.7571 32.8093 24.5174 32.7526 24.3002 32.6438L5.55015 23.2688C5.1805 23.0831 4.89956 22.7584 4.76893 22.3659C4.63829 21.9734 4.66863 21.5452 4.85328 21.175Z" fill="#252E4C"/>
<path fill-rule="evenodd" clip-rule="evenodd" d="M4.85328 21.175C5.03895 20.8054 5.36362 20.5244 5.75611 20.3938C6.1486 20.2631 6.57687 20.2935 6.94703 20.4781L25.0002 29.5L43.0502 20.475C43.2338 20.3812 43.4342 20.3247 43.6398 20.3087C43.8453 20.2927 44.0521 20.3175 44.248 20.3818C44.4439 20.4461 44.6252 20.5485 44.7814 20.6832C44.9375 20.8178 45.0655 20.9821 45.1579 21.1664C45.2503 21.3508 45.3053 21.5516 45.3197 21.7573C45.3341 21.963 45.3076 22.1695 45.2418 22.365C45.176 22.5604 45.0722 22.7409 44.9363 22.896C44.8004 23.0511 44.6352 23.1778 44.4501 23.2688L25.7002 32.6438C25.4829 32.7526 25.2432 32.8093 25.0002 32.8093C24.7571 32.8093 24.5174 32.7526 24.3002 32.6438L5.55015 23.2688C5.1805 23.0831 4.89956 22.7584 4.76893 22.3659C4.63829 21.9734 4.66863 21.5452 4.85328 21.175Z" fill="url(#paint0_linear_31_58)"/>
<path fill-rule="evenodd" clip-rule="evenodd" d="M4.85328 21.175C5.03895 20.8054 5.36362 20.5244 5.75611 20.3938C6.1486 20.2631 6.57687 20.2935 6.94703 20.4781L25.0002 29.5L43.0502 20.475C43.2338 20.3812 43.4342 20.3247 43.6398 20.3087C43.8453 20.2927 44.0521 20.3175 44.248 20.3818C44.4439 20.4461 44.6252 20.5485 44.7814 20.6832C44.9375 20.8178 45.0655 20.9821 45.1579 21.1664C45.2503 21.3508 45.3053 21.5516 45.3197 21.7573C45.3341 21.963 45.3076 22.1695 45.2418 22.365C45.176 22.5604 45.0722 22.7409 44.9363 22.896C44.8004 23.0511 44.6352 23.1778 44.4501 23.2688L25.7002 32.6438C25.4829 32.7526 25.2432 32.8093 25.0002 32.8093C24.7571 32.8093 24.5174 32.7526 24.3002 32.6438L5.55015 23.2688C5.1805 23.0831 4.89956 22.7584 4.76893 22.3659C4.63829 21.9734 4.66863 21.5452 4.85328 21.175Z" fill="#F56E03"/>
<defs>
<linearGradient id="paint0_linear_31_58" x1="25.0062" y1="20.304" x2="25.0062" y2="32.8093" gradientUnits="userSpaceOnUse">
<stop stop-color="#EC3565"/>
<stop offset="1" stop-color="#E9274C"/>
</linearGradient>
</defs>
</svg>
