<svg width="25" height="25" viewBox="0 0 25 25" fill="none" xmlns="http://www.w3.org/2000/svg">
<g opacity="0.8" clip-path="url(#clip0_31_52)">
<path d="M21.1638 4.5422C19.5428 3.79824 17.8322 3.26727 16.0748 2.96251C16.0589 2.95983 16.0425 2.96215 16.0279 2.96914C16.0134 2.97614 16.0014 2.98747 15.9935 3.00157C15.7732 3.3922 15.5295 3.90314 15.3592 4.30314C13.4648 4.01565 11.5379 4.01565 9.64353 4.30314C9.45354 3.85754 9.23862 3.423 8.99978 3.00157C8.99176 2.98762 8.97971 2.97642 8.96521 2.96945C8.9507 2.96248 8.93443 2.96006 8.91853 2.96251C7.16071 3.26564 5.44978 3.79689 3.82946 4.5422C3.8156 4.54749 3.804 4.55743 3.79665 4.57032C0.556026 9.41251 -0.333037 14.1359 0.102901 18.8C0.104463 18.8219 0.118526 18.8438 0.135713 18.8578C2.02278 20.2557 4.13351 21.3229 6.3779 22.0141C6.39375 22.0191 6.41078 22.0189 6.42651 22.0136C6.44225 22.0082 6.45587 21.998 6.4654 21.9844C6.94665 21.3281 7.37478 20.6359 7.74353 19.9078C7.75121 19.8928 7.75384 19.8757 7.75103 19.8591C7.74821 19.8425 7.7401 19.8273 7.7279 19.8156C7.71983 19.808 7.71025 19.8022 7.69978 19.7984C7.02659 19.5397 6.37461 19.2289 5.74978 18.8688C5.73232 18.8589 5.71934 18.8426 5.71353 18.8234C5.70771 18.8042 5.7095 18.7836 5.71853 18.7656C5.72384 18.754 5.73188 18.7438 5.74196 18.7359C5.87321 18.6375 6.00446 18.5344 6.12946 18.4313C6.14051 18.4224 6.15375 18.4167 6.16779 18.4147C6.18183 18.4128 6.19613 18.4147 6.20915 18.4203C10.3013 20.2891 14.731 20.2891 18.7732 18.4203C18.7867 18.4145 18.8015 18.4124 18.8161 18.4143C18.8307 18.4163 18.8445 18.4221 18.856 18.4313C18.981 18.5344 19.1123 18.6375 19.2435 18.7359C19.2542 18.7437 19.2627 18.754 19.2684 18.7659C19.2741 18.7778 19.2767 18.7909 19.2761 18.804C19.2755 18.8172 19.2716 18.83 19.2648 18.8413C19.2581 18.8526 19.2486 18.862 19.2373 18.8688C18.6139 19.2322 17.9611 19.5427 17.2857 19.7969C17.2749 19.8008 17.2652 19.807 17.2571 19.8151C17.249 19.8232 17.2427 19.833 17.2388 19.8438C17.2352 19.8542 17.2338 19.8653 17.2346 19.8763C17.2354 19.8873 17.2384 19.898 17.2435 19.9078C17.6185 20.6344 18.0482 21.3281 18.5201 21.9844C18.5296 21.998 18.5432 22.0082 18.559 22.0136C18.5747 22.0189 18.5917 22.0191 18.6076 22.0141C20.8557 21.3251 22.9699 20.2577 24.8592 18.8578C24.8686 18.8513 24.8765 18.8427 24.8822 18.8327C24.8878 18.8227 24.8912 18.8115 24.892 18.8C25.4138 13.4078 24.0185 8.72345 21.1951 4.57189C21.1922 4.56503 21.188 4.55884 21.1826 4.55373C21.1772 4.54862 21.1708 4.54469 21.1638 4.5422ZM8.35446 15.9594C7.12165 15.9594 6.10759 14.8281 6.10759 13.4406C6.10759 12.0516 7.1029 10.9203 8.35446 10.9203C9.6154 10.9203 10.6201 12.0609 10.6013 13.4406C10.6013 14.8281 9.60603 15.9594 8.35446 15.9594ZM16.6607 15.9594C15.4295 15.9594 14.4138 14.8281 14.4138 13.4406C14.4138 12.0516 15.4092 10.9203 16.6607 10.9203C17.9217 10.9203 18.9279 12.0609 18.9076 13.4406C18.9076 14.8281 17.9217 15.9594 16.6607 15.9594Z" fill="white"/>
</g>
<defs>
<clipPath id="clip0_31_52">
<rect width="25" height="25" fill="white"/>
</clipPath>
</defs>
</svg>
