<svg width="25" height="25" viewBox="0 0 25 25" fill="none" xmlns="http://www.w3.org/2000/svg">
<g opacity="0.8" clip-path="url(#clip0_31_56)">
<path fill-rule="evenodd" clip-rule="evenodd" d="M12.8391 8.19219C14.2891 6.23125 15.8922 4.6875 17.9422 4.6875C21.8125 4.6875 25 9.61406 25.0016 15.4797C25.0016 19.0578 23.4609 21.3 20.6938 21.3C18.2828 21.3 16.9516 19.9469 14.5625 15.95L13.5203 14.1953L13.3359 13.8875C13.0642 13.4282 12.7881 12.9714 12.5078 12.5172L10.6672 15.7672C8.05313 20.3375 6.58125 21.3 4.5375 21.3C1.69688 21.3 0 19.0891 0 15.5828C0 9.98125 3.11719 4.6875 7.18438 4.6875C7.68281 4.6875 8.16094 4.74844 8.62813 4.87812C9.1125 5.0125 9.58281 5.22188 10.0547 5.51406C10.9563 6.075 11.8578 6.94375 12.8391 8.19219ZM15.2078 11.6672C14.8141 11.0266 14.4359 10.4375 14.0719 9.89687L14.0625 9.88438C15.3828 7.84531 16.4734 6.83125 17.7687 6.83125C20.4609 6.83125 22.6156 10.7953 22.6156 15.6641C22.6156 17.5203 22.0063 18.5969 20.7484 18.5969C19.5406 18.5969 18.9641 17.8 16.6703 14.1125L15.2063 11.6672H15.2078ZM7.57188 7.43125C8.70469 7.5875 9.73594 8.42187 11.2281 10.5578C10.3671 11.8762 9.51555 13.2007 8.67344 14.5312C6.55313 17.8531 5.82031 18.5984 4.64062 18.5984C3.42656 18.5984 2.70312 17.5328 2.70312 15.6297C2.70312 11.5641 4.73125 7.40469 7.15 7.40469C7.29219 7.40469 7.43281 7.41406 7.57188 7.43281V7.43125Z" fill="white"/>
</g>
<defs>
<clipPath id="clip0_31_56">
<rect width="25" height="25" fill="white"/>
</clipPath>
</defs>
</svg>
