<svg width="14" height="14" viewBox="0 0 14 14" fill="none" xmlns="http://www.w3.org/2000/svg">
<g clip-path="url(#clip0_45_7657)">
<path d="M6.98815 13.9998C6.63663 13.9975 6.30021 13.8567 6.0519 13.6078L0.393273 7.94659C0.142088 7.69537 0.000976562 7.35466 0.000976562 6.9994C0.000976563 6.64415 0.142088 6.30344 0.393273 6.05221L6.0519 0.393589C6.17631 0.269083 6.32403 0.170314 6.48663 0.102927C6.64923 0.0355393 6.82351 0.000854492 6.99952 0.000854492C7.17553 0.000854492 7.34982 0.0355393 7.51241 0.102927C7.67501 0.170314 7.82274 0.269083 7.94715 0.393589L13.6075 6.05309C13.7334 6.17866 13.8328 6.32809 13.9002 6.49262C13.9675 6.65714 14.0013 6.83346 13.9995 7.01121C13.9972 7.36273 13.8563 7.69915 13.6075 7.94746L7.94627 13.6078C7.82081 13.7336 7.67152 13.833 7.50715 13.9003C7.34278 13.9676 7.16663 14.0015 6.98902 13.9998H6.98815ZM6.68365 1.02359L4.16977 3.53834L6.99952 6.36809L9.82927 3.53834L7.3154 1.02359C7.27395 0.982052 7.22471 0.949098 7.17051 0.926614C7.11631 0.90413 7.0582 0.892556 6.99952 0.892556C6.94084 0.892556 6.88274 0.90413 6.82854 0.926614C6.77433 0.949098 6.7251 0.982052 6.68365 1.02359ZM7.63127 6.99984L10.461 9.82959L12.9749 7.31571C13.1499 7.14071 13.1499 6.85809 12.9749 6.68396L10.461 4.17009L7.63127 6.99984ZM6.99952 7.63159L4.16977 10.4613L6.68365 12.9752C6.85865 13.1502 7.14127 13.1502 7.3154 12.9752L9.82927 10.4613L6.99952 7.63159ZM6.36777 6.99984L3.53802 4.17009L1.02327 6.68396C0.939598 6.76779 0.892603 6.8814 0.892603 6.99984C0.892603 7.11828 0.939598 7.23189 1.02327 7.31571L3.53802 9.82959L6.36777 6.99984Z" fill="#F56E03"/>
</g>
<defs>
<clipPath id="clip0_45_7657">
<rect width="14" height="14" fill="white"/>
</clipPath>
</defs>
</svg>
