<svg width="14" height="14" viewBox="0 0 14 14" fill="none" xmlns="http://www.w3.org/2000/svg">
<g opacity="0.5" clip-path="url(#clip0_3_4722)">
<path d="M13.847 0.10504C13.9188 0.166345 13.9689 0.24924 13.9897 0.341341C14.0105 0.433443 14.001 0.529808 13.9625 0.61604C12.6237 3.61729 9.81236 7.76479 7.75436 9.92604C7.17752 10.5306 6.4661 10.9905 5.67798 11.2683C5.66223 11.4669 5.62548 11.739 5.53798 12.0278C5.36211 12.6044 4.95436 13.3219 4.04348 13.5503C3.16134 13.7604 2.24713 13.7996 1.35023 13.6658C1.18346 13.6394 1.01903 13.5999 0.858484 13.5477C0.709953 13.5025 0.571516 13.4291 0.450734 13.3315C0.371083 13.2638 0.309708 13.1772 0.272234 13.0795C0.225787 12.9543 0.227033 12.8163 0.275734 12.6919C0.358859 12.4775 0.552234 12.3594 0.679109 12.2964C1.02386 12.124 1.22598 11.9 1.43773 11.5737C1.52086 11.4477 1.59873 11.3138 1.68886 11.1607L1.79123 10.9874C1.92336 10.7643 2.07648 10.5149 2.26898 10.2454C2.73098 9.59879 3.31986 9.43604 3.79673 9.46142C3.90698 9.46754 4.00936 9.48329 4.10123 9.50342C4.15548 9.35292 4.22548 9.17092 4.30948 8.97142C4.53786 8.42979 4.88523 7.72979 5.34811 7.16104C7.25211 4.82479 10.7556 1.73079 13.3255 0.0700404C13.4046 0.018975 13.4981 -0.00520123 13.592 0.00110439C13.686 0.00741001 13.7754 0.0438609 13.847 0.10504ZM4.11698 10.423C4.00087 10.3725 3.87676 10.3429 3.75036 10.3355C3.53511 10.3242 3.24898 10.3793 2.98123 10.7547C2.80886 10.9953 2.67061 11.2202 2.54373 11.4345L2.45186 11.5894C2.35911 11.7478 2.26548 11.9062 2.17186 12.0514C1.99465 12.3385 1.76976 12.5933 1.50686 12.8048C2.11061 12.9028 3.02586 12.9019 3.83173 12.6998C4.32086 12.5782 4.56936 12.2019 4.70061 11.7723C4.76396 11.5589 4.80099 11.3385 4.81086 11.116L4.11698 10.423ZM5.37698 10.4458C5.48198 10.4108 5.61936 10.3583 5.77773 10.2857C6.28179 10.0518 6.73741 9.72532 7.12086 9.32317C8.78336 7.57667 10.9814 4.44942 12.4164 1.77104C10.1501 3.45717 7.54611 5.84854 6.02711 7.71404C5.64036 8.18917 5.33148 8.80167 5.11536 9.31179C5.00948 9.56379 4.92811 9.78429 4.87473 9.94179V9.94267L5.37786 10.4458H5.37698ZM1.02561 13.1058L1.03173 13.1014C1.02985 13.1028 1.02779 13.104 1.02561 13.1049V13.1058ZM4.15986 10.4432L4.16161 10.444H4.15986V10.4432Z" fill="black"/>
<path d="M13.847 0.10504C13.9188 0.166345 13.9689 0.24924 13.9897 0.341341C14.0105 0.433443 14.001 0.529808 13.9625 0.61604C12.6237 3.61729 9.81236 7.76479 7.75436 9.92604C7.17752 10.5306 6.4661 10.9905 5.67798 11.2683C5.66223 11.4669 5.62548 11.739 5.53798 12.0278C5.36211 12.6044 4.95436 13.3219 4.04348 13.5503C3.16134 13.7604 2.24713 13.7996 1.35023 13.6658C1.18346 13.6394 1.01903 13.5999 0.858484 13.5477C0.709953 13.5025 0.571516 13.4291 0.450734 13.3315C0.371083 13.2638 0.309708 13.1772 0.272234 13.0795C0.225787 12.9543 0.227033 12.8163 0.275734 12.6919C0.358859 12.4775 0.552234 12.3594 0.679109 12.2964C1.02386 12.124 1.22598 11.9 1.43773 11.5737C1.52086 11.4477 1.59873 11.3138 1.68886 11.1607L1.79123 10.9874C1.92336 10.7643 2.07648 10.5149 2.26898 10.2454C2.73098 9.59879 3.31986 9.43604 3.79673 9.46142C3.90698 9.46754 4.00936 9.48329 4.10123 9.50342C4.15548 9.35292 4.22548 9.17092 4.30948 8.97142C4.53786 8.42979 4.88523 7.72979 5.34811 7.16104C7.25211 4.82479 10.7556 1.73079 13.3255 0.0700404C13.4046 0.018975 13.4981 -0.00520123 13.592 0.00110439C13.686 0.00741001 13.7754 0.0438609 13.847 0.10504ZM4.11698 10.423C4.00087 10.3725 3.87676 10.3429 3.75036 10.3355C3.53511 10.3242 3.24898 10.3793 2.98123 10.7547C2.80886 10.9953 2.67061 11.2202 2.54373 11.4345L2.45186 11.5894C2.35911 11.7478 2.26548 11.9062 2.17186 12.0514C1.99465 12.3385 1.76976 12.5933 1.50686 12.8048C2.11061 12.9028 3.02586 12.9019 3.83173 12.6998C4.32086 12.5782 4.56936 12.2019 4.70061 11.7723C4.76396 11.5589 4.80099 11.3385 4.81086 11.116L4.11698 10.423ZM5.37698 10.4458C5.48198 10.4108 5.61936 10.3583 5.77773 10.2857C6.28179 10.0518 6.73741 9.72532 7.12086 9.32317C8.78336 7.57667 10.9814 4.44942 12.4164 1.77104C10.1501 3.45717 7.54611 5.84854 6.02711 7.71404C5.64036 8.18917 5.33148 8.80167 5.11536 9.31179C5.00948 9.56379 4.92811 9.78429 4.87473 9.94179V9.94267L5.37786 10.4458H5.37698ZM1.02561 13.1058L1.03173 13.1014C1.02985 13.1028 1.02779 13.104 1.02561 13.1049V13.1058ZM4.15986 10.4432L4.16161 10.444H4.15986V10.4432Z" fill="#F56E03"/>
</g>
<defs>
<clipPath id="clip0_3_4722">
<rect width="14" height="14" fill="white"/>
</clipPath>
</defs>
</svg>
