<svg width="16" height="16" viewBox="0 0 16 16" fill="none" xmlns="http://www.w3.org/2000/svg">
<g opacity="0.78">
<path fill-rule="evenodd" clip-rule="evenodd" d="M4.64592 14.354C4.59935 14.3075 4.56241 14.2523 4.5372 14.1916C4.512 14.1308 4.49902 14.0657 4.49902 14C4.49902 13.9342 4.512 13.8691 4.5372 13.8083C4.56241 13.7476 4.59935 13.6924 4.64592 13.646L10.2929 7.99996L4.64592 2.35396C4.59943 2.30747 4.56255 2.25228 4.53739 2.19154C4.51223 2.13081 4.49928 2.0657 4.49928 1.99996C4.49928 1.93422 4.51223 1.86912 4.53739 1.80838C4.56255 1.74764 4.59943 1.69245 4.64592 1.64596C4.6924 1.59947 4.74759 1.5626 4.80833 1.53744C4.86907 1.51228 4.93417 1.49933 4.99992 1.49933C5.06566 1.49933 5.13076 1.51228 5.1915 1.53744C5.25224 1.5626 5.30743 1.59947 5.35392 1.64596L11.3539 7.64596C11.4005 7.69241 11.4374 7.74758 11.4626 7.80833C11.4878 7.86907 11.5008 7.93419 11.5008 7.99996C11.5008 8.06573 11.4878 8.13085 11.4626 8.19159C11.4374 8.25234 11.4005 8.30751 11.3539 8.35396L5.35392 14.354C5.30747 14.4005 5.2523 14.4375 5.19155 14.4627C5.13081 14.4879 5.06568 14.5009 4.99992 14.5009C4.93415 14.5009 4.86903 14.4879 4.80828 14.4627C4.74754 14.4375 4.69236 14.4005 4.64592 14.354Z" fill="white"/>
</g>
</svg>
