<svg width="26" height="26" viewBox="0 0 26 26" fill="none" xmlns="http://www.w3.org/2000/svg"><g clip-path="url(#clip0_149_22517)"><path d="M13.8369 1.65587C13.5584 1.63531 13.2792 1.62502 13 1.625V0C13.3194 0.00015572 13.6386 0.0120805 13.9571 0.03575L13.8369 1.65587ZM17.0934 2.38712C16.5725 2.18612 16.0375 2.02372 15.4928 1.90125L15.8486 0.31525C16.471 0.455 17.0836 0.64025 17.6784 0.871L17.0934 2.38712ZM19.3196 3.54087C19.0873 3.38593 18.8493 3.23958 18.6063 3.10212L19.4074 1.68837C19.963 2.00319 20.4947 2.3584 20.9983 2.75112L19.9989 4.03325C19.7786 3.86137 19.552 3.69768 19.3196 3.5425V3.54087ZM22.2999 6.44962C21.9784 5.99296 21.6238 5.56062 21.2388 5.15612L22.4152 4.03487C22.854 4.498 23.2603 4.99362 23.6291 5.51362L22.2999 6.44962ZM23.5089 8.64662C23.4022 8.38899 23.2862 8.13533 23.1611 7.88612L24.6123 7.15487C24.8992 7.72539 25.1436 8.31633 25.3435 8.92287L23.7998 9.4315C23.7124 9.16641 23.6154 8.9046 23.5089 8.64662ZM24.3701 12.7205C24.357 12.1621 24.3027 11.6053 24.2076 11.0549L25.8083 10.7786C25.9171 11.4059 25.9805 12.0429 25.9968 12.6799L24.3718 12.7205H24.3701ZM24.1573 15.2197C24.2109 14.9435 24.2548 14.6689 24.2889 14.391L25.9025 14.5909C25.8244 15.2249 25.6995 15.8522 25.5288 16.4677L23.9623 16.0339C24.037 15.7657 24.102 15.4944 24.1573 15.2197ZM22.6102 19.0856C22.9093 18.6144 23.1725 18.1204 23.4 17.6101L24.8853 18.2682C24.6253 18.8532 24.3246 19.4155 23.9834 19.955L22.6102 19.0856ZM21.0437 21.0437C21.242 20.8455 21.4321 20.6407 21.6125 20.4295L22.8442 21.4906C22.6357 21.7325 22.4183 21.9666 22.1926 22.1926L21.0437 21.0437Z" fill="#F56E03"/><path d="M12.9992 1.625C11.1286 1.62514 9.28698 2.08658 7.63733 2.96845C5.98769 3.85032 4.58098 5.12541 3.54181 6.68078C2.50264 8.23615 1.86308 10.0238 1.67978 11.8853C1.49648 13.7469 1.7751 15.625 2.49095 17.3531C3.20681 19.0813 4.33781 20.6063 5.78377 21.793C7.22974 22.9796 8.94604 23.7914 10.7807 24.1564C12.6153 24.5214 14.5116 24.4282 16.3016 23.8853C18.0917 23.3424 19.7202 22.3664 21.043 21.0437L22.1918 22.1926C20.6802 23.7051 18.8188 24.8214 16.7725 25.4426C14.7263 26.0638 12.5585 26.1707 10.4611 25.7538C8.36367 25.3369 6.40149 24.4091 4.74836 23.0526C3.09523 21.6961 1.80221 19.9528 0.98386 17.9772C0.165509 16.0015 -0.152905 13.8546 0.0568297 11.7264C0.266565 9.59832 0.997974 7.55479 2.18625 5.7769C3.37453 3.99902 4.98299 2.54168 6.86911 1.534C8.75524 0.52633 10.8608 -0.00056669 12.9992 4.5737e-07V1.625Z" fill="#F56E03"/><path d="M12.1875 4.875C12.403 4.875 12.6097 4.9606 12.762 5.11298C12.9144 5.26535 13 5.47201 13 5.6875V14.1538L18.278 17.1698C18.4597 17.2793 18.5913 17.4556 18.6447 17.661C18.698 17.8663 18.669 18.0844 18.5638 18.2686C18.4585 18.4528 18.2854 18.5885 18.0813 18.6467C17.8773 18.705 17.6586 18.6811 17.472 18.5802L11.7845 15.3302C11.6601 15.2592 11.5568 15.1566 11.4849 15.0327C11.4129 14.9089 11.375 14.7682 11.375 14.625V5.6875C11.375 5.47201 11.4606 5.26535 11.613 5.11298C11.7653 4.9606 11.972 4.875 12.1875 4.875Z" fill="#F56E03"/></g><defs><clipPath id="clip0_149_22517"><rect width="26" height="26" fill="white"/></clipPath></defs></svg>
