<svg width="14" height="14" viewBox="0 0 14 14" fill="none" xmlns="http://www.w3.org/2000/svg">
<g opacity="0.5" clip-path="url(#clip0_3_4707)">
<path d="M1.75 0.875C1.51794 0.875 1.29538 0.967187 1.13128 1.13128C0.967187 1.29538 0.875 1.51794 0.875 1.75V8.75C0.875 8.98206 0.967187 9.20462 1.13128 9.36872C1.29538 9.53281 1.51794 9.625 1.75 9.625H10.1378C10.6018 9.6251 11.0469 9.80954 11.375 10.1377L13.125 11.8877V1.75C13.125 1.51794 13.0328 1.29538 12.8687 1.13128C12.7046 0.967187 12.4821 0.875 12.25 0.875H1.75ZM12.25 0C12.7141 0 13.1592 0.184374 13.4874 0.512563C13.8156 0.840752 14 1.28587 14 1.75V12.9439C14 13.0304 13.9743 13.1151 13.9262 13.187C13.878 13.259 13.8096 13.315 13.7296 13.3481C13.6496 13.3812 13.5616 13.3898 13.4767 13.3728C13.3918 13.3558 13.3139 13.314 13.2528 13.2527L10.7564 10.7564C10.5923 10.5923 10.3698 10.5 10.1378 10.5H1.75C1.28587 10.5 0.840752 10.3156 0.512563 9.98744C0.184374 9.65925 0 9.21413 0 8.75V1.75C0 1.28587 0.184374 0.840752 0.512563 0.512563C0.840752 0.184374 1.28587 0 1.75 0L12.25 0Z" fill="black"/>
<path d="M1.75 0.875C1.51794 0.875 1.29538 0.967187 1.13128 1.13128C0.967187 1.29538 0.875 1.51794 0.875 1.75V8.75C0.875 8.98206 0.967187 9.20462 1.13128 9.36872C1.29538 9.53281 1.51794 9.625 1.75 9.625H10.1378C10.6018 9.6251 11.0469 9.80954 11.375 10.1377L13.125 11.8877V1.75C13.125 1.51794 13.0328 1.29538 12.8687 1.13128C12.7046 0.967187 12.4821 0.875 12.25 0.875H1.75ZM12.25 0C12.7141 0 13.1592 0.184374 13.4874 0.512563C13.8156 0.840752 14 1.28587 14 1.75V12.9439C14 13.0304 13.9743 13.1151 13.9262 13.187C13.878 13.259 13.8096 13.315 13.7296 13.3481C13.6496 13.3812 13.5616 13.3898 13.4767 13.3728C13.3918 13.3558 13.3139 13.314 13.2528 13.2527L10.7564 10.7564C10.5923 10.5923 10.3698 10.5 10.1378 10.5H1.75C1.28587 10.5 0.840752 10.3156 0.512563 9.98744C0.184374 9.65925 0 9.21413 0 8.75V1.75C0 1.28587 0.184374 0.840752 0.512563 0.512563C0.840752 0.184374 1.28587 0 1.75 0L12.25 0Z" fill="#CB4AF0"/>
<path d="M1.75 0.875C1.51794 0.875 1.29538 0.967187 1.13128 1.13128C0.967187 1.29538 0.875 1.51794 0.875 1.75V8.75C0.875 8.98206 0.967187 9.20462 1.13128 9.36872C1.29538 9.53281 1.51794 9.625 1.75 9.625H10.1378C10.6018 9.6251 11.0469 9.80954 11.375 10.1377L13.125 11.8877V1.75C13.125 1.51794 13.0328 1.29538 12.8687 1.13128C12.7046 0.967187 12.4821 0.875 12.25 0.875H1.75ZM12.25 0C12.7141 0 13.1592 0.184374 13.4874 0.512563C13.8156 0.840752 14 1.28587 14 1.75V12.9439C14 13.0304 13.9743 13.1151 13.9262 13.187C13.878 13.259 13.8096 13.315 13.7296 13.3481C13.6496 13.3812 13.5616 13.3898 13.4767 13.3728C13.3918 13.3558 13.3139 13.314 13.2528 13.2527L10.7564 10.7564C10.5923 10.5923 10.3698 10.5 10.1378 10.5H1.75C1.28587 10.5 0.840752 10.3156 0.512563 9.98744C0.184374 9.65925 0 9.21413 0 8.75V1.75C0 1.28587 0.184374 0.840752 0.512563 0.512563C0.840752 0.184374 1.28587 0 1.75 0L12.25 0Z" fill="#F56E03"/>
<path d="M6.99977 3.49383C8.45577 1.99671 12.0966 4.61646 6.99977 7.98433C1.9029 4.61558 5.54377 1.99671 6.99977 3.49383Z" fill="black"/>
<path d="M6.99977 3.49383C8.45577 1.99671 12.0966 4.61646 6.99977 7.98433C1.9029 4.61558 5.54377 1.99671 6.99977 3.49383Z" fill="#CB4AF0"/>
<path d="M6.99977 3.49383C8.45577 1.99671 12.0966 4.61646 6.99977 7.98433C1.9029 4.61558 5.54377 1.99671 6.99977 3.49383Z" fill="#F56E03"/>
</g>
<defs>
<clipPath id="clip0_3_4707">
<rect width="14" height="14" fill="white"/>
</clipPath>
</defs>
</svg>
