<svg width="16" height="16" viewBox="0 0 16 16" fill="none" xmlns="http://www.w3.org/2000/svg">
<g clip-path="url(#clip0_149_21250)">
<mask id="path-1-inside-1_149_21250" fill="white">
<path d="M6.94989 0.435C7.52989 -0.145 8.46989 -0.145 9.04989 0.435L15.5649 6.951C16.1449 7.531 16.1449 8.47 15.5649 9.049L9.04989 15.565C8.46989 16.145 7.53089 16.145 6.95189 15.565L0.434892 9.05C0.296956 8.91234 0.187522 8.74884 0.112856 8.56883C0.0381891 8.38883 -0.000244141 8.19587 -0.000244141 8.001C-0.000244141 7.80613 0.0381891 7.61317 0.112856 7.43317C0.187522 7.25316 0.296956 7.08966 0.434892 6.952L6.94989 0.435ZM8.34989 1.135C8.25706 1.04218 8.13117 0.990036 7.99989 0.990036C7.86862 0.990036 7.74272 1.04218 7.64989 1.135L1.13389 7.65C1.04107 7.74283 0.988928 7.86873 0.988928 8C0.988928 8.13127 1.04107 8.25717 1.13389 8.35L7.64989 14.866C7.74272 14.9588 7.86862 15.011 7.99989 15.011C8.13117 15.011 8.25706 14.9588 8.34989 14.866L14.8659 8.35C14.9587 8.25717 15.0109 8.13127 15.0109 8C15.0109 7.86873 14.9587 7.74283 14.8659 7.65L8.34989 1.134V1.135Z"/>
</mask>
<path d="M6.94989 0.435C7.52989 -0.145 8.46989 -0.145 9.04989 0.435L15.5649 6.951C16.1449 7.531 16.1449 8.47 15.5649 9.049L9.04989 15.565C8.46989 16.145 7.53089 16.145 6.95189 15.565L0.434892 9.05C0.296956 8.91234 0.187522 8.74884 0.112856 8.56883C0.0381891 8.38883 -0.000244141 8.19587 -0.000244141 8.001C-0.000244141 7.80613 0.0381891 7.61317 0.112856 7.43317C0.187522 7.25316 0.296956 7.08966 0.434892 6.952L6.94989 0.435ZM8.34989 1.135C8.25706 1.04218 8.13117 0.990036 7.99989 0.990036C7.86862 0.990036 7.74272 1.04218 7.64989 1.135L1.13389 7.65C1.04107 7.74283 0.988928 7.86873 0.988928 8C0.988928 8.13127 1.04107 8.25717 1.13389 8.35L7.64989 14.866C7.74272 14.9588 7.86862 15.011 7.99989 15.011C8.13117 15.011 8.25706 14.9588 8.34989 14.866L14.8659 8.35C14.9587 8.25717 15.0109 8.13127 15.0109 8C15.0109 7.86873 14.9587 7.74283 14.8659 7.65L8.34989 1.134V1.135Z" fill="black"/>
<path d="M6.94989 0.435L6.24279 -0.272107L6.24268 -0.271998L6.94989 0.435ZM9.04989 0.435L9.75705 -0.272052L9.757 -0.272107L9.04989 0.435ZM15.5649 6.951L14.8577 7.65805L14.8578 7.65811L15.5649 6.951ZM15.5649 9.049L14.8584 8.34128L14.8577 8.34195L15.5649 9.049ZM9.04989 15.565L9.757 16.2721L9.75705 16.2721L9.04989 15.565ZM6.95189 15.565L7.65961 14.8585L7.65889 14.8578L6.95189 15.565ZM0.434892 9.05L1.14189 8.34278L1.14128 8.34217L0.434892 9.05ZM-0.000244141 8.001H0.999756H-0.000244141ZM0.434892 6.952L1.14128 7.65983L1.14211 7.659L0.434892 6.952ZM8.34989 1.135L7.64282 1.84214L9.34989 3.54904V1.135H8.34989ZM7.99989 0.990036V-0.00996429V0.990036ZM7.64989 1.135L8.35695 1.84216L8.35696 1.84214L7.64989 1.135ZM1.13389 7.65L0.42684 6.94284L0.42675 6.94293L1.13389 7.65ZM0.988928 8H1.98893H0.988928ZM1.13389 8.35L0.42675 9.05707L0.426786 9.05711L1.13389 8.35ZM7.64989 14.866L6.94279 15.5731L6.94282 15.5731L7.64989 14.866ZM7.99989 15.011V16.011V15.011ZM8.34989 14.866L9.05696 15.5731L9.057 15.5731L8.34989 14.866ZM14.8659 8.35L15.573 9.05711L15.573 9.05707L14.8659 8.35ZM14.8659 7.65L15.573 6.94293L15.573 6.94289L14.8659 7.65ZM8.34989 1.134L9.057 0.426893L7.34989 -1.28021V1.134H8.34989ZM7.657 1.14211C7.84647 0.952631 8.15331 0.952631 8.34279 1.14211L9.757 -0.272107C8.78648 -1.24263 7.21331 -1.24263 6.24279 -0.272107L7.657 1.14211ZM8.34273 1.14205L14.8577 7.65805L16.2721 6.24395L9.75705 -0.272052L8.34273 1.14205ZM14.8578 7.65811C15.0476 7.84792 15.0467 8.15328 14.8584 8.34128L16.2714 9.75672C17.2431 8.78672 17.2422 7.21408 16.272 6.24389L14.8578 7.65811ZM14.8577 8.34195L8.34273 14.8579L9.75705 16.2721L16.2721 9.75605L14.8577 8.34195ZM8.34279 14.8579C8.15297 15.0477 7.84761 15.0468 7.65961 14.8585L6.24418 16.2715C7.21418 17.2432 8.78681 17.2423 9.757 16.2721L8.34279 14.8579ZM7.65889 14.8578L1.14189 8.34278L-0.272106 9.75722L6.24489 16.2722L7.65889 14.8578ZM1.14128 8.34217C1.09642 8.2974 1.06082 8.24422 1.03654 8.18568L-0.810829 8.95199C-0.68578 9.25345 -0.502505 9.52729 -0.271493 9.75783L1.14128 8.34217ZM1.03654 8.18568C1.01226 8.12714 0.999756 8.06438 0.999756 8.001H-1.00024C-1.00024 8.32737 -0.935877 8.65053 -0.810829 8.95199L1.03654 8.18568ZM0.999756 8.001C0.999756 7.93762 1.01226 7.87486 1.03654 7.81632L-0.810829 7.05001C-0.935878 7.35147 -1.00024 7.67463 -1.00024 8.001H0.999756ZM1.03654 7.81632C1.06082 7.75778 1.09642 7.7046 1.14128 7.65983L-0.271493 6.24417C-0.502504 6.47471 -0.68578 6.74855 -0.810829 7.05001L1.03654 7.81632ZM1.14211 7.659L7.65711 1.142L6.24268 -0.271998L-0.272323 6.245L1.14211 7.659ZM9.05696 0.427857C8.7766 0.147523 8.39636 -0.00996429 7.99989 -0.00996429V1.99004C7.86597 1.99004 7.73753 1.93684 7.64282 1.84214L9.05696 0.427857ZM7.99989 -0.00996429C7.60342 -0.00996429 7.22318 0.147523 6.94282 0.427857L8.35696 1.84214C8.26226 1.93684 8.13382 1.99004 7.99989 1.99004V-0.00996429ZM6.94284 0.427839L0.42684 6.94284L1.84094 8.35716L8.35695 1.84216L6.94284 0.427839ZM0.42675 6.94293C0.146416 7.22329 -0.0110718 7.60353 -0.0110718 8H1.98893C1.98893 8.13393 1.93573 8.26237 1.84104 8.35707L0.42675 6.94293ZM-0.0110718 8C-0.0110718 8.39647 0.146415 8.77671 0.42675 9.05707L1.84104 7.64293C1.93573 7.73763 1.98893 7.86608 1.98893 8H-0.0110718ZM0.426786 9.05711L6.94279 15.5731L8.357 14.1589L1.841 7.64289L0.426786 9.05711ZM6.94282 15.5731C7.22318 15.8535 7.60342 16.011 7.99989 16.011V14.011C8.13382 14.011 8.26226 14.0642 8.35696 14.1589L6.94282 15.5731ZM7.99989 16.011C8.39636 16.011 8.7766 15.8535 9.05696 15.5731L7.64282 14.1589C7.73753 14.0642 7.86597 14.011 7.99989 14.011V16.011ZM9.057 15.5731L15.573 9.05711L14.1588 7.64289L7.64279 14.1589L9.057 15.5731ZM15.573 9.05707C15.8534 8.77671 16.0109 8.39647 16.0109 8H14.0109C14.0109 7.86608 14.0641 7.73763 14.1587 7.64293L15.573 9.05707ZM16.0109 8C16.0109 7.60353 15.8534 7.22329 15.573 6.94293L14.1587 8.35707C14.0641 8.26237 14.0109 8.13393 14.0109 8H16.0109ZM15.573 6.94289L9.057 0.426893L7.64279 1.84111L14.1588 8.35711L15.573 6.94289ZM7.34989 1.134V1.135H9.34989V1.134H7.34989Z" fill="#F56E03" mask="url(#path-1-inside-1_149_21250)"/>
<path d="M7.59748 4.94449L7.59749 4.94449L7.59719 4.94165C7.59123 4.8852 7.59721 4.82812 7.61473 4.77412C7.63226 4.72012 7.66094 4.67041 7.69892 4.62821C7.7369 4.58601 7.78332 4.55227 7.83518 4.52917C7.88704 4.50608 7.94318 4.49414 7.99995 4.49414C8.05672 4.49414 8.11286 4.50608 8.16472 4.52917C8.21658 4.55227 8.26301 4.58601 8.30099 4.62821C8.33897 4.67041 8.36765 4.72012 8.38517 4.77412C8.4027 4.82812 8.40867 4.8852 8.40272 4.94165L8.40242 4.94449L8.05243 8.45149L8.05237 8.45148L8.05177 8.45862C8.05066 8.47159 8.04472 8.48369 8.03512 8.4925C8.02553 8.50131 8.01298 8.50619 7.99995 8.50619C7.98693 8.50619 7.97438 8.50131 7.96478 8.4925C7.95519 8.48369 7.94925 8.47159 7.94814 8.45862L7.94819 8.45861L7.94748 8.45149L7.59748 4.94449ZM7.50195 10.9991C7.50195 10.9335 7.51489 10.8685 7.54001 10.8078C7.56514 10.7471 7.60197 10.692 7.6484 10.6456C7.69483 10.5992 7.74995 10.5623 7.81061 10.5372C7.87127 10.5121 7.93629 10.4991 8.00195 10.4991C8.06761 10.4991 8.13263 10.5121 8.19329 10.5372C8.25396 10.5623 8.30908 10.5992 8.35551 10.6456C8.40194 10.692 8.43877 10.7471 8.46389 10.8078C8.48902 10.8685 8.50195 10.9335 8.50195 10.9991C8.50195 11.1317 8.44927 11.2589 8.35551 11.3527C8.26174 11.4465 8.13456 11.4991 8.00195 11.4991C7.86935 11.4991 7.74217 11.4465 7.6484 11.3527C7.55463 11.2589 7.50195 11.1317 7.50195 10.9991Z" fill="black" stroke="#F56E03"/>
</g>
<defs>
<clipPath id="clip0_149_21250">
<rect width="16" height="16" fill="white"/>
</clipPath>
</defs>
</svg>
