<svg width="26" height="26" viewBox="0 0 26 26" fill="none" xmlns="http://www.w3.org/2000/svg">
<g clip-path="url(#clip0_149_22542)">
<path fill-rule="evenodd" clip-rule="evenodd" d="M9.75 20.3125C9.75 20.528 9.8356 20.7347 9.98798 20.887C10.1403 21.0394 10.347 21.125 10.5625 21.125H23.5625C23.778 21.125 23.9847 21.0394 24.137 20.887C24.2894 20.7347 24.375 20.528 24.375 20.3125V5.6875C24.375 5.47201 24.2894 5.26535 24.137 5.11298C23.9847 4.9606 23.778 4.875 23.5625 4.875H10.5625C10.347 4.875 10.1403 4.9606 9.98798 5.11298C9.8356 5.26535 9.75 5.47201 9.75 5.6875V8.9375C9.75 9.15299 9.6644 9.35965 9.51202 9.51202C9.35965 9.6644 9.15299 9.75 8.9375 9.75C8.72201 9.75 8.51535 9.6644 8.36298 9.51202C8.2106 9.35965 8.125 9.15299 8.125 8.9375V5.6875C8.125 5.04103 8.38181 4.42105 8.83893 3.96393C9.29605 3.50681 9.91603 3.25 10.5625 3.25H23.5625C24.209 3.25 24.829 3.50681 25.2861 3.96393C25.7432 4.42105 26 5.04103 26 5.6875V20.3125C26 20.959 25.7432 21.579 25.2861 22.0361C24.829 22.4932 24.209 22.75 23.5625 22.75H10.5625C9.91603 22.75 9.29605 22.4932 8.83893 22.0361C8.38181 21.579 8.125 20.959 8.125 20.3125V17.0625C8.125 16.847 8.2106 16.6403 8.36298 16.488C8.51535 16.3356 8.72201 16.25 8.9375 16.25C9.15299 16.25 9.35965 16.3356 9.51202 16.488C9.6644 16.6403 9.75 16.847 9.75 17.0625V20.3125Z" fill="#403F3F"/>
<path fill-rule="evenodd" clip-rule="evenodd" d="M0.237238 13.5753C0.161572 13.4998 0.10154 13.4102 0.0605797 13.3115C0.0196192 13.2127 -0.00146484 13.1069 -0.00146484 13.0001C-0.00146484 12.8932 0.0196192 12.7874 0.0605797 12.6886C0.10154 12.5899 0.161572 12.5003 0.237238 12.4248L5.11224 7.5498C5.18778 7.47426 5.27746 7.41433 5.37616 7.37345C5.47487 7.33257 5.58065 7.31152 5.68749 7.31152C5.79432 7.31152 5.90011 7.33257 5.99881 7.37345C6.09751 7.41433 6.18719 7.47426 6.26274 7.5498C6.33828 7.62534 6.3982 7.71503 6.43909 7.81373C6.47997 7.91243 6.50101 8.01822 6.50101 8.12505C6.50101 8.23188 6.47997 8.33767 6.43909 8.43637C6.3982 8.53508 6.33828 8.62476 6.26274 8.7003L2.77386 12.1876H17.0625C17.278 12.1876 17.4846 12.2732 17.637 12.4255C17.7894 12.5779 17.875 12.7846 17.875 13.0001C17.875 13.2155 17.7894 13.4222 17.637 13.5746C17.4846 13.7269 17.278 13.8126 17.0625 13.8126H2.77386L6.26274 17.2998C6.33828 17.3753 6.3982 17.465 6.43909 17.5637C6.47997 17.6624 6.50101 17.7682 6.50101 17.8751C6.50101 17.9819 6.47997 18.0877 6.43909 18.1864C6.3982 18.2851 6.33828 18.3748 6.26274 18.4503C6.18719 18.5258 6.09751 18.5858 5.99881 18.6267C5.90011 18.6675 5.79432 18.6886 5.68749 18.6886C5.58065 18.6886 5.47487 18.6675 5.37616 18.6267C5.27746 18.5858 5.18778 18.5258 5.11224 18.4503L0.237238 13.5753Z" fill="black"/>
<path fill-rule="evenodd" clip-rule="evenodd" d="M0.237238 13.5753C0.161572 13.4998 0.10154 13.4102 0.0605797 13.3115C0.0196192 13.2127 -0.00146484 13.1069 -0.00146484 13.0001C-0.00146484 12.8932 0.0196192 12.7874 0.0605797 12.6886C0.10154 12.5899 0.161572 12.5003 0.237238 12.4248L5.11224 7.5498C5.18778 7.47426 5.27746 7.41433 5.37616 7.37345C5.47487 7.33257 5.58065 7.31152 5.68749 7.31152C5.79432 7.31152 5.90011 7.33257 5.99881 7.37345C6.09751 7.41433 6.18719 7.47426 6.26274 7.5498C6.33828 7.62534 6.3982 7.71503 6.43909 7.81373C6.47997 7.91243 6.50101 8.01822 6.50101 8.12505C6.50101 8.23188 6.47997 8.33767 6.43909 8.43637C6.3982 8.53508 6.33828 8.62476 6.26274 8.7003L2.77386 12.1876H17.0625C17.278 12.1876 17.4846 12.2732 17.637 12.4255C17.7894 12.5779 17.875 12.7846 17.875 13.0001C17.875 13.2155 17.7894 13.4222 17.637 13.5746C17.4846 13.7269 17.278 13.8126 17.0625 13.8126H2.77386L6.26274 17.2998C6.33828 17.3753 6.3982 17.465 6.43909 17.5637C6.47997 17.6624 6.50101 17.7682 6.50101 17.8751C6.50101 17.9819 6.47997 18.0877 6.43909 18.1864C6.3982 18.2851 6.33828 18.3748 6.26274 18.4503C6.18719 18.5258 6.09751 18.5858 5.99881 18.6267C5.90011 18.6675 5.79432 18.6886 5.68749 18.6886C5.58065 18.6886 5.47487 18.6675 5.37616 18.6267C5.27746 18.5858 5.18778 18.5258 5.11224 18.4503L0.237238 13.5753Z" fill="#403F3F"/>
</g>
<defs>
<clipPath id="clip0_149_22542">
<rect width="26" height="26" fill="white"/>
</clipPath>
</defs>
</svg>
