<svg width="25" height="25" viewBox="0 0 25 25" fill="none" xmlns="http://www.w3.org/2000/svg">
<path d="M15.7136 6.47014H17.3618V3.59931C17.0774 3.56019 16.0995 3.47217 14.9606 3.47217C12.5842 3.47217 10.9563 4.96702 10.9563 7.71447V10.243H8.33398V13.4524H10.9563V21.5277H14.1715V13.4531H16.6877L17.0872 10.2438H14.1707V8.0327C14.1715 7.1051 14.4212 6.47014 15.7136 6.47014Z" fill="#183646"/>
<path d="M15.7136 6.47014H17.3618V3.59931C17.0774 3.56019 16.0995 3.47217 14.9606 3.47217C12.5842 3.47217 10.9563 4.96702 10.9563 7.71447V10.243H8.33398V13.4524H10.9563V21.5277H14.1715V13.4531H16.6877L17.0872 10.2438H14.1707V8.0327C14.1715 7.1051 14.4212 6.47014 15.7136 6.47014Z" fill="white"/>
<path d="M15.7136 6.47014H17.3618V3.59931C17.0774 3.56019 16.0995 3.47217 14.9606 3.47217C12.5842 3.47217 10.9563 4.96702 10.9563 7.71447V10.243H8.33398V13.4524H10.9563V21.5277H14.1715V13.4531H16.6877L17.0872 10.2438H14.1707V8.0327C14.1715 7.1051 14.4212 6.47014 15.7136 6.47014Z" fill="url(#paint0_linear_45_8709)"/>
<path d="M15.7136 6.47014H17.3618V3.59931C17.0774 3.56019 16.0995 3.47217 14.9606 3.47217C12.5842 3.47217 10.9563 4.96702 10.9563 7.71447V10.243H8.33398V13.4524H10.9563V21.5277H14.1715V13.4531H16.6877L17.0872 10.2438H14.1707V8.0327C14.1715 7.1051 14.4212 6.47014 15.7136 6.47014Z" fill="white"/>
<defs>
<linearGradient id="paint0_linear_45_8709" x1="8.33398" y1="3.47217" x2="18.3932" y2="4.06634" gradientUnits="userSpaceOnUse">
<stop stop-color="#2D2D2D"/>
<stop offset="0.363608" stop-color="#bfbfbf"/>
<stop offset="1" stop-color="#bfbfbf"/>
</linearGradient>
</defs>
</svg>
