<svg width="26" height="26" viewBox="0 0 26 26" fill="none" xmlns="http://www.w3.org/2000/svg">
<path fill-rule="evenodd" clip-rule="evenodd" d="M3.25 21.9375V11.375H4.875V21.9375C4.875 22.153 4.9606 22.3597 5.11298 22.512C5.26535 22.6644 5.47201 22.75 5.6875 22.75H20.3125C20.528 22.75 20.7347 22.6644 20.887 22.512C21.0394 22.3597 21.125 22.153 21.125 21.9375V11.375H22.75V21.9375C22.75 22.584 22.4932 23.204 22.0361 23.6611C21.579 24.1182 20.959 24.375 20.3125 24.375H5.6875C5.04103 24.375 4.42105 24.1182 3.96393 23.6611C3.50681 23.204 3.25 22.584 3.25 21.9375ZM21.125 4.0625V9.75L17.875 6.5V4.0625C17.875 3.84701 17.9606 3.64035 18.113 3.48798C18.2653 3.3356 18.472 3.25 18.6875 3.25H20.3125C20.528 3.25 20.7347 3.3356 20.887 3.48798C21.0394 3.64035 21.125 3.84701 21.125 4.0625Z" fill="white"/>
<path fill-rule="evenodd" clip-rule="evenodd" d="M3.25 21.9375V11.375H4.875V21.9375C4.875 22.153 4.9606 22.3597 5.11298 22.512C5.26535 22.6644 5.47201 22.75 5.6875 22.75H20.3125C20.528 22.75 20.7347 22.6644 20.887 22.512C21.0394 22.3597 21.125 22.153 21.125 21.9375V11.375H22.75V21.9375C22.75 22.584 22.4932 23.204 22.0361 23.6611C21.579 24.1182 20.959 24.375 20.3125 24.375H5.6875C5.04103 24.375 4.42105 24.1182 3.96393 23.6611C3.50681 23.204 3.25 22.584 3.25 21.9375ZM21.125 4.0625V9.75L17.875 6.5V4.0625C17.875 3.84701 17.9606 3.64035 18.113 3.48798C18.2653 3.3356 18.472 3.25 18.6875 3.25H20.3125C20.528 3.25 20.7347 3.3356 20.887 3.48798C21.0394 3.64035 21.125 3.84701 21.125 4.0625Z" fill="#F56E03"/>
<path fill-rule="evenodd" clip-rule="evenodd" d="M11.8511 2.43769C12.1558 2.13305 12.5691 1.96191 13 1.96191C13.4309 1.96191 13.8441 2.13305 14.1489 2.43769L24.9502 13.2374C25.1028 13.39 25.1885 13.5969 25.1885 13.8127C25.1885 14.0285 25.1028 14.2354 24.9502 14.3879C24.7977 14.5405 24.5907 14.6262 24.375 14.6262C24.1592 14.6262 23.9523 14.5405 23.7997 14.3879L13 3.58657L2.20024 14.3879C2.04767 14.5405 1.84075 14.6262 1.62499 14.6262C1.40923 14.6262 1.2023 14.5405 1.04974 14.3879C0.897173 14.2354 0.811462 14.0285 0.811462 13.8127C0.811462 13.5969 0.897173 13.39 1.04974 13.2374L11.8511 2.43769Z" fill="white"/>
<path fill-rule="evenodd" clip-rule="evenodd" d="M11.8511 2.43769C12.1558 2.13305 12.5691 1.96191 13 1.96191C13.4309 1.96191 13.8441 2.13305 14.1489 2.43769L24.9502 13.2374C25.1028 13.39 25.1885 13.5969 25.1885 13.8127C25.1885 14.0285 25.1028 14.2354 24.9502 14.3879C24.7977 14.5405 24.5907 14.6262 24.375 14.6262C24.1592 14.6262 23.9523 14.5405 23.7997 14.3879L13 3.58657L2.20024 14.3879C2.04767 14.5405 1.84075 14.6262 1.62499 14.6262C1.40923 14.6262 1.2023 14.5405 1.04974 14.3879C0.897173 14.2354 0.811462 14.0285 0.811462 13.8127C0.811462 13.5969 0.897173 13.39 1.04974 13.2374L11.8511 2.43769Z" fill="#F56E03"/>
</svg>
