<svg width="26" height="26" viewBox="0 0 26 26" fill="none" xmlns="http://www.w3.org/2000/svg"><path fill-rule="evenodd" clip-rule="evenodd" d="M3.41211 5.2002C3.19662 5.2002 2.98996 5.2858 2.83759 5.43817C2.68521 5.59054 2.59961 5.79721 2.59961 6.0127V7.6377C2.59961 7.85318 2.68521 8.05985 2.83759 8.21222C2.98996 8.36459 3.19662 8.4502 3.41211 8.4502H5.03711C5.2526 8.4502 5.45926 8.36459 5.61163 8.21222C5.76401 8.05985 5.84961 7.85318 5.84961 7.6377V6.0127C5.84961 5.79721 5.76401 5.59054 5.61163 5.43817C5.45926 5.2858 5.2526 5.2002 5.03711 5.2002H3.41211ZM5.03711 6.0127H3.41211V7.6377H5.03711V6.0127Z" fill="white"/><path fill-rule="evenodd" clip-rule="evenodd" d="M3.41211 5.2002C3.19662 5.2002 2.98996 5.2858 2.83759 5.43817C2.68521 5.59054 2.59961 5.79721 2.59961 6.0127V7.6377C2.59961 7.85318 2.68521 8.05985 2.83759 8.21222C2.98996 8.36459 3.19662 8.4502 3.41211 8.4502H5.03711C5.2526 8.4502 5.45926 8.36459 5.61163 8.21222C5.76401 8.05985 5.84961 7.85318 5.84961 7.6377V6.0127C5.84961 5.79721 5.76401 5.59054 5.61163 5.43817C5.45926 5.2858 5.2526 5.2002 5.03711 5.2002H3.41211ZM5.03711 6.0127H3.41211V7.6377H5.03711V6.0127Z" fill="#F56E03"/><path d="M8.28711 6.8252C8.28711 6.60971 8.37271 6.40304 8.52509 6.25067C8.67746 6.0983 8.88412 6.0127 9.09961 6.0127H23.7246C23.9401 6.0127 24.1468 6.0983 24.2991 6.25067C24.4515 6.40304 24.5371 6.60971 24.5371 6.8252C24.5371 7.04068 24.4515 7.24735 24.2991 7.39972C24.1468 7.55209 23.9401 7.6377 23.7246 7.6377H9.09961C8.88412 7.6377 8.67746 7.55209 8.52509 7.39972C8.37271 7.24735 8.28711 7.04068 8.28711 6.8252ZM9.09961 12.5127C8.88412 12.5127 8.67746 12.5983 8.52509 12.7507C8.37271 12.903 8.28711 13.1097 8.28711 13.3252C8.28711 13.5407 8.37271 13.7473 8.52509 13.8997C8.67746 14.0521 8.88412 14.1377 9.09961 14.1377H23.7246C23.9401 14.1377 24.1468 14.0521 24.2991 13.8997C24.4515 13.7473 24.5371 13.5407 24.5371 13.3252C24.5371 13.1097 24.4515 12.903 24.2991 12.7507C24.1468 12.5983 23.9401 12.5127 23.7246 12.5127H9.09961ZM9.09961 19.0127C8.88412 19.0127 8.67746 19.0983 8.52509 19.2507C8.37271 19.403 8.28711 19.6097 8.28711 19.8252C8.28711 20.0407 8.37271 20.2473 8.52509 20.3997C8.67746 20.5521 8.88412 20.6377 9.09961 20.6377H23.7246C23.9401 20.6377 24.1468 20.5521 24.2991 20.3997C24.4515 20.2473 24.5371 20.0407 24.5371 19.8252C24.5371 19.6097 24.4515 19.403 24.2991 19.2507C24.1468 19.0983 23.9401 19.0127 23.7246 19.0127H9.09961Z" fill="white"/><path d="M8.28711 6.8252C8.28711 6.60971 8.37271 6.40304 8.52509 6.25067C8.67746 6.0983 8.88412 6.0127 9.09961 6.0127H23.7246C23.9401 6.0127 24.1468 6.0983 24.2991 6.25067C24.4515 6.40304 24.5371 6.60971 24.5371 6.8252C24.5371 7.04068 24.4515 7.24735 24.2991 7.39972C24.1468 7.55209 23.9401 7.6377 23.7246 7.6377H9.09961C8.88412 7.6377 8.67746 7.55209 8.52509 7.39972C8.37271 7.24735 8.28711 7.04068 8.28711 6.8252ZM9.09961 12.5127C8.88412 12.5127 8.67746 12.5983 8.52509 12.7507C8.37271 12.903 8.28711 13.1097 8.28711 13.3252C8.28711 13.5407 8.37271 13.7473 8.52509 13.8997C8.67746 14.0521 8.88412 14.1377 9.09961 14.1377H23.7246C23.9401 14.1377 24.1468 14.0521 24.2991 13.8997C24.4515 13.7473 24.5371 13.5407 24.5371 13.3252C24.5371 13.1097 24.4515 12.903 24.2991 12.7507C24.1468 12.5983 23.9401 12.5127 23.7246 12.5127H9.09961ZM9.09961 19.0127C8.88412 19.0127 8.67746 19.0983 8.52509 19.2507C8.37271 19.403 8.28711 19.6097 8.28711 19.8252C8.28711 20.0407 8.37271 20.2473 8.52509 20.3997C8.67746 20.5521 8.88412 20.6377 9.09961 20.6377H23.7246C23.9401 20.6377 24.1468 20.5521 24.2991 20.3997C24.4515 20.2473 24.5371 20.0407 24.5371 19.8252C24.5371 19.6097 24.4515 19.403 24.2991 19.2507C24.1468 19.0983 23.9401 19.0127 23.7246 19.0127H9.09961Z" fill="#F56E03"/><path fill-rule="evenodd" clip-rule="evenodd" d="M2.59961 12.5127C2.59961 12.2972 2.68521 12.0905 2.83759 11.9382C2.98996 11.7858 3.19662 11.7002 3.41211 11.7002H5.03711C5.2526 11.7002 5.45926 11.7858 5.61163 11.9382C5.76401 12.0905 5.84961 12.2972 5.84961 12.5127V14.1377C5.84961 14.3532 5.76401 14.5598 5.61163 14.7122C5.45926 14.8646 5.2526 14.9502 5.03711 14.9502H3.41211C3.19662 14.9502 2.98996 14.8646 2.83759 14.7122C2.68521 14.5598 2.59961 14.3532 2.59961 14.1377V12.5127ZM3.41211 12.5127H5.03711V14.1377H3.41211V12.5127ZM3.41211 18.2002C3.19662 18.2002 2.98996 18.2858 2.83759 18.4382C2.68521 18.5905 2.59961 18.7972 2.59961 19.0127V20.6377C2.59961 20.8532 2.68521 21.0598 2.83759 21.2122C2.98996 21.3646 3.19662 21.4502 3.41211 21.4502H5.03711C5.2526 21.4502 5.45926 21.3646 5.61163 21.2122C5.76401 21.0598 5.84961 20.8532 5.84961 20.6377V19.0127C5.84961 18.7972 5.76401 18.5905 5.61163 18.4382C5.45926 18.2858 5.2526 18.2002 5.03711 18.2002H3.41211ZM5.03711 19.0127H3.41211V20.6377H5.03711V19.0127Z" fill="white"/><path fill-rule="evenodd" clip-rule="evenodd" d="M2.59961 12.5127C2.59961 12.2972 2.68521 12.0905 2.83759 11.9382C2.98996 11.7858 3.19662 11.7002 3.41211 11.7002H5.03711C5.2526 11.7002 5.45926 11.7858 5.61163 11.9382C5.76401 12.0905 5.84961 12.2972 5.84961 12.5127V14.1377C5.84961 14.3532 5.76401 14.5598 5.61163 14.7122C5.45926 14.8646 5.2526 14.9502 5.03711 14.9502H3.41211C3.19662 14.9502 2.98996 14.8646 2.83759 14.7122C2.68521 14.5598 2.59961 14.3532 2.59961 14.1377V12.5127ZM3.41211 12.5127H5.03711V14.1377H3.41211V12.5127ZM3.41211 18.2002C3.19662 18.2002 2.98996 18.2858 2.83759 18.4382C2.68521 18.5905 2.59961 18.7972 2.59961 19.0127V20.6377C2.59961 20.8532 2.68521 21.0598 2.83759 21.2122C2.98996 21.3646 3.19662 21.4502 3.41211 21.4502H5.03711C5.2526 21.4502 5.45926 21.3646 5.61163 21.2122C5.76401 21.0598 5.84961 20.8532 5.84961 20.6377V19.0127C5.84961 18.7972 5.76401 18.5905 5.61163 18.4382C5.45926 18.2858 5.2526 18.2002 5.03711 18.2002H3.41211ZM5.03711 19.0127H3.41211V20.6377H5.03711V19.0127Z" fill="#F56E03"/></svg>
