<svg width="209" height="50" viewBox="0 0 209 50" fill="none" xmlns="http://www.w3.org/2000/svg">
<path d="M8.512 32L1.024 9.6H4.32L11.2 30.272H9.536L16.672 9.6H19.616L26.592 30.272H24.992L31.968 9.6H35.008L27.52 32H24.16L17.632 12.832H18.496L11.936 32H8.512ZM164.604 35.2L175.164 5.056H177.948L167.388 35.2H164.604Z" fill="#F56E03"/>
<path d="M49.5033 32.256C47.7966 32.256 46.2073 31.968 44.7353 31.392C43.2846 30.816 42.0259 30.016 40.9593 28.992C39.8926 27.9467 39.0606 26.7307 38.4633 25.344C37.8659 23.9573 37.5673 22.4427 37.5673 20.8C37.5673 19.1573 37.8659 17.6427 38.4633 16.256C39.0606 14.8693 39.8926 13.664 40.9593 12.64C42.0259 11.5947 43.2846 10.784 44.7353 10.208C46.1859 9.632 47.7753 9.344 49.5033 9.344C51.2099 9.344 52.7779 9.632 54.2073 10.208C55.6579 10.7627 56.9166 11.5627 57.9833 12.608C59.0713 13.632 59.9033 14.8373 60.4793 16.224C61.0766 17.6107 61.3753 19.136 61.3753 20.8C61.3753 22.464 61.0766 23.9893 60.4793 25.376C59.9033 26.7627 59.0713 27.9787 57.9833 29.024C56.9166 30.048 55.6579 30.848 54.2073 31.424C52.7779 31.9787 51.2099 32.256 49.5033 32.256ZM49.5033 29.408C50.7406 29.408 51.8819 29.1947 52.9272 28.768C53.9939 28.3413 54.9113 27.744 55.6793 26.976C56.4686 26.1867 57.0766 25.2693 57.5033 24.224C57.9513 23.1787 58.1753 22.0373 58.1753 20.8C58.1753 19.5627 57.9513 18.4213 57.5033 17.376C57.0766 16.3307 56.4686 15.424 55.6793 14.656C54.9113 13.8667 53.9939 13.2587 52.9272 12.832C51.8819 12.4053 50.7406 12.192 49.5033 12.192C48.2446 12.192 47.0819 12.4053 46.0153 12.832C44.9699 13.2587 44.0526 13.8667 43.2633 14.656C42.4739 15.424 41.8553 16.3307 41.4073 17.376C40.9806 18.4213 40.7673 19.5627 40.7673 20.8C40.7673 22.0373 40.9806 23.1787 41.4073 24.224C41.8553 25.2693 42.4739 26.1867 43.2633 26.976C44.0526 27.744 44.9699 28.3413 46.0153 28.768C47.0819 29.1947 48.2446 29.408 49.5033 29.408ZM66.2663 32V9.6H75.0023C76.9649 9.6 78.6396 9.90933 80.0263 10.528C81.4129 11.1467 82.4796 12.0427 83.2263 13.216C83.9729 14.3893 84.3463 15.7867 84.3463 17.408C84.3463 19.0293 83.9729 20.4267 83.2263 21.6C82.4796 22.752 81.4129 23.6373 80.0263 24.256C78.6396 24.8747 76.9649 25.184 75.0023 25.184H68.0263L69.4663 23.712V32H66.2663ZM81.2423 32L75.5463 23.872H78.9703L84.7303 32H81.2423ZM69.4663 24.032L68.0263 22.464H74.9063C76.9543 22.464 78.5009 22.0267 79.5463 21.152C80.6129 20.256 81.1463 19.008 81.1463 17.408C81.1463 15.808 80.6129 14.5707 79.5463 13.696C78.5009 12.8213 76.9543 12.384 74.9063 12.384H68.0263L69.4663 10.784V24.032ZM92.3323 26.592L92.1723 22.688L104.876 9.6H108.524L98.7003 19.968L96.9083 21.952L92.3323 26.592ZM89.5163 32V9.6H92.7163V32H89.5163ZM105.388 32L96.2043 21.312L98.3483 18.944L109.132 32H105.388ZM127.528 32V29.824L136.648 21.024C137.458 20.256 138.056 19.584 138.44 19.008C138.845 18.4107 139.112 17.8667 139.24 17.376C139.389 16.864 139.464 16.3733 139.464 15.904C139.464 14.752 139.058 13.8453 138.248 13.184C137.437 12.5227 136.253 12.192 134.696 12.192C133.501 12.192 132.424 12.3947 131.464 12.8C130.504 13.184 129.672 13.792 128.968 14.624L126.792 12.736C127.645 11.648 128.786 10.816 130.216 10.24C131.666 9.64267 133.256 9.344 134.984 9.344C136.541 9.344 137.896 9.6 139.048 10.112C140.2 10.6027 141.085 11.3173 141.704 12.256C142.344 13.1947 142.664 14.304 142.664 15.584C142.664 16.3093 142.568 17.024 142.376 17.728C142.184 18.432 141.821 19.1787 141.288 19.968C140.754 20.7573 139.986 21.6427 138.984 22.624L130.856 30.464L130.088 29.216H143.624V32H127.528ZM145.31 26.496V24.256L156.766 9.6H160.222L148.862 24.256L147.23 23.744H165.118V26.496H145.31ZM157.758 32V26.496L157.854 23.744V18.88H160.862V32H157.758ZM182.158 32L191.662 10.944L192.494 12.384H179.182L180.782 10.816V16.384H177.71V9.6H194.606V11.776L185.55 32H182.158Z" fill="white"/>
<g filter="url(#filter0_d_149_22315)">
<ellipse cx="49.5" cy="21" rx="5.5" ry="5" fill="#F56E03"/>
</g>
<defs>
<filter id="filter0_d_149_22315" x="44" y="16" width="35" height="34" filterUnits="userSpaceOnUse" color-interpolation-filters="sRGB">
<feFlood flood-opacity="0" result="BackgroundImageFix"/>
<feColorMatrix in="SourceAlpha" type="matrix" values="0 0 0 0 0 0 0 0 0 0 0 0 0 0 0 0 0 0 127 0" result="hardAlpha"/>
<feOffset dx="12" dy="12"/>
<feGaussianBlur stdDeviation="6"/>
<feComposite in2="hardAlpha" operator="out"/>
<feColorMatrix type="matrix" values="0 0 0 0 0 0 0 0 0 0 0 0 0 0 0 0 0 0 0.12 0"/>
<feBlend mode="normal" in2="BackgroundImageFix" result="effect1_dropShadow_149_22315"/>
<feBlend mode="normal" in="SourceGraphic" in2="effect1_dropShadow_149_22315" result="shape"/>
</filter>
</defs>
</svg>
