<svg width="14" height="14" viewBox="0 0 14 14" fill="none" xmlns="http://www.w3.org/2000/svg">
<g opacity="0.5" clip-path="url(#clip0_45_7676)">
<path d="M11.375 5.6875C11.375 5.57147 11.3289 5.46019 11.2469 5.37814C11.1648 5.29609 11.0535 5.25 10.9375 5.25H6.5625C6.44647 5.25 6.33519 5.29609 6.25314 5.37814C6.17109 5.46019 6.125 5.57147 6.125 5.6875C6.125 5.80353 6.17109 5.91481 6.25314 5.99686C6.33519 6.07891 6.44647 6.125 6.5625 6.125H10.9375C11.0535 6.125 11.1648 6.07891 11.2469 5.99686C11.3289 5.91481 11.375 5.80353 11.375 5.6875ZM11.375 8.3125C11.375 8.19647 11.3289 8.08519 11.2469 8.00314C11.1648 7.92109 11.0535 7.875 10.9375 7.875H6.5625C6.44647 7.875 6.33519 7.92109 6.25314 8.00314C6.17109 8.08519 6.125 8.19647 6.125 8.3125C6.125 8.42853 6.17109 8.53981 6.25314 8.62186C6.33519 8.70391 6.44647 8.75 6.5625 8.75H10.9375C11.0535 8.75 11.1648 8.70391 11.2469 8.62186C11.3289 8.53981 11.375 8.42853 11.375 8.3125ZM10.9375 10.5C11.0535 10.5 11.1648 10.5461 11.2469 10.6281C11.3289 10.7102 11.375 10.8215 11.375 10.9375C11.375 11.0535 11.3289 11.1648 11.2469 11.2469C11.1648 11.3289 11.0535 11.375 10.9375 11.375H6.5625C6.44647 11.375 6.33519 11.3289 6.25314 11.2469C6.17109 11.1648 6.125 11.0535 6.125 10.9375C6.125 10.8215 6.17109 10.7102 6.25314 10.6281C6.33519 10.5461 6.44647 10.5 6.5625 10.5H10.9375Z" fill="black"/>
<path d="M11.375 5.6875C11.375 5.57147 11.3289 5.46019 11.2469 5.37814C11.1648 5.29609 11.0535 5.25 10.9375 5.25H6.5625C6.44647 5.25 6.33519 5.29609 6.25314 5.37814C6.17109 5.46019 6.125 5.57147 6.125 5.6875C6.125 5.80353 6.17109 5.91481 6.25314 5.99686C6.33519 6.07891 6.44647 6.125 6.5625 6.125H10.9375C11.0535 6.125 11.1648 6.07891 11.2469 5.99686C11.3289 5.91481 11.375 5.80353 11.375 5.6875ZM11.375 8.3125C11.375 8.19647 11.3289 8.08519 11.2469 8.00314C11.1648 7.92109 11.0535 7.875 10.9375 7.875H6.5625C6.44647 7.875 6.33519 7.92109 6.25314 8.00314C6.17109 8.08519 6.125 8.19647 6.125 8.3125C6.125 8.42853 6.17109 8.53981 6.25314 8.62186C6.33519 8.70391 6.44647 8.75 6.5625 8.75H10.9375C11.0535 8.75 11.1648 8.70391 11.2469 8.62186C11.3289 8.53981 11.375 8.42853 11.375 8.3125ZM10.9375 10.5C11.0535 10.5 11.1648 10.5461 11.2469 10.6281C11.3289 10.7102 11.375 10.8215 11.375 10.9375C11.375 11.0535 11.3289 11.1648 11.2469 11.2469C11.1648 11.3289 11.0535 11.375 10.9375 11.375H6.5625C6.44647 11.375 6.33519 11.3289 6.25314 11.2469C6.17109 11.1648 6.125 11.0535 6.125 10.9375C6.125 10.8215 6.17109 10.7102 6.25314 10.6281C6.33519 10.5461 6.44647 10.5 6.5625 10.5H10.9375Z" fill="#F56E03"/>
<path d="M12.25 0C12.7141 0 13.1592 0.184374 13.4874 0.512563C13.8156 0.840752 14 1.28587 14 1.75V12.25C14 12.7141 13.8156 13.1592 13.4874 13.4874C13.1592 13.8156 12.7141 14 12.25 14H1.75C1.28587 14 0.840752 13.8156 0.512563 13.4874C0.184374 13.1592 0 12.7141 0 12.25V1.75C0 1.28587 0.184374 0.840752 0.512563 0.512563C0.840752 0.184374 1.28587 0 1.75 0L12.25 0ZM1.75 0.875C1.51794 0.875 1.29538 0.967187 1.13128 1.13128C0.967187 1.29538 0.875 1.51794 0.875 1.75V2.625H13.125V1.75C13.125 1.51794 13.0328 1.29538 12.8687 1.13128C12.7046 0.967187 12.4821 0.875 12.25 0.875H1.75ZM0.875 3.5V12.25C0.875 12.4821 0.967187 12.7046 1.13128 12.8687C1.29538 13.0328 1.51794 13.125 1.75 13.125H3.5V3.5H0.875ZM4.375 3.5V13.125H12.25C12.4821 13.125 12.7046 13.0328 12.8687 12.8687C13.0328 12.7046 13.125 12.4821 13.125 12.25V3.5H4.375Z" fill="black"/>
<path d="M12.25 0C12.7141 0 13.1592 0.184374 13.4874 0.512563C13.8156 0.840752 14 1.28587 14 1.75V12.25C14 12.7141 13.8156 13.1592 13.4874 13.4874C13.1592 13.8156 12.7141 14 12.25 14H1.75C1.28587 14 0.840752 13.8156 0.512563 13.4874C0.184374 13.1592 0 12.7141 0 12.25V1.75C0 1.28587 0.184374 0.840752 0.512563 0.512563C0.840752 0.184374 1.28587 0 1.75 0L12.25 0ZM1.75 0.875C1.51794 0.875 1.29538 0.967187 1.13128 1.13128C0.967187 1.29538 0.875 1.51794 0.875 1.75V2.625H13.125V1.75C13.125 1.51794 13.0328 1.29538 12.8687 1.13128C12.7046 0.967187 12.4821 0.875 12.25 0.875H1.75ZM0.875 3.5V12.25C0.875 12.4821 0.967187 12.7046 1.13128 12.8687C1.29538 13.0328 1.51794 13.125 1.75 13.125H3.5V3.5H0.875ZM4.375 3.5V13.125H12.25C12.4821 13.125 12.7046 13.0328 12.8687 12.8687C13.0328 12.7046 13.125 12.4821 13.125 12.25V3.5H4.375Z" fill="#F56E03"/>
</g>
<defs>
<clipPath id="clip0_45_7676">
<rect width="14" height="14" fill="white"/>
</clipPath>
</defs>
</svg>
