<svg width="14" height="14" viewBox="0 0 14 14" fill="none" xmlns="http://www.w3.org/2000/svg">
<g opacity="0.5" clip-path="url(#clip0_45_7669)">
<path d="M12.6875 2.625C12.8035 2.625 12.9148 2.67109 12.9969 2.75314C13.0789 2.83519 13.125 2.94647 13.125 3.0625V10.9375C13.125 11.0535 13.0789 11.1648 12.9969 11.2469C12.9148 11.3289 12.8035 11.375 12.6875 11.375H1.3125C1.19647 11.375 1.08519 11.3289 1.00314 11.2469C0.921094 11.1648 0.875 11.0535 0.875 10.9375V3.0625C0.875 2.94647 0.921094 2.83519 1.00314 2.75314C1.08519 2.67109 1.19647 2.625 1.3125 2.625H12.6875ZM1.3125 1.75C0.964403 1.75 0.630564 1.88828 0.384422 2.13442C0.138281 2.38056 0 2.7144 0 3.0625L0 10.9375C0 11.2856 0.138281 11.6194 0.384422 11.8656C0.630564 12.1117 0.964403 12.25 1.3125 12.25H12.6875C13.0356 12.25 13.3694 12.1117 13.6156 11.8656C13.8617 11.6194 14 11.2856 14 10.9375V3.0625C14 2.7144 13.8617 2.38056 13.6156 2.13442C13.3694 1.88828 13.0356 1.75 12.6875 1.75H1.3125Z" fill="black"/>
<path d="M12.6875 2.625C12.8035 2.625 12.9148 2.67109 12.9969 2.75314C13.0789 2.83519 13.125 2.94647 13.125 3.0625V10.9375C13.125 11.0535 13.0789 11.1648 12.9969 11.2469C12.9148 11.3289 12.8035 11.375 12.6875 11.375H1.3125C1.19647 11.375 1.08519 11.3289 1.00314 11.2469C0.921094 11.1648 0.875 11.0535 0.875 10.9375V3.0625C0.875 2.94647 0.921094 2.83519 1.00314 2.75314C1.08519 2.67109 1.19647 2.625 1.3125 2.625H12.6875ZM1.3125 1.75C0.964403 1.75 0.630564 1.88828 0.384422 2.13442C0.138281 2.38056 0 2.7144 0 3.0625L0 10.9375C0 11.2856 0.138281 11.6194 0.384422 11.8656C0.630564 12.1117 0.964403 12.25 1.3125 12.25H12.6875C13.0356 12.25 13.3694 12.1117 13.6156 11.8656C13.8617 11.6194 14 11.2856 14 10.9375V3.0625C14 2.7144 13.8617 2.38056 13.6156 2.13442C13.3694 1.88828 13.0356 1.75 12.6875 1.75H1.3125Z" fill="#F56E03"/>
<path d="M2.625 7.4375C2.625 7.32147 2.67109 7.21019 2.75314 7.12814C2.83519 7.04609 2.94647 7 3.0625 7H10.9375C11.0535 7 11.1648 7.04609 11.2469 7.12814C11.3289 7.21019 11.375 7.32147 11.375 7.4375C11.375 7.55353 11.3289 7.66481 11.2469 7.74686C11.1648 7.82891 11.0535 7.875 10.9375 7.875H3.0625C2.94647 7.875 2.83519 7.82891 2.75314 7.74686C2.67109 7.66481 2.625 7.55353 2.625 7.4375ZM2.625 9.1875C2.625 9.07147 2.67109 8.96019 2.75314 8.87814C2.83519 8.79609 2.94647 8.75 3.0625 8.75H8.3125C8.42853 8.75 8.53981 8.79609 8.62186 8.87814C8.70391 8.96019 8.75 9.07147 8.75 9.1875C8.75 9.30353 8.70391 9.41481 8.62186 9.49686C8.53981 9.57891 8.42853 9.625 8.3125 9.625H3.0625C2.94647 9.625 2.83519 9.57891 2.75314 9.49686C2.67109 9.41481 2.625 9.30353 2.625 9.1875ZM2.625 4.8125C2.625 4.69647 2.67109 4.58519 2.75314 4.50314C2.83519 4.42109 2.94647 4.375 3.0625 4.375H10.9375C11.0535 4.375 11.1648 4.42109 11.2469 4.50314C11.3289 4.58519 11.375 4.69647 11.375 4.8125V5.6875C11.375 5.80353 11.3289 5.91481 11.2469 5.99686C11.1648 6.07891 11.0535 6.125 10.9375 6.125H3.0625C2.94647 6.125 2.83519 6.07891 2.75314 5.99686C2.67109 5.91481 2.625 5.80353 2.625 5.6875V4.8125Z" fill="black"/>
<path d="M2.625 7.4375C2.625 7.32147 2.67109 7.21019 2.75314 7.12814C2.83519 7.04609 2.94647 7 3.0625 7H10.9375C11.0535 7 11.1648 7.04609 11.2469 7.12814C11.3289 7.21019 11.375 7.32147 11.375 7.4375C11.375 7.55353 11.3289 7.66481 11.2469 7.74686C11.1648 7.82891 11.0535 7.875 10.9375 7.875H3.0625C2.94647 7.875 2.83519 7.82891 2.75314 7.74686C2.67109 7.66481 2.625 7.55353 2.625 7.4375ZM2.625 9.1875C2.625 9.07147 2.67109 8.96019 2.75314 8.87814C2.83519 8.79609 2.94647 8.75 3.0625 8.75H8.3125C8.42853 8.75 8.53981 8.79609 8.62186 8.87814C8.70391 8.96019 8.75 9.07147 8.75 9.1875C8.75 9.30353 8.70391 9.41481 8.62186 9.49686C8.53981 9.57891 8.42853 9.625 8.3125 9.625H3.0625C2.94647 9.625 2.83519 9.57891 2.75314 9.49686C2.67109 9.41481 2.625 9.30353 2.625 9.1875ZM2.625 4.8125C2.625 4.69647 2.67109 4.58519 2.75314 4.50314C2.83519 4.42109 2.94647 4.375 3.0625 4.375H10.9375C11.0535 4.375 11.1648 4.42109 11.2469 4.50314C11.3289 4.58519 11.375 4.69647 11.375 4.8125V5.6875C11.375 5.80353 11.3289 5.91481 11.2469 5.99686C11.1648 6.07891 11.0535 6.125 10.9375 6.125H3.0625C2.94647 6.125 2.83519 6.07891 2.75314 5.99686C2.67109 5.91481 2.625 5.80353 2.625 5.6875V4.8125Z" fill="#F56E03"/>
</g>
<defs>
<clipPath id="clip0_45_7669">
<rect width="14" height="14" fill="white"/>
</clipPath>
</defs>
</svg>
