<svg width="24" height="24" viewBox="0 0 24 24" fill="none" xmlns="http://www.w3.org/2000/svg">
<path d="M11.9999 20C12.5628 20 13.1026 19.7893 13.5007 19.4142C13.8987 19.0392 14.1223 18.5305 14.1223 18.0001H9.87741C9.87741 18.5305 10.101 19.0392 10.4991 19.4142C10.8971 19.7893 11.437 20 11.9999 20ZM11.9999 5.91877L11.1541 6.07976C10.1947 6.26395 9.33229 6.75483 8.71288 7.46931C8.09346 8.18379 7.75507 9.07798 7.75496 10.0005C7.75496 10.6285 7.61276 12.1974 7.26786 13.7423C7.09806 14.5093 6.86884 15.3083 6.56427 16.0002H17.4355C17.1309 15.3083 16.9027 14.5103 16.7319 13.7423C16.387 12.1974 16.2448 10.6285 16.2448 10.0005C16.2444 9.07815 15.9059 8.18419 15.2865 7.46992C14.6671 6.75565 13.8049 6.26492 12.8457 6.08076L11.9999 5.91777V5.91877ZM18.6007 16.0002C18.8373 16.4472 19.1111 16.8012 19.4284 17.0002H4.57129C4.8886 16.8012 5.16239 16.4472 5.39904 16.0002C6.35415 14.2003 6.69374 10.8805 6.69374 10.0005C6.69374 7.58068 8.51904 5.56079 10.9439 5.09981C10.9291 4.96078 10.9454 4.82036 10.9917 4.68761C11.0381 4.55486 11.1134 4.43274 11.2129 4.32911C11.3124 4.22549 11.4338 4.14266 11.5694 4.08597C11.7049 4.02929 11.8516 4 11.9999 4C12.1482 4 12.2948 4.02929 12.4304 4.08597C12.5659 4.14266 12.6874 4.22549 12.7868 4.32911C12.8863 4.43274 12.9617 4.55486 13.008 4.68761C13.0543 4.82036 13.0706 4.96078 13.0558 5.09981C14.2553 5.3297 15.3336 5.94313 16.1081 6.83622C16.8827 7.72931 17.3058 8.84718 17.306 10.0005C17.306 10.8805 17.6456 14.2003 18.6007 16.0002Z" fill="#F56E03"/>
</svg>
