<svg width="30" height="30" viewBox="0 0 30 30" fill="none" xmlns="http://www.w3.org/2000/svg">
<g opacity="0.7" clip-path="url(#clip0_45_16665)">
<g clip-path="url(#clip1_45_16665)">
<path d="M23.163 8.16298C23.2501 8.07582 23.3193 7.97234 23.3665 7.85845C23.4136 7.74456 23.4379 7.6225 23.4379 7.49923C23.4379 7.37596 23.4136 7.2539 23.3665 7.14001C23.3193 7.02613 23.2501 6.92265 23.163 6.83548C23.0758 6.74832 22.9723 6.67917 22.8584 6.632C22.7446 6.58483 22.6225 6.56055 22.4992 6.56055C22.376 6.56055 22.2539 6.58483 22.14 6.632C22.0261 6.67917 21.9226 6.74832 21.8355 6.83548L9.37423 19.2986L3.47548 13.398C3.38832 13.3108 3.28484 13.2417 3.17095 13.1945C3.05706 13.1473 2.935 13.123 2.81173 13.123C2.56278 13.123 2.32402 13.2219 2.14798 13.398C1.97194 13.574 1.87305 13.8128 1.87305 14.0617C1.87305 14.3107 1.97194 14.5494 2.14798 14.7255L8.71048 21.288C8.79757 21.3753 8.90102 21.4446 9.01492 21.4918C9.12882 21.5391 9.25092 21.5634 9.37423 21.5634C9.49755 21.5634 9.61965 21.5391 9.73354 21.4918C9.84744 21.4446 9.9509 21.3753 10.038 21.288L23.163 8.16298ZM15.273 21.288L13.593 19.6061L14.9186 18.2805L15.9367 19.2986L28.398 6.83548C28.574 6.65944 28.8128 6.56055 29.0617 6.56055C29.3107 6.56055 29.5494 6.65944 29.7255 6.83548C29.9015 7.01152 30.0004 7.25028 30.0004 7.49923C30.0004 7.74819 29.9015 7.98694 29.7255 8.16298L16.6005 21.288C16.5134 21.3753 16.4099 21.4446 16.296 21.4918C16.1821 21.5391 16.06 21.5634 15.9367 21.5634C15.8134 21.5634 15.6913 21.5391 15.5774 21.4918C15.4635 21.4446 15.3601 21.3753 15.273 21.288Z" fill="#F56E03"/>
<path d="M23.163 8.16298C23.2501 8.07582 23.3193 7.97234 23.3665 7.85845C23.4136 7.74456 23.4379 7.6225 23.4379 7.49923C23.4379 7.37596 23.4136 7.2539 23.3665 7.14001C23.3193 7.02613 23.2501 6.92265 23.163 6.83548C23.0758 6.74832 22.9723 6.67917 22.8584 6.632C22.7446 6.58483 22.6225 6.56055 22.4992 6.56055C22.376 6.56055 22.2539 6.58483 22.14 6.632C22.0261 6.67917 21.9226 6.74832 21.8355 6.83548L9.37423 19.2986L3.47548 13.398C3.38832 13.3108 3.28484 13.2417 3.17095 13.1945C3.05706 13.1473 2.935 13.123 2.81173 13.123C2.56278 13.123 2.32402 13.2219 2.14798 13.398C1.97194 13.574 1.87305 13.8128 1.87305 14.0617C1.87305 14.3107 1.97194 14.5494 2.14798 14.7255L8.71048 21.288C8.79757 21.3753 8.90102 21.4446 9.01492 21.4918C9.12882 21.5391 9.25092 21.5634 9.37423 21.5634C9.49755 21.5634 9.61965 21.5391 9.73354 21.4918C9.84744 21.4446 9.9509 21.3753 10.038 21.288L23.163 8.16298ZM15.273 21.288L13.593 19.6061L14.9186 18.2805L15.9367 19.2986L28.398 6.83548C28.574 6.65944 28.8128 6.56055 29.0617 6.56055C29.3107 6.56055 29.5494 6.65944 29.7255 6.83548C29.9015 7.01152 30.0004 7.25028 30.0004 7.49923C30.0004 7.74819 29.9015 7.98694 29.7255 8.16298L16.6005 21.288C16.5134 21.3753 16.4099 21.4446 16.296 21.4918C16.1821 21.5391 16.06 21.5634 15.9367 21.5634C15.8134 21.5634 15.6913 21.5391 15.5774 21.4918C15.4635 21.4446 15.3601 21.3753 15.273 21.288Z" fill="#04B100"/>
<path d="M10.038 13.398L11.718 15.0799L10.3924 16.4055L8.71048 14.7255C8.53444 14.5494 8.43555 14.3107 8.43555 14.0617C8.43555 13.8128 8.53444 13.574 8.71048 13.398C8.88652 13.2219 9.12528 13.123 9.37423 13.123C9.62319 13.123 9.86194 13.2219 10.038 13.398Z" fill="#F56E03"/>
<path d="M10.038 13.398L11.718 15.0799L10.3924 16.4055L8.71048 14.7255C8.53444 14.5494 8.43555 14.3107 8.43555 14.0617C8.43555 13.8128 8.53444 13.574 8.71048 13.398C8.88652 13.2219 9.12528 13.123 9.37423 13.123C9.62319 13.123 9.86194 13.2219 10.038 13.398Z" fill="#04B100"/>
</g>
</g>
<defs>
<clipPath id="clip0_45_16665">
<rect width="30" height="30" fill="white"/>
</clipPath>
<clipPath id="clip1_45_16665">
<rect width="30" height="30" fill="white"/>
</clipPath>
</defs>
</svg>
