<svg width="26" height="26" viewBox="0 0 26 26" fill="none" xmlns="http://www.w3.org/2000/svg"><path d="M21.8433 4.15675C21.9376 4.25106 22.0124 4.36304 22.0635 4.48628C22.1145 4.60951 22.1408 4.7416 22.1408 4.875C22.1408 5.0084 22.1145 5.14049 22.0635 5.26372C22.0124 5.38696 21.9376 5.49894 21.8433 5.59325L5.59325 21.8433C5.49893 21.9376 5.38695 22.0124 5.26371 22.0634C5.14048 22.1145 5.00839 22.1408 4.875 22.1408C4.74161 22.1408 4.60952 22.1145 4.48629 22.0634C4.36305 22.0124 4.25107 21.9376 4.15675 21.8433C4.06243 21.7489 3.98761 21.637 3.93656 21.5137C3.88551 21.3905 3.85924 21.2584 3.85924 21.125C3.85924 20.9916 3.88551 20.8595 3.93656 20.7363C3.98761 20.613 4.06243 20.5011 4.15675 20.4067L20.4067 4.15675C20.5011 4.06241 20.613 3.98758 20.7363 3.93652C20.8595 3.88546 20.9916 3.85919 21.125 3.85919C21.2584 3.85919 21.3905 3.88546 21.5137 3.93652C21.637 3.98758 21.7489 4.06241 21.8433 4.15675ZM7.3125 9.75C6.66603 9.75 6.04605 9.49319 5.58893 9.03607C5.13181 8.57895 4.875 7.95897 4.875 7.3125C4.875 6.66603 5.13181 6.04605 5.58893 5.58893C6.04605 5.13181 6.66603 4.875 7.3125 4.875C7.95897 4.875 8.57895 5.13181 9.03607 5.58893C9.49319 6.04605 9.75 6.66603 9.75 7.3125C9.75 7.95897 9.49319 8.57895 9.03607 9.03607C8.57895 9.49319 7.95897 9.75 7.3125 9.75ZM7.3125 11.375C8.38994 11.375 9.42325 10.947 10.1851 10.1851C10.947 9.42325 11.375 8.38994 11.375 7.3125C11.375 6.23506 10.947 5.20175 10.1851 4.43988C9.42325 3.67801 8.38994 3.25 7.3125 3.25C6.23506 3.25 5.20175 3.67801 4.43988 4.43988C3.67801 5.20175 3.25 6.23506 3.25 7.3125C3.25 8.38994 3.67801 9.42325 4.43988 10.1851C5.20175 10.947 6.23506 11.375 7.3125 11.375ZM18.6875 21.125C18.041 21.125 17.421 20.8682 16.9639 20.4111C16.5068 19.954 16.25 19.334 16.25 18.6875C16.25 18.041 16.5068 17.421 16.9639 16.9639C17.421 16.5068 18.041 16.25 18.6875 16.25C19.334 16.25 19.954 16.5068 20.4111 16.9639C20.8682 17.421 21.125 18.041 21.125 18.6875C21.125 19.334 20.8682 19.954 20.4111 20.4111C19.954 20.8682 19.334 21.125 18.6875 21.125ZM18.6875 22.75C19.7649 22.75 20.7983 22.322 21.5601 21.5601C22.322 20.7983 22.75 19.7649 22.75 18.6875C22.75 17.6101 22.322 16.5767 21.5601 15.8149C20.7983 15.053 19.7649 14.625 18.6875 14.625C17.6101 14.625 16.5767 15.053 15.8149 15.8149C15.053 16.5767 14.625 17.6101 14.625 18.6875C14.625 19.7649 15.053 20.7983 15.8149 21.5601C16.5767 22.322 17.6101 22.75 18.6875 22.75Z" fill="#F56E03"/></svg>
