<svg width="26" height="26" viewBox="0 0 26 26" fill="none" xmlns="http://www.w3.org/2000/svg"><path d="M13 13C14.2929 13 15.5329 12.4864 16.4471 11.5721C17.3614 10.6579 17.875 9.41793 17.875 8.125C17.875 6.83207 17.3614 5.59209 16.4471 4.67785C15.5329 3.76361 14.2929 3.25 13 3.25C11.7071 3.25 10.4671 3.76361 9.55285 4.67785C8.63861 5.59209 8.125 6.83207 8.125 8.125C8.125 9.41793 8.63861 10.6579 9.55285 11.5721C10.4671 12.4864 11.7071 13 13 13ZM16.25 8.125C16.25 8.98695 15.9076 9.8136 15.2981 10.4231C14.6886 11.0326 13.862 11.375 13 11.375C12.138 11.375 11.3114 11.0326 10.7019 10.4231C10.0924 9.8136 9.75 8.98695 9.75 8.125C9.75 7.26305 10.0924 6.4364 10.7019 5.8269C11.3114 5.21741 12.138 4.875 13 4.875C13.862 4.875 14.6886 5.21741 15.2981 5.8269C15.9076 6.4364 16.25 7.26305 16.25 8.125ZM22.75 21.125C22.75 22.75 21.125 22.75 21.125 22.75H4.875C4.875 22.75 3.25 22.75 3.25 21.125C3.25 19.5 4.875 14.625 13 14.625C21.125 14.625 22.75 19.5 22.75 21.125ZM21.125 21.1185C21.1234 20.7188 20.8748 19.5162 19.773 18.4145C18.7135 17.355 16.7196 16.25 13 16.25C9.27875 16.25 7.2865 17.355 6.227 18.4145C5.12525 19.5162 4.87825 20.7188 4.875 21.1185H21.125Z" fill="white"/><path d="M13 13C14.2929 13 15.5329 12.4864 16.4471 11.5721C17.3614 10.6579 17.875 9.41793 17.875 8.125C17.875 6.83207 17.3614 5.59209 16.4471 4.67785C15.5329 3.76361 14.2929 3.25 13 3.25C11.7071 3.25 10.4671 3.76361 9.55285 4.67785C8.63861 5.59209 8.125 6.83207 8.125 8.125C8.125 9.41793 8.63861 10.6579 9.55285 11.5721C10.4671 12.4864 11.7071 13 13 13ZM16.25 8.125C16.25 8.98695 15.9076 9.8136 15.2981 10.4231C14.6886 11.0326 13.862 11.375 13 11.375C12.138 11.375 11.3114 11.0326 10.7019 10.4231C10.0924 9.8136 9.75 8.98695 9.75 8.125C9.75 7.26305 10.0924 6.4364 10.7019 5.8269C11.3114 5.21741 12.138 4.875 13 4.875C13.862 4.875 14.6886 5.21741 15.2981 5.8269C15.9076 6.4364 16.25 7.26305 16.25 8.125ZM22.75 21.125C22.75 22.75 21.125 22.75 21.125 22.75H4.875C4.875 22.75 3.25 22.75 3.25 21.125C3.25 19.5 4.875 14.625 13 14.625C21.125 14.625 22.75 19.5 22.75 21.125ZM21.125 21.1185C21.1234 20.7188 20.8748 19.5162 19.773 18.4145C18.7135 17.355 16.7196 16.25 13 16.25C9.27875 16.25 7.2865 17.355 6.227 18.4145C5.12525 19.5162 4.87825 20.7188 4.875 21.1185H21.125Z" fill="#F56E03"/></svg>
