<svg width="26" height="26" viewBox="0 0 26 26" fill="none" xmlns="http://www.w3.org/2000/svg"><path fill-rule="evenodd" clip-rule="evenodd" d="M13 8.9375C13.2155 8.9375 13.4222 9.0231 13.5745 9.17548C13.7269 9.32785 13.8125 9.53451 13.8125 9.75V12.1875H16.25C16.4655 12.1875 16.6722 12.2731 16.8245 12.4255C16.9769 12.5778 17.0625 12.7845 17.0625 13C17.0625 13.2155 16.9769 13.4222 16.8245 13.5745C16.6722 13.7269 16.4655 13.8125 16.25 13.8125H13.8125V16.25C13.8125 16.4655 13.7269 16.6722 13.5745 16.8245C13.4222 16.9769 13.2155 17.0625 13 17.0625C12.7845 17.0625 12.5778 16.9769 12.4255 16.8245C12.2731 16.6722 12.1875 16.4655 12.1875 16.25V13.8125H9.75C9.53451 13.8125 9.32785 13.7269 9.17548 13.5745C9.0231 13.4222 8.9375 13.2155 8.9375 13C8.9375 12.7845 9.0231 12.5778 9.17548 12.4255C9.32785 12.2731 9.53451 12.1875 9.75 12.1875H12.1875V9.75C12.1875 9.53451 12.2731 9.32785 12.4255 9.17548C12.5778 9.0231 12.7845 8.9375 13 8.9375Z" fill="black"/><path fill-rule="evenodd" clip-rule="evenodd" d="M13 8.9375C13.2155 8.9375 13.4222 9.0231 13.5745 9.17548C13.7269 9.32785 13.8125 9.53451 13.8125 9.75V12.1875H16.25C16.4655 12.1875 16.6722 12.2731 16.8245 12.4255C16.9769 12.5778 17.0625 12.7845 17.0625 13C17.0625 13.2155 16.9769 13.4222 16.8245 13.5745C16.6722 13.7269 16.4655 13.8125 16.25 13.8125H13.8125V16.25C13.8125 16.4655 13.7269 16.6722 13.5745 16.8245C13.4222 16.9769 13.2155 17.0625 13 17.0625C12.7845 17.0625 12.5778 16.9769 12.4255 16.8245C12.2731 16.6722 12.1875 16.4655 12.1875 16.25V13.8125H9.75C9.53451 13.8125 9.32785 13.7269 9.17548 13.5745C9.0231 13.4222 8.9375 13.2155 8.9375 13C8.9375 12.7845 9.0231 12.5778 9.17548 12.4255C9.32785 12.2731 9.53451 12.1875 9.75 12.1875H12.1875V9.75C12.1875 9.53451 12.2731 9.32785 12.4255 9.17548C12.5778 9.0231 12.7845 8.9375 13 8.9375Z" fill="#F56E03"/><path d="M4.875 0H21.125C21.987 0 22.8136 0.34241 23.4231 0.951903C24.0326 1.5614 24.375 2.38805 24.375 3.25V22.75C24.375 23.612 24.0326 24.4386 23.4231 25.0481C22.8136 25.6576 21.987 26 21.125 26H4.875C4.01305 26 3.1864 25.6576 2.5769 25.0481C1.96741 24.4386 1.625 23.612 1.625 22.75V21.125H3.25V22.75C3.25 23.181 3.4212 23.5943 3.72595 23.899C4.0307 24.2038 4.44402 24.375 4.875 24.375H21.125C21.556 24.375 21.9693 24.2038 22.274 23.899C22.5788 23.5943 22.75 23.181 22.75 22.75V3.25C22.75 2.81902 22.5788 2.4057 22.274 2.10095C21.9693 1.7962 21.556 1.625 21.125 1.625H4.875C4.44402 1.625 4.0307 1.7962 3.72595 2.10095C3.4212 2.4057 3.25 2.81902 3.25 3.25V4.875H1.625V3.25C1.625 2.38805 1.96741 1.5614 2.5769 0.951903C3.1864 0.34241 4.01305 0 4.875 0V0Z" fill="black"/><path d="M4.875 0H21.125C21.987 0 22.8136 0.34241 23.4231 0.951903C24.0326 1.5614 24.375 2.38805 24.375 3.25V22.75C24.375 23.612 24.0326 24.4386 23.4231 25.0481C22.8136 25.6576 21.987 26 21.125 26H4.875C4.01305 26 3.1864 25.6576 2.5769 25.0481C1.96741 24.4386 1.625 23.612 1.625 22.75V21.125H3.25V22.75C3.25 23.181 3.4212 23.5943 3.72595 23.899C4.0307 24.2038 4.44402 24.375 4.875 24.375H21.125C21.556 24.375 21.9693 24.2038 22.274 23.899C22.5788 23.5943 22.75 23.181 22.75 22.75V3.25C22.75 2.81902 22.5788 2.4057 22.274 2.10095C21.9693 1.7962 21.556 1.625 21.125 1.625H4.875C4.44402 1.625 4.0307 1.7962 3.72595 2.10095C3.4212 2.4057 3.25 2.81902 3.25 3.25V4.875H1.625V3.25C1.625 2.38805 1.96741 1.5614 2.5769 0.951903C3.1864 0.34241 4.01305 0 4.875 0V0Z" fill="#F56E03"/><path d="M1.625 8.125V7.3125C1.625 7.09701 1.7106 6.89035 1.86298 6.73798C2.01535 6.5856 2.22201 6.5 2.4375 6.5C2.65299 6.5 2.85965 6.5856 3.01202 6.73798C3.1644 6.89035 3.25 7.09701 3.25 7.3125V8.125H4.0625C4.27799 8.125 4.48465 8.2106 4.63702 8.36298C4.7894 8.51535 4.875 8.72201 4.875 8.9375C4.875 9.15299 4.7894 9.35965 4.63702 9.51202C4.48465 9.6644 4.27799 9.75 4.0625 9.75H0.8125C0.597012 9.75 0.390349 9.6644 0.237976 9.51202C0.0856024 9.35965 0 9.15299 0 8.9375C0 8.72201 0.0856024 8.51535 0.237976 8.36298C0.390349 8.2106 0.597012 8.125 0.8125 8.125H1.625ZM1.625 13V12.1875C1.625 11.972 1.7106 11.7653 1.86298 11.613C2.01535 11.4606 2.22201 11.375 2.4375 11.375C2.65299 11.375 2.85965 11.4606 3.01202 11.613C3.1644 11.7653 3.25 11.972 3.25 12.1875V13H4.0625C4.27799 13 4.48465 13.0856 4.63702 13.238C4.7894 13.3903 4.875 13.597 4.875 13.8125C4.875 14.028 4.7894 14.2347 4.63702 14.387C4.48465 14.5394 4.27799 14.625 4.0625 14.625H0.8125C0.597012 14.625 0.390349 14.5394 0.237976 14.387C0.0856024 14.2347 0 14.028 0 13.8125C0 13.597 0.0856024 13.3903 0.237976 13.238C0.390349 13.0856 0.597012 13 0.8125 13H1.625ZM1.625 17.875V17.0625C1.625 16.847 1.7106 16.6403 1.86298 16.488C2.01535 16.3356 2.22201 16.25 2.4375 16.25C2.65299 16.25 2.85965 16.3356 3.01202 16.488C3.1644 16.6403 3.25 16.847 3.25 17.0625V17.875H4.0625C4.27799 17.875 4.48465 17.9606 4.63702 18.113C4.7894 18.2653 4.875 18.472 4.875 18.6875C4.875 18.903 4.7894 19.1097 4.63702 19.262C4.48465 19.4144 4.27799 19.5 4.0625 19.5H0.8125C0.597012 19.5 0.390349 19.4144 0.237976 19.262C0.0856024 19.1097 0 18.903 0 18.6875C0 18.472 0.0856024 18.2653 0.237976 18.113C0.390349 17.9606 0.597012 17.875 0.8125 17.875H1.625Z" fill="black"/><path d="M1.625 8.125V7.3125C1.625 7.09701 1.7106 6.89035 1.86298 6.73798C2.01535 6.5856 2.22201 6.5 2.4375 6.5C2.65299 6.5 2.85965 6.5856 3.01202 6.73798C3.1644 6.89035 3.25 7.09701 3.25 7.3125V8.125H4.0625C4.27799 8.125 4.48465 8.2106 4.63702 8.36298C4.7894 8.51535 4.875 8.72201 4.875 8.9375C4.875 9.15299 4.7894 9.35965 4.63702 9.51202C4.48465 9.6644 4.27799 9.75 4.0625 9.75H0.8125C0.597012 9.75 0.390349 9.6644 0.237976 9.51202C0.0856024 9.35965 0 9.15299 0 8.9375C0 8.72201 0.0856024 8.51535 0.237976 8.36298C0.390349 8.2106 0.597012 8.125 0.8125 8.125H1.625ZM1.625 13V12.1875C1.625 11.972 1.7106 11.7653 1.86298 11.613C2.01535 11.4606 2.22201 11.375 2.4375 11.375C2.65299 11.375 2.85965 11.4606 3.01202 11.613C3.1644 11.7653 3.25 11.972 3.25 12.1875V13H4.0625C4.27799 13 4.48465 13.0856 4.63702 13.238C4.7894 13.3903 4.875 13.597 4.875 13.8125C4.875 14.028 4.7894 14.2347 4.63702 14.387C4.48465 14.5394 4.27799 14.625 4.0625 14.625H0.8125C0.597012 14.625 0.390349 14.5394 0.237976 14.387C0.0856024 14.2347 0 14.028 0 13.8125C0 13.597 0.0856024 13.3903 0.237976 13.238C0.390349 13.0856 0.597012 13 0.8125 13H1.625ZM1.625 17.875V17.0625C1.625 16.847 1.7106 16.6403 1.86298 16.488C2.01535 16.3356 2.22201 16.25 2.4375 16.25C2.65299 16.25 2.85965 16.3356 3.01202 16.488C3.1644 16.6403 3.25 16.847 3.25 17.0625V17.875H4.0625C4.27799 17.875 4.48465 17.9606 4.63702 18.113C4.7894 18.2653 4.875 18.472 4.875 18.6875C4.875 18.903 4.7894 19.1097 4.63702 19.262C4.48465 19.4144 4.27799 19.5 4.0625 19.5H0.8125C0.597012 19.5 0.390349 19.4144 0.237976 19.262C0.0856024 19.1097 0 18.903 0 18.6875C0 18.472 0.0856024 18.2653 0.237976 18.113C0.390349 17.9606 0.597012 17.875 0.8125 17.875H1.625Z" fill="#F56E03"/></svg>
