<svg width="25" height="25" viewBox="0 0 25 25" fill="none" xmlns="http://www.w3.org/2000/svg">
<g clip-path="url(#clip0_45_8687)">
<path d="M21.6667 6.72556C21.0072 7.01836 20.2997 7.21693 19.5562 7.30559C20.3153 6.85009 20.8964 6.12761 21.1718 5.26937C20.4597 5.69118 19.6738 5.99748 18.8363 6.16352C18.1657 5.44664 17.2118 5.00012 16.1538 5.00012C14.124 5.00012 12.4782 6.64929 12.4782 8.68213C12.4782 8.97044 12.5107 9.25204 12.5734 9.52131C9.51918 9.36759 6.81092 7.90131 4.99831 5.67323C4.68146 6.21623 4.50121 6.84895 4.50121 7.52434C4.50121 8.80218 5.15058 9.92966 6.13582 10.5893C5.53347 10.5691 4.96696 10.4031 4.471 10.1271V10.1731C4.471 11.9569 5.73837 13.4456 7.41885 13.7844C7.11096 13.8675 6.78629 13.9135 6.45041 13.9135C6.21308 13.9135 5.98356 13.8899 5.75851 13.845C6.22649 15.3091 7.58344 16.3737 9.19117 16.4029C7.93387 17.3902 6.34854 17.9769 4.62663 17.9769C4.32995 17.9769 4.03772 17.959 3.75 17.9264C5.37676 18.9732 7.30804 19.5835 9.38375 19.5835C16.1449 19.5835 19.8407 13.9718 19.8407 9.1051L19.8283 8.6283C20.5504 8.1122 21.1752 7.46376 21.6667 6.72556Z" fill="black"/>
<path d="M21.6667 6.72556C21.0072 7.01836 20.2997 7.21693 19.5562 7.30559C20.3153 6.85009 20.8964 6.12761 21.1718 5.26937C20.4597 5.69118 19.6738 5.99748 18.8363 6.16352C18.1657 5.44664 17.2118 5.00012 16.1538 5.00012C14.124 5.00012 12.4782 6.64929 12.4782 8.68213C12.4782 8.97044 12.5107 9.25204 12.5734 9.52131C9.51918 9.36759 6.81092 7.90131 4.99831 5.67323C4.68146 6.21623 4.50121 6.84895 4.50121 7.52434C4.50121 8.80218 5.15058 9.92966 6.13582 10.5893C5.53347 10.5691 4.96696 10.4031 4.471 10.1271V10.1731C4.471 11.9569 5.73837 13.4456 7.41885 13.7844C7.11096 13.8675 6.78629 13.9135 6.45041 13.9135C6.21308 13.9135 5.98356 13.8899 5.75851 13.845C6.22649 15.3091 7.58344 16.3737 9.19117 16.4029C7.93387 17.3902 6.34854 17.9769 4.62663 17.9769C4.32995 17.9769 4.03772 17.959 3.75 17.9264C5.37676 18.9732 7.30804 19.5835 9.38375 19.5835C16.1449 19.5835 19.8407 13.9718 19.8407 9.1051L19.8283 8.6283C20.5504 8.1122 21.1752 7.46376 21.6667 6.72556Z" fill="url(#paint0_linear_45_8687)"/>
<path d="M21.6667 6.72556C21.0072 7.01836 20.2997 7.21693 19.5562 7.30559C20.3153 6.85009 20.8964 6.12761 21.1718 5.26937C20.4597 5.69118 19.6738 5.99748 18.8363 6.16352C18.1657 5.44664 17.2118 5.00012 16.1538 5.00012C14.124 5.00012 12.4782 6.64929 12.4782 8.68213C12.4782 8.97044 12.5107 9.25204 12.5734 9.52131C9.51918 9.36759 6.81092 7.90131 4.99831 5.67323C4.68146 6.21623 4.50121 6.84895 4.50121 7.52434C4.50121 8.80218 5.15058 9.92966 6.13582 10.5893C5.53347 10.5691 4.96696 10.4031 4.471 10.1271V10.1731C4.471 11.9569 5.73837 13.4456 7.41885 13.7844C7.11096 13.8675 6.78629 13.9135 6.45041 13.9135C6.21308 13.9135 5.98356 13.8899 5.75851 13.845C6.22649 15.3091 7.58344 16.3737 9.19117 16.4029C7.93387 17.3902 6.34854 17.9769 4.62663 17.9769C4.32995 17.9769 4.03772 17.959 3.75 17.9264C5.37676 18.9732 7.30804 19.5835 9.38375 19.5835C16.1449 19.5835 19.8407 13.9718 19.8407 9.1051L19.8283 8.6283C20.5504 8.1122 21.1752 7.46376 21.6667 6.72556Z" fill="white"/>
</g>
<defs>
<linearGradient id="paint0_linear_45_8687" x1="3.75" y1="5.00012" x2="23.37" y2="7.84769" gradientUnits="userSpaceOnUse">
<stop stop-color="#2D2D2D"/>
<stop offset="0.363608" stop-color="#202020"/>
<stop offset="1" stop-color="#181818"/>
</linearGradient>
<clipPath id="clip0_45_8687">
<rect width="18.0556" height="18.0556" fill="white" transform="translate(3.47168 3.47217)"/>
</clipPath>
</defs>
</svg>
