<svg width="50" height="50" viewBox="0 0 50 50" fill="none" xmlns="http://www.w3.org/2000/svg">
<g clip-path="url(#clip0_45_9270)">
<path d="M25 34.3749C25.4144 34.3749 25.8118 34.2102 26.1048 33.9172C26.3979 33.6242 26.5625 33.2268 26.5625 32.8124V20.9592L30.1437 24.5436C30.4371 24.837 30.8351 25.0018 31.25 25.0018C31.6649 25.0018 32.0628 24.837 32.3562 24.5436C32.6496 24.2502 32.8145 23.8523 32.8145 23.4374C32.8145 23.0224 32.6496 22.6245 32.3562 22.3311L26.1062 16.0811C25.9611 15.9356 25.7887 15.8202 25.5988 15.7414C25.409 15.6626 25.2055 15.6221 25 15.6221C24.7945 15.6221 24.591 15.6626 24.4011 15.7414C24.2113 15.8202 24.0389 15.9356 23.8937 16.0811L17.6437 22.3311C17.3503 22.6245 17.1855 23.0224 17.1855 23.4374C17.1855 23.8523 17.3503 24.2502 17.6437 24.5436C17.9371 24.837 18.3351 25.0018 18.75 25.0018C19.1649 25.0018 19.5628 24.837 19.8562 24.5436L23.4375 20.9592V32.8124C23.4375 33.2268 23.6021 33.6242 23.8951 33.9172C24.1882 34.2102 24.5856 34.3749 25 34.3749Z" fill="black"/>
<path d="M25 34.3749C25.4144 34.3749 25.8118 34.2102 26.1048 33.9172C26.3979 33.6242 26.5625 33.2268 26.5625 32.8124V20.9592L30.1437 24.5436C30.4371 24.837 30.8351 25.0018 31.25 25.0018C31.6649 25.0018 32.0628 24.837 32.3562 24.5436C32.6496 24.2502 32.8145 23.8523 32.8145 23.4374C32.8145 23.0224 32.6496 22.6245 32.3562 22.3311L26.1062 16.0811C25.9611 15.9356 25.7887 15.8202 25.5988 15.7414C25.409 15.6626 25.2055 15.6221 25 15.6221C24.7945 15.6221 24.591 15.6626 24.4011 15.7414C24.2113 15.8202 24.0389 15.9356 23.8937 16.0811L17.6437 22.3311C17.3503 22.6245 17.1855 23.0224 17.1855 23.4374C17.1855 23.8523 17.3503 24.2502 17.6437 24.5436C17.9371 24.837 18.3351 25.0018 18.75 25.0018C19.1649 25.0018 19.5628 24.837 19.8562 24.5436L23.4375 20.9592V32.8124C23.4375 33.2268 23.6021 33.6242 23.8951 33.9172C24.1882 34.2102 24.5856 34.3749 25 34.3749Z" fill="#403F3F"/>
<path d="M12.5 0C10.8424 0 9.25268 0.65848 8.08058 1.83058C6.90848 3.00269 6.25 4.5924 6.25 6.25V43.75C6.25 45.4076 6.90848 46.9973 8.08058 48.1694C9.25268 49.3415 10.8424 50 12.5 50H37.5C39.1576 50 40.7473 49.3415 41.9194 48.1694C43.0915 46.9973 43.75 45.4076 43.75 43.75V6.25C43.75 4.5924 43.0915 3.00269 41.9194 1.83058C40.7473 0.65848 39.1576 0 37.5 0L12.5 0ZM12.5 3.125H37.5C38.3288 3.125 39.1237 3.45424 39.7097 4.04029C40.2958 4.62634 40.625 5.4212 40.625 6.25V43.75C40.625 44.5788 40.2958 45.3737 39.7097 45.9597C39.1237 46.5458 38.3288 46.875 37.5 46.875H12.5C11.6712 46.875 10.8763 46.5458 10.2903 45.9597C9.70424 45.3737 9.375 44.5788 9.375 43.75V6.25C9.375 5.4212 9.70424 4.62634 10.2903 4.04029C10.8763 3.45424 11.6712 3.125 12.5 3.125Z" fill="black"/>
<path d="M12.5 0C10.8424 0 9.25268 0.65848 8.08058 1.83058C6.90848 3.00269 6.25 4.5924 6.25 6.25V43.75C6.25 45.4076 6.90848 46.9973 8.08058 48.1694C9.25268 49.3415 10.8424 50 12.5 50H37.5C39.1576 50 40.7473 49.3415 41.9194 48.1694C43.0915 46.9973 43.75 45.4076 43.75 43.75V6.25C43.75 4.5924 43.0915 3.00269 41.9194 1.83058C40.7473 0.65848 39.1576 0 37.5 0L12.5 0ZM12.5 3.125H37.5C38.3288 3.125 39.1237 3.45424 39.7097 4.04029C40.2958 4.62634 40.625 5.4212 40.625 6.25V43.75C40.625 44.5788 40.2958 45.3737 39.7097 45.9597C39.1237 46.5458 38.3288 46.875 37.5 46.875H12.5C11.6712 46.875 10.8763 46.5458 10.2903 45.9597C9.70424 45.3737 9.375 44.5788 9.375 43.75V6.25C9.375 5.4212 9.70424 4.62634 10.2903 4.04029C10.8763 3.45424 11.6712 3.125 12.5 3.125Z" fill="#403F3F"/>
</g>
<defs>
<clipPath id="clip0_45_9270">
<rect width="50" height="50" fill="white"/>
</clipPath>
</defs>
</svg>
