<svg width="14" height="14" viewBox="0 0 14 14" fill="none" xmlns="http://www.w3.org/2000/svg">
<g opacity="0.5" clip-path="url(#clip0_3_4714)">
<path d="M5.25 2.625C5.25 3.32119 4.97344 3.98887 4.48116 4.48116C3.98887 4.97344 3.32119 5.25 2.625 5.25C1.92881 5.25 1.26113 4.97344 0.768845 4.48116C0.276562 3.98887 0 3.32119 0 2.625C0 1.92881 0.276562 1.26113 0.768845 0.768845C1.26113 0.276562 1.92881 0 2.625 0C3.32119 0 3.98887 0.276562 4.48116 0.768845C4.97344 1.26113 5.25 1.92881 5.25 2.625ZM0.875 2.625C0.875 3.08913 1.05937 3.53425 1.38756 3.86244C1.71575 4.19063 2.16087 4.375 2.625 4.375C3.08913 4.375 3.53425 4.19063 3.86244 3.86244C4.19063 3.53425 4.375 3.08913 4.375 2.625C4.375 2.16087 4.19063 1.71575 3.86244 1.38756C3.53425 1.05937 3.08913 0.875 2.625 0.875C2.16087 0.875 1.71575 1.05937 1.38756 1.38756C1.05937 1.71575 0.875 2.16087 0.875 2.625Z" fill="black"/>
<path d="M5.25 2.625C5.25 3.32119 4.97344 3.98887 4.48116 4.48116C3.98887 4.97344 3.32119 5.25 2.625 5.25C1.92881 5.25 1.26113 4.97344 0.768845 4.48116C0.276562 3.98887 0 3.32119 0 2.625C0 1.92881 0.276562 1.26113 0.768845 0.768845C1.26113 0.276562 1.92881 0 2.625 0C3.32119 0 3.98887 0.276562 4.48116 0.768845C4.97344 1.26113 5.25 1.92881 5.25 2.625ZM0.875 2.625C0.875 3.08913 1.05937 3.53425 1.38756 3.86244C1.71575 4.19063 2.16087 4.375 2.625 4.375C3.08913 4.375 3.53425 4.19063 3.86244 3.86244C4.19063 3.53425 4.375 3.08913 4.375 2.625C4.375 2.16087 4.19063 1.71575 3.86244 1.38756C3.53425 1.05937 3.08913 0.875 2.625 0.875C2.16087 0.875 1.71575 1.05937 1.38756 1.38756C1.05937 1.71575 0.875 2.16087 0.875 2.625Z" fill="#F56E03"/>
<path d="M7.875 5.25C8.57119 5.25 9.23887 4.97344 9.73116 4.48116C10.2234 3.98887 10.5 3.32119 10.5 2.625C10.5 1.92881 10.2234 1.26113 9.73116 0.768845C9.23887 0.276562 8.57119 0 7.875 0C7.17881 0 6.51113 0.276562 6.01884 0.768845C5.52656 1.26113 5.25 1.92881 5.25 2.625C5.25 3.32119 5.52656 3.98887 6.01884 4.48116C6.51113 4.97344 7.17881 5.25 7.875 5.25ZM6.125 2.625C6.125 2.16087 6.30937 1.71575 6.63756 1.38756C6.96575 1.05937 7.41087 0.875 7.875 0.875C8.33913 0.875 8.78425 1.05937 9.11244 1.38756C9.44063 1.71575 9.625 2.16087 9.625 2.625C9.625 3.08913 9.44063 3.53425 9.11244 3.86244C8.78425 4.19063 8.33913 4.375 7.875 4.375C7.41087 4.375 6.96575 4.19063 6.63756 3.86244C6.30937 3.53425 6.125 3.08913 6.125 2.625Z" fill="black"/>
<path d="M7.875 5.25C8.57119 5.25 9.23887 4.97344 9.73116 4.48116C10.2234 3.98887 10.5 3.32119 10.5 2.625C10.5 1.92881 10.2234 1.26113 9.73116 0.768845C9.23887 0.276562 8.57119 0 7.875 0C7.17881 0 6.51113 0.276562 6.01884 0.768845C5.52656 1.26113 5.25 1.92881 5.25 2.625C5.25 3.32119 5.52656 3.98887 6.01884 4.48116C6.51113 4.97344 7.17881 5.25 7.875 5.25ZM6.125 2.625C6.125 2.16087 6.30937 1.71575 6.63756 1.38756C6.96575 1.05937 7.41087 0.875 7.875 0.875C8.33913 0.875 8.78425 1.05937 9.11244 1.38756C9.44063 1.71575 9.625 2.16087 9.625 2.625C9.625 3.08913 9.44063 3.53425 9.11244 3.86244C8.78425 4.19063 8.33913 4.375 7.875 4.375C7.41087 4.375 6.96575 4.19063 6.63756 3.86244C6.30937 3.53425 6.125 3.08913 6.125 2.625Z" fill="#F56E03"/>
<path d="M7.875 5.25H8.3125C8.73696 5.24995 9.14696 5.40417 9.46617 5.68394C9.78538 5.96371 9.99202 6.34995 10.0476 6.77075L12.7689 5.5615C12.9021 5.50215 13.048 5.47703 13.1934 5.48842C13.3387 5.49982 13.479 5.54737 13.6013 5.62674C13.7236 5.70612 13.8242 5.81481 13.8938 5.94293C13.9634 6.07106 13.9999 6.21455 14 6.36038V12.8896C13.9999 13.0353 13.9634 13.1787 13.8938 13.3067C13.8242 13.4347 13.7237 13.5434 13.6015 13.6227C13.4793 13.7021 13.3392 13.7496 13.194 13.7611C13.0487 13.7726 12.9029 13.7477 12.7697 13.6885L10.0476 12.4792C9.99202 12.9 9.78538 13.2863 9.46617 13.5661C9.14696 13.8458 8.73696 14 8.3125 14H1.75C1.28587 14 0.840752 13.8156 0.512563 13.4874C0.184374 13.1592 0 12.7141 0 12.25V7C0 6.53587 0.184374 6.09075 0.512563 5.76256C0.840752 5.43437 1.28587 5.25 1.75 5.25H7.875ZM13.125 12.8887V6.36125L10.0625 7.72187V11.5281L13.125 12.8896V12.8887ZM0.875 7V12.25C0.875 12.4821 0.967187 12.7046 1.13128 12.8687C1.29538 13.0328 1.51794 13.125 1.75 13.125H8.3125C8.54456 13.125 8.76712 13.0328 8.93122 12.8687C9.09531 12.7046 9.1875 12.4821 9.1875 12.25V7C9.1875 6.76794 9.09531 6.54538 8.93122 6.38128C8.76712 6.21719 8.54456 6.125 8.3125 6.125H1.75C1.51794 6.125 1.29538 6.21719 1.13128 6.38128C0.967187 6.54538 0.875 6.76794 0.875 7Z" fill="black"/>
<path d="M7.875 5.25H8.3125C8.73696 5.24995 9.14696 5.40417 9.46617 5.68394C9.78538 5.96371 9.99202 6.34995 10.0476 6.77075L12.7689 5.5615C12.9021 5.50215 13.048 5.47703 13.1934 5.48842C13.3387 5.49982 13.479 5.54737 13.6013 5.62674C13.7236 5.70612 13.8242 5.81481 13.8938 5.94293C13.9634 6.07106 13.9999 6.21455 14 6.36038V12.8896C13.9999 13.0353 13.9634 13.1787 13.8938 13.3067C13.8242 13.4347 13.7237 13.5434 13.6015 13.6227C13.4793 13.7021 13.3392 13.7496 13.194 13.7611C13.0487 13.7726 12.9029 13.7477 12.7697 13.6885L10.0476 12.4792C9.99202 12.9 9.78538 13.2863 9.46617 13.5661C9.14696 13.8458 8.73696 14 8.3125 14H1.75C1.28587 14 0.840752 13.8156 0.512563 13.4874C0.184374 13.1592 0 12.7141 0 12.25V7C0 6.53587 0.184374 6.09075 0.512563 5.76256C0.840752 5.43437 1.28587 5.25 1.75 5.25H7.875ZM13.125 12.8887V6.36125L10.0625 7.72187V11.5281L13.125 12.8896V12.8887ZM0.875 7V12.25C0.875 12.4821 0.967187 12.7046 1.13128 12.8687C1.29538 13.0328 1.51794 13.125 1.75 13.125H8.3125C8.54456 13.125 8.76712 13.0328 8.93122 12.8687C9.09531 12.7046 9.1875 12.4821 9.1875 12.25V7C9.1875 6.76794 9.09531 6.54538 8.93122 6.38128C8.76712 6.21719 8.54456 6.125 8.3125 6.125H1.75C1.51794 6.125 1.29538 6.21719 1.13128 6.38128C0.967187 6.54538 0.875 6.76794 0.875 7Z" fill="#F56E03"/>
</g>
<defs>
<clipPath id="clip0_3_4714">
<rect width="14" height="14" fill="white"/>
</clipPath>
</defs>
</svg>
