<svg width="14" height="14" viewBox="0 0 14 14" fill="none" xmlns="http://www.w3.org/2000/svg">
<g opacity="0.5" clip-path="url(#clip0_45_7663)">
<path fill-rule="evenodd" clip-rule="evenodd" d="M0 0.4375C0 0.321468 0.0460936 0.210188 0.128141 0.128141C0.210188 0.0460936 0.321468 0 0.4375 0L3.9375 0C4.05353 0 4.16481 0.0460936 4.24686 0.128141C4.32891 0.210188 4.375 0.321468 4.375 0.4375C4.375 0.553532 4.32891 0.664812 4.24686 0.746859C4.16481 0.828906 4.05353 0.875 3.9375 0.875H0.4375C0.321468 0.875 0.210188 0.828906 0.128141 0.746859C0.0460936 0.664812 0 0.553532 0 0.4375ZM0 2.1875C0 2.07147 0.0460936 1.96019 0.128141 1.87814C0.210188 1.79609 0.321468 1.75 0.4375 1.75H6.5625C6.67853 1.75 6.78981 1.79609 6.87186 1.87814C6.95391 1.96019 7 2.07147 7 2.1875C7 2.30353 6.95391 2.41481 6.87186 2.49686C6.78981 2.57891 6.67853 2.625 6.5625 2.625H0.4375C0.321468 2.625 0.210188 2.57891 0.128141 2.49686C0.0460936 2.41481 0 2.30353 0 2.1875ZM7.875 2.1875C7.875 2.07147 7.92109 1.96019 8.00314 1.87814C8.08519 1.79609 8.19647 1.75 8.3125 1.75H12.6875C12.8035 1.75 12.9148 1.79609 12.9969 1.87814C13.0789 1.96019 13.125 2.07147 13.125 2.1875C13.125 2.30353 13.0789 2.41481 12.9969 2.49686C12.9148 2.57891 12.8035 2.625 12.6875 2.625H8.3125C8.19647 2.625 8.08519 2.57891 8.00314 2.49686C7.92109 2.41481 7.875 2.30353 7.875 2.1875ZM0 3.9375C0 3.82147 0.0460936 3.71019 0.128141 3.62814C0.210188 3.54609 0.321468 3.5 0.4375 3.5H3.0625C3.17853 3.5 3.28981 3.54609 3.37186 3.62814C3.45391 3.71019 3.5 3.82147 3.5 3.9375C3.5 4.05353 3.45391 4.16481 3.37186 4.24686C3.28981 4.32891 3.17853 4.375 3.0625 4.375H0.4375C0.321468 4.375 0.210188 4.32891 0.128141 4.24686C0.0460936 4.16481 0 4.05353 0 3.9375ZM4.375 3.9375C4.375 3.82147 4.42109 3.71019 4.50314 3.62814C4.58519 3.54609 4.69647 3.5 4.8125 3.5H9.1875C9.30353 3.5 9.41481 3.54609 9.49686 3.62814C9.57891 3.71019 9.625 3.82147 9.625 3.9375C9.625 4.05353 9.57891 4.16481 9.49686 4.24686C9.41481 4.32891 9.30353 4.375 9.1875 4.375H4.8125C4.69647 4.375 4.58519 4.32891 4.50314 4.24686C4.42109 4.16481 4.375 4.05353 4.375 3.9375ZM10.5 3.9375C10.5 3.82147 10.5461 3.71019 10.6281 3.62814C10.7102 3.54609 10.8215 3.5 10.9375 3.5H13.5625C13.6785 3.5 13.7898 3.54609 13.8719 3.62814C13.9539 3.71019 14 3.82147 14 3.9375C14 4.05353 13.9539 4.16481 13.8719 4.24686C13.7898 4.32891 13.6785 4.375 13.5625 4.375H10.9375C10.8215 4.375 10.7102 4.32891 10.6281 4.24686C10.5461 4.16481 10.5 4.05353 10.5 3.9375ZM0 5.6875C0 5.57147 0.0460936 5.46019 0.128141 5.37814C0.210188 5.29609 0.321468 5.25 0.4375 5.25H5.6875C5.80353 5.25 5.91481 5.29609 5.99686 5.37814C6.07891 5.46019 6.125 5.57147 6.125 5.6875C6.125 5.80353 6.07891 5.91481 5.99686 5.99686C5.91481 6.07891 5.80353 6.125 5.6875 6.125H0.4375C0.321468 6.125 0.210188 6.07891 0.128141 5.99686C0.0460936 5.91481 0 5.80353 0 5.6875ZM7 5.6875C7 5.57147 7.04609 5.46019 7.12814 5.37814C7.21019 5.29609 7.32147 5.25 7.4375 5.25H11.8125C11.9285 5.25 12.0398 5.29609 12.1219 5.37814C12.2039 5.46019 12.25 5.57147 12.25 5.6875C12.25 5.80353 12.2039 5.91481 12.1219 5.99686C12.0398 6.07891 11.9285 6.125 11.8125 6.125H7.4375C7.32147 6.125 7.21019 6.07891 7.12814 5.99686C7.04609 5.91481 7 5.80353 7 5.6875ZM0 7.4375C0 7.32147 0.0460936 7.21019 0.128141 7.12814C0.210188 7.04609 0.321468 7 0.4375 7H4.8125C4.92853 7 5.03981 7.04609 5.12186 7.12814C5.20391 7.21019 5.25 7.32147 5.25 7.4375C5.25 7.55353 5.20391 7.66481 5.12186 7.74686C5.03981 7.82891 4.92853 7.875 4.8125 7.875H0.4375C0.321468 7.875 0.210188 7.82891 0.128141 7.74686C0.0460936 7.66481 0 7.55353 0 7.4375ZM6.125 7.4375C6.125 7.32147 6.17109 7.21019 6.25314 7.12814C6.33519 7.04609 6.44647 7 6.5625 7H12.6875C12.8035 7 12.9148 7.04609 12.9969 7.12814C13.0789 7.21019 13.125 7.32147 13.125 7.4375C13.125 7.55353 13.0789 7.66481 12.9969 7.74686C12.9148 7.82891 12.8035 7.875 12.6875 7.875H6.5625C6.44647 7.875 6.33519 7.82891 6.25314 7.74686C6.17109 7.66481 6.125 7.55353 6.125 7.4375ZM0 9.1875C0 9.07147 0.0460936 8.96019 0.128141 8.87814C0.210188 8.79609 0.321468 8.75 0.4375 8.75H7.4375C7.55353 8.75 7.66481 8.79609 7.74686 8.87814C7.82891 8.96019 7.875 9.07147 7.875 9.1875C7.875 9.30353 7.82891 9.41481 7.74686 9.49686C7.66481 9.57891 7.55353 9.625 7.4375 9.625H0.4375C0.321468 9.625 0.210188 9.57891 0.128141 9.49686C0.0460936 9.41481 0 9.30353 0 9.1875ZM0 10.9375C0 10.8215 0.0460936 10.7102 0.128141 10.6281C0.210188 10.5461 0.321468 10.5 0.4375 10.5H3.9375C4.05353 10.5 4.16481 10.5461 4.24686 10.6281C4.32891 10.7102 4.375 10.8215 4.375 10.9375C4.375 11.0535 4.32891 11.1648 4.24686 11.2469C4.16481 11.3289 4.05353 11.375 3.9375 11.375H0.4375C0.321468 11.375 0.210188 11.3289 0.128141 11.2469C0.0460936 11.1648 0 11.0535 0 10.9375ZM0 12.6875C0 12.5715 0.0460936 12.4602 0.128141 12.3781C0.210188 12.2961 0.321468 12.25 0.4375 12.25H2.1875C2.30353 12.25 2.41481 12.2961 2.49686 12.3781C2.57891 12.4602 2.625 12.5715 2.625 12.6875C2.625 12.8035 2.57891 12.9148 2.49686 12.9969C2.41481 13.0789 2.30353 13.125 2.1875 13.125H0.4375C0.321468 13.125 0.210188 13.0789 0.128141 12.9969C0.0460936 12.9148 0 12.8035 0 12.6875Z" fill="black"/>
<path fill-rule="evenodd" clip-rule="evenodd" d="M0 0.4375C0 0.321468 0.0460936 0.210188 0.128141 0.128141C0.210188 0.0460936 0.321468 0 0.4375 0L3.9375 0C4.05353 0 4.16481 0.0460936 4.24686 0.128141C4.32891 0.210188 4.375 0.321468 4.375 0.4375C4.375 0.553532 4.32891 0.664812 4.24686 0.746859C4.16481 0.828906 4.05353 0.875 3.9375 0.875H0.4375C0.321468 0.875 0.210188 0.828906 0.128141 0.746859C0.0460936 0.664812 0 0.553532 0 0.4375ZM0 2.1875C0 2.07147 0.0460936 1.96019 0.128141 1.87814C0.210188 1.79609 0.321468 1.75 0.4375 1.75H6.5625C6.67853 1.75 6.78981 1.79609 6.87186 1.87814C6.95391 1.96019 7 2.07147 7 2.1875C7 2.30353 6.95391 2.41481 6.87186 2.49686C6.78981 2.57891 6.67853 2.625 6.5625 2.625H0.4375C0.321468 2.625 0.210188 2.57891 0.128141 2.49686C0.0460936 2.41481 0 2.30353 0 2.1875ZM7.875 2.1875C7.875 2.07147 7.92109 1.96019 8.00314 1.87814C8.08519 1.79609 8.19647 1.75 8.3125 1.75H12.6875C12.8035 1.75 12.9148 1.79609 12.9969 1.87814C13.0789 1.96019 13.125 2.07147 13.125 2.1875C13.125 2.30353 13.0789 2.41481 12.9969 2.49686C12.9148 2.57891 12.8035 2.625 12.6875 2.625H8.3125C8.19647 2.625 8.08519 2.57891 8.00314 2.49686C7.92109 2.41481 7.875 2.30353 7.875 2.1875ZM0 3.9375C0 3.82147 0.0460936 3.71019 0.128141 3.62814C0.210188 3.54609 0.321468 3.5 0.4375 3.5H3.0625C3.17853 3.5 3.28981 3.54609 3.37186 3.62814C3.45391 3.71019 3.5 3.82147 3.5 3.9375C3.5 4.05353 3.45391 4.16481 3.37186 4.24686C3.28981 4.32891 3.17853 4.375 3.0625 4.375H0.4375C0.321468 4.375 0.210188 4.32891 0.128141 4.24686C0.0460936 4.16481 0 4.05353 0 3.9375ZM4.375 3.9375C4.375 3.82147 4.42109 3.71019 4.50314 3.62814C4.58519 3.54609 4.69647 3.5 4.8125 3.5H9.1875C9.30353 3.5 9.41481 3.54609 9.49686 3.62814C9.57891 3.71019 9.625 3.82147 9.625 3.9375C9.625 4.05353 9.57891 4.16481 9.49686 4.24686C9.41481 4.32891 9.30353 4.375 9.1875 4.375H4.8125C4.69647 4.375 4.58519 4.32891 4.50314 4.24686C4.42109 4.16481 4.375 4.05353 4.375 3.9375ZM10.5 3.9375C10.5 3.82147 10.5461 3.71019 10.6281 3.62814C10.7102 3.54609 10.8215 3.5 10.9375 3.5H13.5625C13.6785 3.5 13.7898 3.54609 13.8719 3.62814C13.9539 3.71019 14 3.82147 14 3.9375C14 4.05353 13.9539 4.16481 13.8719 4.24686C13.7898 4.32891 13.6785 4.375 13.5625 4.375H10.9375C10.8215 4.375 10.7102 4.32891 10.6281 4.24686C10.5461 4.16481 10.5 4.05353 10.5 3.9375ZM0 5.6875C0 5.57147 0.0460936 5.46019 0.128141 5.37814C0.210188 5.29609 0.321468 5.25 0.4375 5.25H5.6875C5.80353 5.25 5.91481 5.29609 5.99686 5.37814C6.07891 5.46019 6.125 5.57147 6.125 5.6875C6.125 5.80353 6.07891 5.91481 5.99686 5.99686C5.91481 6.07891 5.80353 6.125 5.6875 6.125H0.4375C0.321468 6.125 0.210188 6.07891 0.128141 5.99686C0.0460936 5.91481 0 5.80353 0 5.6875ZM7 5.6875C7 5.57147 7.04609 5.46019 7.12814 5.37814C7.21019 5.29609 7.32147 5.25 7.4375 5.25H11.8125C11.9285 5.25 12.0398 5.29609 12.1219 5.37814C12.2039 5.46019 12.25 5.57147 12.25 5.6875C12.25 5.80353 12.2039 5.91481 12.1219 5.99686C12.0398 6.07891 11.9285 6.125 11.8125 6.125H7.4375C7.32147 6.125 7.21019 6.07891 7.12814 5.99686C7.04609 5.91481 7 5.80353 7 5.6875ZM0 7.4375C0 7.32147 0.0460936 7.21019 0.128141 7.12814C0.210188 7.04609 0.321468 7 0.4375 7H4.8125C4.92853 7 5.03981 7.04609 5.12186 7.12814C5.20391 7.21019 5.25 7.32147 5.25 7.4375C5.25 7.55353 5.20391 7.66481 5.12186 7.74686C5.03981 7.82891 4.92853 7.875 4.8125 7.875H0.4375C0.321468 7.875 0.210188 7.82891 0.128141 7.74686C0.0460936 7.66481 0 7.55353 0 7.4375ZM6.125 7.4375C6.125 7.32147 6.17109 7.21019 6.25314 7.12814C6.33519 7.04609 6.44647 7 6.5625 7H12.6875C12.8035 7 12.9148 7.04609 12.9969 7.12814C13.0789 7.21019 13.125 7.32147 13.125 7.4375C13.125 7.55353 13.0789 7.66481 12.9969 7.74686C12.9148 7.82891 12.8035 7.875 12.6875 7.875H6.5625C6.44647 7.875 6.33519 7.82891 6.25314 7.74686C6.17109 7.66481 6.125 7.55353 6.125 7.4375ZM0 9.1875C0 9.07147 0.0460936 8.96019 0.128141 8.87814C0.210188 8.79609 0.321468 8.75 0.4375 8.75H7.4375C7.55353 8.75 7.66481 8.79609 7.74686 8.87814C7.82891 8.96019 7.875 9.07147 7.875 9.1875C7.875 9.30353 7.82891 9.41481 7.74686 9.49686C7.66481 9.57891 7.55353 9.625 7.4375 9.625H0.4375C0.321468 9.625 0.210188 9.57891 0.128141 9.49686C0.0460936 9.41481 0 9.30353 0 9.1875ZM0 10.9375C0 10.8215 0.0460936 10.7102 0.128141 10.6281C0.210188 10.5461 0.321468 10.5 0.4375 10.5H3.9375C4.05353 10.5 4.16481 10.5461 4.24686 10.6281C4.32891 10.7102 4.375 10.8215 4.375 10.9375C4.375 11.0535 4.32891 11.1648 4.24686 11.2469C4.16481 11.3289 4.05353 11.375 3.9375 11.375H0.4375C0.321468 11.375 0.210188 11.3289 0.128141 11.2469C0.0460936 11.1648 0 11.0535 0 10.9375ZM0 12.6875C0 12.5715 0.0460936 12.4602 0.128141 12.3781C0.210188 12.2961 0.321468 12.25 0.4375 12.25H2.1875C2.30353 12.25 2.41481 12.2961 2.49686 12.3781C2.57891 12.4602 2.625 12.5715 2.625 12.6875C2.625 12.8035 2.57891 12.9148 2.49686 12.9969C2.41481 13.0789 2.30353 13.125 2.1875 13.125H0.4375C0.321468 13.125 0.210188 13.0789 0.128141 12.9969C0.0460936 12.9148 0 12.8035 0 12.6875Z" fill="#F56E03"/>
</g>
<defs>
<clipPath id="clip0_45_7663">
<rect width="14" height="14" fill="white"/>
</clipPath>
</defs>
</svg>
