<svg width="25" height="25" viewBox="0 0 25 25" fill="none" xmlns="http://www.w3.org/2000/svg">
<path d="M21.8079 7.72894C21.5759 6.87912 20.8956 6.20922 20.033 5.98039C18.4571 5.55566 12.1532 5.55566 12.1532 5.55566C12.1532 5.55566 5.84959 5.55566 4.27365 5.96429C3.4276 6.19288 2.73078 6.87925 2.49871 7.72894C2.08398 9.28111 2.08398 12.5001 2.08398 12.5001C2.08398 12.5001 2.08398 15.7353 2.49871 17.2713C2.73103 18.121 3.41101 18.7909 4.27377 19.0197C5.86618 19.4446 12.1534 19.4446 12.1534 19.4446C12.1534 19.4446 18.4571 19.4446 20.033 19.0359C20.8958 18.8072 21.5759 18.1373 21.8082 17.2876C22.2228 15.7353 22.2228 12.5165 22.2228 12.5165C22.2228 12.5165 22.2394 9.28111 21.8079 7.72894ZM10.1462 15.4739V9.52629L15.3882 12.5001L10.1462 15.4739Z" fill="#183646"/>
<path d="M21.8079 7.72894C21.5759 6.87912 20.8956 6.20922 20.033 5.98039C18.4571 5.55566 12.1532 5.55566 12.1532 5.55566C12.1532 5.55566 5.84959 5.55566 4.27365 5.96429C3.4276 6.19288 2.73078 6.87925 2.49871 7.72894C2.08398 9.28111 2.08398 12.5001 2.08398 12.5001C2.08398 12.5001 2.08398 15.7353 2.49871 17.2713C2.73103 18.121 3.41101 18.7909 4.27377 19.0197C5.86618 19.4446 12.1534 19.4446 12.1534 19.4446C12.1534 19.4446 18.4571 19.4446 20.033 19.0359C20.8958 18.8072 21.5759 18.1373 21.8082 17.2876C22.2228 15.7353 22.2228 12.5165 22.2228 12.5165C22.2228 12.5165 22.2394 9.28111 21.8079 7.72894ZM10.1462 15.4739V9.52629L15.3882 12.5001L10.1462 15.4739Z" fill="white"/>
<path d="M21.8079 7.72894C21.5759 6.87912 20.8956 6.20922 20.033 5.98039C18.4571 5.55566 12.1532 5.55566 12.1532 5.55566C12.1532 5.55566 5.84959 5.55566 4.27365 5.96429C3.4276 6.19288 2.73078 6.87925 2.49871 7.72894C2.08398 9.28111 2.08398 12.5001 2.08398 12.5001C2.08398 12.5001 2.08398 15.7353 2.49871 17.2713C2.73103 18.121 3.41101 18.7909 4.27377 19.0197C5.86618 19.4446 12.1534 19.4446 12.1534 19.4446C12.1534 19.4446 18.4571 19.4446 20.033 19.0359C20.8958 18.8072 21.5759 18.1373 21.8082 17.2876C22.2228 15.7353 22.2228 12.5165 22.2228 12.5165C22.2228 12.5165 22.2394 9.28111 21.8079 7.72894ZM10.1462 15.4739V9.52629L15.3882 12.5001L10.1462 15.4739Z" fill="url(#paint0_linear_45_8697)"/>
<path d="M21.8079 7.72894C21.5759 6.87912 20.8956 6.20922 20.033 5.98039C18.4571 5.55566 12.1532 5.55566 12.1532 5.55566C12.1532 5.55566 5.84959 5.55566 4.27365 5.96429C3.4276 6.19288 2.73078 6.87925 2.49871 7.72894C2.08398 9.28111 2.08398 12.5001 2.08398 12.5001C2.08398 12.5001 2.08398 15.7353 2.49871 17.2713C2.73103 18.121 3.41101 18.7909 4.27377 19.0197C5.86618 19.4446 12.1534 19.4446 12.1534 19.4446C12.1534 19.4446 18.4571 19.4446 20.033 19.0359C20.8958 18.8072 21.5759 18.1373 21.8082 17.2876C22.2228 15.7353 22.2228 12.5165 22.2228 12.5165C22.2228 12.5165 22.2394 9.28111 21.8079 7.72894ZM10.1462 15.4739V9.52629L15.3882 12.5001L10.1462 15.4739Z" fill="white"/>
<defs>
<linearGradient id="paint0_linear_45_8697" x1="2.08398" y1="5.55566" x2="23.9601" y2="9.30293" gradientUnits="userSpaceOnUse">
<stop stop-color="#2D2D2D"/>
<stop offset="0.363608" stop-color="#202020"/>
<stop offset="1" stop-color="#181818"/>
</linearGradient>
</defs>
</svg>
