<svg width="28" height="28" viewBox="0 0 28 28" fill="none" xmlns="http://www.w3.org/2000/svg">
<g opacity="0.5" clip-path="url(#clip0_31_114)">
<path d="M22.75 11.375C22.75 11.1429 22.6578 10.9204 22.4937 10.7563C22.3296 10.5922 22.1071 10.5 21.875 10.5H13.125C12.8929 10.5 12.6704 10.5922 12.5063 10.7563C12.3422 10.9204 12.25 11.1429 12.25 11.375C12.25 11.6071 12.3422 11.8296 12.5063 11.9937C12.6704 12.1578 12.8929 12.25 13.125 12.25H21.875C22.1071 12.25 22.3296 12.1578 22.4937 11.9937C22.6578 11.8296 22.75 11.6071 22.75 11.375ZM22.75 16.625C22.75 16.3929 22.6578 16.1704 22.4937 16.0063C22.3296 15.8422 22.1071 15.75 21.875 15.75H13.125C12.8929 15.75 12.6704 15.8422 12.5063 16.0063C12.3422 16.1704 12.25 16.3929 12.25 16.625C12.25 16.8571 12.3422 17.0796 12.5063 17.2437C12.6704 17.4078 12.8929 17.5 13.125 17.5H21.875C22.1071 17.5 22.3296 17.4078 22.4937 17.2437C22.6578 17.0796 22.75 16.8571 22.75 16.625ZM21.875 21C22.1071 21 22.3296 21.0922 22.4937 21.2563C22.6578 21.4204 22.75 21.6429 22.75 21.875C22.75 22.1071 22.6578 22.3296 22.4937 22.4937C22.3296 22.6578 22.1071 22.75 21.875 22.75H13.125C12.8929 22.75 12.6704 22.6578 12.5063 22.4937C12.3422 22.3296 12.25 22.1071 12.25 21.875C12.25 21.6429 12.3422 21.4204 12.5063 21.2563C12.6704 21.0922 12.8929 21 13.125 21H21.875Z" fill="black"/>
<path d="M22.75 11.375C22.75 11.1429 22.6578 10.9204 22.4937 10.7563C22.3296 10.5922 22.1071 10.5 21.875 10.5H13.125C12.8929 10.5 12.6704 10.5922 12.5063 10.7563C12.3422 10.9204 12.25 11.1429 12.25 11.375C12.25 11.6071 12.3422 11.8296 12.5063 11.9937C12.6704 12.1578 12.8929 12.25 13.125 12.25H21.875C22.1071 12.25 22.3296 12.1578 22.4937 11.9937C22.6578 11.8296 22.75 11.6071 22.75 11.375ZM22.75 16.625C22.75 16.3929 22.6578 16.1704 22.4937 16.0063C22.3296 15.8422 22.1071 15.75 21.875 15.75H13.125C12.8929 15.75 12.6704 15.8422 12.5063 16.0063C12.3422 16.1704 12.25 16.3929 12.25 16.625C12.25 16.8571 12.3422 17.0796 12.5063 17.2437C12.6704 17.4078 12.8929 17.5 13.125 17.5H21.875C22.1071 17.5 22.3296 17.4078 22.4937 17.2437C22.6578 17.0796 22.75 16.8571 22.75 16.625ZM21.875 21C22.1071 21 22.3296 21.0922 22.4937 21.2563C22.6578 21.4204 22.75 21.6429 22.75 21.875C22.75 22.1071 22.6578 22.3296 22.4937 22.4937C22.3296 22.6578 22.1071 22.75 21.875 22.75H13.125C12.8929 22.75 12.6704 22.6578 12.5063 22.4937C12.3422 22.3296 12.25 22.1071 12.25 21.875C12.25 21.6429 12.3422 21.4204 12.5063 21.2563C12.6704 21.0922 12.8929 21 13.125 21H21.875Z" fill="#F56E03"/>
<path d="M24.5 0C25.4283 0 26.3185 0.368749 26.9749 1.02513C27.6313 1.6815 28 2.57174 28 3.5V24.5C28 25.4283 27.6313 26.3185 26.9749 26.9749C26.3185 27.6313 25.4283 28 24.5 28H3.5C2.57174 28 1.6815 27.6313 1.02513 26.9749C0.368749 26.3185 0 25.4283 0 24.5V3.5C0 2.57174 0.368749 1.6815 1.02513 1.02513C1.6815 0.368749 2.57174 0 3.5 0L24.5 0ZM3.5 1.75C3.03587 1.75 2.59075 1.93437 2.26256 2.26256C1.93437 2.59075 1.75 3.03587 1.75 3.5V5.25H26.25V3.5C26.25 3.03587 26.0656 2.59075 25.7374 2.26256C25.4092 1.93437 24.9641 1.75 24.5 1.75H3.5ZM1.75 7V24.5C1.75 24.9641 1.93437 25.4092 2.26256 25.7374C2.59075 26.0656 3.03587 26.25 3.5 26.25H7V7H1.75ZM8.75 7V26.25H24.5C24.9641 26.25 25.4092 26.0656 25.7374 25.7374C26.0656 25.4092 26.25 24.9641 26.25 24.5V7H8.75Z" fill="black"/>
<path d="M24.5 0C25.4283 0 26.3185 0.368749 26.9749 1.02513C27.6313 1.6815 28 2.57174 28 3.5V24.5C28 25.4283 27.6313 26.3185 26.9749 26.9749C26.3185 27.6313 25.4283 28 24.5 28H3.5C2.57174 28 1.6815 27.6313 1.02513 26.9749C0.368749 26.3185 0 25.4283 0 24.5V3.5C0 2.57174 0.368749 1.6815 1.02513 1.02513C1.6815 0.368749 2.57174 0 3.5 0L24.5 0ZM3.5 1.75C3.03587 1.75 2.59075 1.93437 2.26256 2.26256C1.93437 2.59075 1.75 3.03587 1.75 3.5V5.25H26.25V3.5C26.25 3.03587 26.0656 2.59075 25.7374 2.26256C25.4092 1.93437 24.9641 1.75 24.5 1.75H3.5ZM1.75 7V24.5C1.75 24.9641 1.93437 25.4092 2.26256 25.7374C2.59075 26.0656 3.03587 26.25 3.5 26.25H7V7H1.75ZM8.75 7V26.25H24.5C24.9641 26.25 25.4092 26.0656 25.7374 25.7374C26.0656 25.4092 26.25 24.9641 26.25 24.5V7H8.75Z" fill="#F56E03"/>
</g>
<defs>
<clipPath id="clip0_31_114">
<rect width="28" height="28" fill="white"/>
</clipPath>
</defs>
</svg>
