<svg width="28" height="28" viewBox="0 0 28 28" fill="none" xmlns="http://www.w3.org/2000/svg">
<g opacity="0.5" clip-path="url(#clip0_31_100)">
<path d="M27.694 0.209959C27.8376 0.332568 27.9377 0.498357 27.9794 0.68256C28.021 0.866763 28.0019 1.05949 27.925 1.23196C25.2475 7.23446 19.6247 15.5295 15.5087 19.852C14.355 21.0612 12.9322 21.9809 11.356 22.5365C11.3245 22.9337 11.251 23.478 11.076 24.0555C10.7242 25.2087 9.90872 26.6437 8.08697 27.1005C6.32267 27.5206 4.49425 27.599 2.70047 27.3315C2.36692 27.2788 2.03806 27.1998 1.71697 27.0952C1.41991 27.0048 1.14303 26.8581 0.901467 26.663C0.742167 26.5275 0.619417 26.3542 0.544467 26.159C0.451574 25.9084 0.454066 25.6325 0.551467 25.3837C0.717717 24.955 1.10447 24.7187 1.35822 24.5927C2.04772 24.248 2.45197 23.8 2.87547 23.1472C3.04172 22.8952 3.19747 22.6275 3.37772 22.3212L3.58247 21.9747C3.84672 21.5285 4.15297 21.0297 4.53797 20.4907C5.46197 19.1975 6.63972 18.872 7.59347 18.9227C7.81397 18.935 8.01872 18.9665 8.20247 19.0067C8.31097 18.7057 8.45097 18.3417 8.61897 17.9427C9.07572 16.8595 9.77047 15.4595 10.6962 14.322C14.5042 9.64946 21.5112 3.46146 26.651 0.139959C26.8092 0.0378279 26.9962 -0.0105245 27.1841 0.00208671C27.372 0.014698 27.5508 0.0875998 27.694 0.209959ZM8.23397 20.846C8.00175 20.7449 7.75352 20.6857 7.50072 20.671C7.07022 20.6482 6.49797 20.7585 5.96247 21.5092C5.61772 21.9905 5.34122 22.4402 5.08747 22.869L4.90372 23.1787C4.71822 23.4955 4.53097 23.8122 4.34372 24.1027C3.9893 24.6769 3.53952 25.1865 3.01372 25.6095C4.22122 25.8055 6.05172 25.8037 7.66347 25.3995C8.64172 25.1562 9.13872 24.4037 9.40122 23.5445C9.52793 23.1176 9.60198 22.6768 9.62172 22.232L8.23397 20.846ZM10.754 20.8915C10.964 20.8215 11.2387 20.7165 11.5555 20.5712C12.5636 20.1035 13.4748 19.4505 14.2417 18.6462C17.5667 15.1532 21.9627 8.89871 24.8327 3.54196C20.3002 6.91421 15.0922 11.697 12.0542 15.428C11.2807 16.3782 10.663 17.6032 10.2307 18.6235C10.019 19.1275 9.85622 19.5685 9.74947 19.8835V19.8852L10.7557 20.8915H10.754ZM2.05122 26.2115L2.06347 26.2027C2.05971 26.2056 2.05559 26.2079 2.05122 26.2097V26.2115ZM8.31972 20.8862L8.32322 20.888H8.31972V20.8862Z" fill="black"/>
<path d="M27.694 0.209959C27.8376 0.332568 27.9377 0.498357 27.9794 0.68256C28.021 0.866763 28.0019 1.05949 27.925 1.23196C25.2475 7.23446 19.6247 15.5295 15.5087 19.852C14.355 21.0612 12.9322 21.9809 11.356 22.5365C11.3245 22.9337 11.251 23.478 11.076 24.0555C10.7242 25.2087 9.90872 26.6437 8.08697 27.1005C6.32267 27.5206 4.49425 27.599 2.70047 27.3315C2.36692 27.2788 2.03806 27.1998 1.71697 27.0952C1.41991 27.0048 1.14303 26.8581 0.901467 26.663C0.742167 26.5275 0.619417 26.3542 0.544467 26.159C0.451574 25.9084 0.454066 25.6325 0.551467 25.3837C0.717717 24.955 1.10447 24.7187 1.35822 24.5927C2.04772 24.248 2.45197 23.8 2.87547 23.1472C3.04172 22.8952 3.19747 22.6275 3.37772 22.3212L3.58247 21.9747C3.84672 21.5285 4.15297 21.0297 4.53797 20.4907C5.46197 19.1975 6.63972 18.872 7.59347 18.9227C7.81397 18.935 8.01872 18.9665 8.20247 19.0067C8.31097 18.7057 8.45097 18.3417 8.61897 17.9427C9.07572 16.8595 9.77047 15.4595 10.6962 14.322C14.5042 9.64946 21.5112 3.46146 26.651 0.139959C26.8092 0.0378279 26.9962 -0.0105245 27.1841 0.00208671C27.372 0.014698 27.5508 0.0875998 27.694 0.209959ZM8.23397 20.846C8.00175 20.7449 7.75352 20.6857 7.50072 20.671C7.07022 20.6482 6.49797 20.7585 5.96247 21.5092C5.61772 21.9905 5.34122 22.4402 5.08747 22.869L4.90372 23.1787C4.71822 23.4955 4.53097 23.8122 4.34372 24.1027C3.9893 24.6769 3.53952 25.1865 3.01372 25.6095C4.22122 25.8055 6.05172 25.8037 7.66347 25.3995C8.64172 25.1562 9.13872 24.4037 9.40122 23.5445C9.52793 23.1176 9.60198 22.6768 9.62172 22.232L8.23397 20.846ZM10.754 20.8915C10.964 20.8215 11.2387 20.7165 11.5555 20.5712C12.5636 20.1035 13.4748 19.4505 14.2417 18.6462C17.5667 15.1532 21.9627 8.89871 24.8327 3.54196C20.3002 6.91421 15.0922 11.697 12.0542 15.428C11.2807 16.3782 10.663 17.6032 10.2307 18.6235C10.019 19.1275 9.85622 19.5685 9.74947 19.8835V19.8852L10.7557 20.8915H10.754ZM2.05122 26.2115L2.06347 26.2027C2.05971 26.2056 2.05559 26.2079 2.05122 26.2097V26.2115ZM8.31972 20.8862L8.32322 20.888H8.31972V20.8862Z" fill="#F56E03"/>
</g>
<defs>
<clipPath id="clip0_31_100">
<rect width="28" height="28" fill="white"/>
</clipPath>
</defs>
</svg>
