<svg width="28" height="28" viewBox="0 0 28 28" fill="none" xmlns="http://www.w3.org/2000/svg">
<g opacity="0.5">
<path d="M3.5 1.75C3.03587 1.75 2.59075 1.93437 2.26256 2.26256C1.93437 2.59075 1.75 3.03587 1.75 3.5V17.5C1.75 17.9641 1.93437 18.4092 2.26256 18.7374C2.59075 19.0656 3.03587 19.25 3.5 19.25H20.2755C21.2037 19.2502 22.0938 19.6191 22.75 20.2755L26.25 23.7755V3.5C26.25 3.03587 26.0656 2.59075 25.7374 2.26256C25.4092 1.93437 24.9641 1.75 24.5 1.75H3.5ZM24.5 0C25.4283 0 26.3185 0.368749 26.9749 1.02513C27.6313 1.6815 28 2.57174 28 3.5V25.8877C28 26.0609 27.9486 26.2301 27.8523 26.374C27.756 26.5179 27.6193 26.6301 27.4593 26.6962C27.2992 26.7623 27.1232 26.7795 26.9534 26.7456C26.7837 26.7116 26.6278 26.6281 26.5055 26.5055L21.5128 21.5127C21.1846 21.1845 20.7396 21.0001 20.2755 21H3.5C2.57174 21 1.6815 20.6312 1.02513 19.9749C0.368749 19.3185 0 18.4283 0 17.5V3.5C0 2.57174 0.368749 1.6815 1.02513 1.02513C1.6815 0.368749 2.57174 0 3.5 0L24.5 0Z" fill="black"/>
<path d="M3.5 1.75C3.03587 1.75 2.59075 1.93437 2.26256 2.26256C1.93437 2.59075 1.75 3.03587 1.75 3.5V17.5C1.75 17.9641 1.93437 18.4092 2.26256 18.7374C2.59075 19.0656 3.03587 19.25 3.5 19.25H20.2755C21.2037 19.2502 22.0938 19.6191 22.75 20.2755L26.25 23.7755V3.5C26.25 3.03587 26.0656 2.59075 25.7374 2.26256C25.4092 1.93437 24.9641 1.75 24.5 1.75H3.5ZM24.5 0C25.4283 0 26.3185 0.368749 26.9749 1.02513C27.6313 1.6815 28 2.57174 28 3.5V25.8877C28 26.0609 27.9486 26.2301 27.8523 26.374C27.756 26.5179 27.6193 26.6301 27.4593 26.6962C27.2992 26.7623 27.1232 26.7795 26.9534 26.7456C26.7837 26.7116 26.6278 26.6281 26.5055 26.5055L21.5128 21.5127C21.1846 21.1845 20.7396 21.0001 20.2755 21H3.5C2.57174 21 1.6815 20.6312 1.02513 19.9749C0.368749 19.3185 0 18.4283 0 17.5V3.5C0 2.57174 0.368749 1.6815 1.02513 1.02513C1.6815 0.368749 2.57174 0 3.5 0L24.5 0Z" fill="#CB4AF0"/>
<path d="M3.5 1.75C3.03587 1.75 2.59075 1.93437 2.26256 2.26256C1.93437 2.59075 1.75 3.03587 1.75 3.5V17.5C1.75 17.9641 1.93437 18.4092 2.26256 18.7374C2.59075 19.0656 3.03587 19.25 3.5 19.25H20.2755C21.2037 19.2502 22.0938 19.6191 22.75 20.2755L26.25 23.7755V3.5C26.25 3.03587 26.0656 2.59075 25.7374 2.26256C25.4092 1.93437 24.9641 1.75 24.5 1.75H3.5ZM24.5 0C25.4283 0 26.3185 0.368749 26.9749 1.02513C27.6313 1.6815 28 2.57174 28 3.5V25.8877C28 26.0609 27.9486 26.2301 27.8523 26.374C27.756 26.5179 27.6193 26.6301 27.4593 26.6962C27.2992 26.7623 27.1232 26.7795 26.9534 26.7456C26.7837 26.7116 26.6278 26.6281 26.5055 26.5055L21.5128 21.5127C21.1846 21.1845 20.7396 21.0001 20.2755 21H3.5C2.57174 21 1.6815 20.6312 1.02513 19.9749C0.368749 19.3185 0 18.4283 0 17.5V3.5C0 2.57174 0.368749 1.6815 1.02513 1.02513C1.6815 0.368749 2.57174 0 3.5 0L24.5 0Z" fill="#F56E03"/>
<path d="M14 6.98778C16.912 3.99353 24.1938 9.23303 14 15.9688C3.80629 9.23128 11.088 3.99353 14 6.98778Z" fill="black"/>
<path d="M14 6.98778C16.912 3.99353 24.1938 9.23303 14 15.9688C3.80629 9.23128 11.088 3.99353 14 6.98778Z" fill="#CB4AF0"/>
<path d="M14 6.98778C16.912 3.99353 24.1938 9.23303 14 15.9688C3.80629 9.23128 11.088 3.99353 14 6.98778Z" fill="#F56E03"/>
</g>
</svg>
