<svg width="28" height="28" viewBox="0 0 28 28" fill="none" xmlns="http://www.w3.org/2000/svg">
<g opacity="0.5">
<path fill-rule="evenodd" clip-rule="evenodd" d="M0 0.875C0 0.642936 0.0921872 0.420376 0.256282 0.256282C0.420376 0.0921872 0.642936 0 0.875 0L7.875 0C8.10706 0 8.32962 0.0921872 8.49372 0.256282C8.65781 0.420376 8.75 0.642936 8.75 0.875C8.75 1.10706 8.65781 1.32962 8.49372 1.49372C8.32962 1.65781 8.10706 1.75 7.875 1.75H0.875C0.642936 1.75 0.420376 1.65781 0.256282 1.49372C0.0921872 1.32962 0 1.10706 0 0.875ZM0 4.375C0 4.14294 0.0921872 3.92038 0.256282 3.75628C0.420376 3.59219 0.642936 3.5 0.875 3.5H13.125C13.3571 3.5 13.5796 3.59219 13.7437 3.75628C13.9078 3.92038 14 4.14294 14 4.375C14 4.60706 13.9078 4.82962 13.7437 4.99372C13.5796 5.15781 13.3571 5.25 13.125 5.25H0.875C0.642936 5.25 0.420376 5.15781 0.256282 4.99372C0.0921872 4.82962 0 4.60706 0 4.375ZM15.75 4.375C15.75 4.14294 15.8422 3.92038 16.0063 3.75628C16.1704 3.59219 16.3929 3.5 16.625 3.5H25.375C25.6071 3.5 25.8296 3.59219 25.9937 3.75628C26.1578 3.92038 26.25 4.14294 26.25 4.375C26.25 4.60706 26.1578 4.82962 25.9937 4.99372C25.8296 5.15781 25.6071 5.25 25.375 5.25H16.625C16.3929 5.25 16.1704 5.15781 16.0063 4.99372C15.8422 4.82962 15.75 4.60706 15.75 4.375ZM0 7.875C0 7.64294 0.0921872 7.42038 0.256282 7.25628C0.420376 7.09219 0.642936 7 0.875 7H6.125C6.35706 7 6.57962 7.09219 6.74372 7.25628C6.90781 7.42038 7 7.64294 7 7.875C7 8.10706 6.90781 8.32962 6.74372 8.49372C6.57962 8.65781 6.35706 8.75 6.125 8.75H0.875C0.642936 8.75 0.420376 8.65781 0.256282 8.49372C0.0921872 8.32962 0 8.10706 0 7.875ZM8.75 7.875C8.75 7.64294 8.84219 7.42038 9.00628 7.25628C9.17038 7.09219 9.39294 7 9.625 7H18.375C18.6071 7 18.8296 7.09219 18.9937 7.25628C19.1578 7.42038 19.25 7.64294 19.25 7.875C19.25 8.10706 19.1578 8.32962 18.9937 8.49372C18.8296 8.65781 18.6071 8.75 18.375 8.75H9.625C9.39294 8.75 9.17038 8.65781 9.00628 8.49372C8.84219 8.32962 8.75 8.10706 8.75 7.875ZM21 7.875C21 7.64294 21.0922 7.42038 21.2563 7.25628C21.4204 7.09219 21.6429 7 21.875 7H27.125C27.3571 7 27.5796 7.09219 27.7437 7.25628C27.9078 7.42038 28 7.64294 28 7.875C28 8.10706 27.9078 8.32962 27.7437 8.49372C27.5796 8.65781 27.3571 8.75 27.125 8.75H21.875C21.6429 8.75 21.4204 8.65781 21.2563 8.49372C21.0922 8.32962 21 8.10706 21 7.875ZM0 11.375C0 11.1429 0.0921872 10.9204 0.256282 10.7563C0.420376 10.5922 0.642936 10.5 0.875 10.5H11.375C11.6071 10.5 11.8296 10.5922 11.9937 10.7563C12.1578 10.9204 12.25 11.1429 12.25 11.375C12.25 11.6071 12.1578 11.8296 11.9937 11.9937C11.8296 12.1578 11.6071 12.25 11.375 12.25H0.875C0.642936 12.25 0.420376 12.1578 0.256282 11.9937C0.0921872 11.8296 0 11.6071 0 11.375ZM14 11.375C14 11.1429 14.0922 10.9204 14.2563 10.7563C14.4204 10.5922 14.6429 10.5 14.875 10.5H23.625C23.8571 10.5 24.0796 10.5922 24.2437 10.7563C24.4078 10.9204 24.5 11.1429 24.5 11.375C24.5 11.6071 24.4078 11.8296 24.2437 11.9937C24.0796 12.1578 23.8571 12.25 23.625 12.25H14.875C14.6429 12.25 14.4204 12.1578 14.2563 11.9937C14.0922 11.8296 14 11.6071 14 11.375ZM0 14.875C0 14.6429 0.0921872 14.4204 0.256282 14.2563C0.420376 14.0922 0.642936 14 0.875 14H9.625C9.85706 14 10.0796 14.0922 10.2437 14.2563C10.4078 14.4204 10.5 14.6429 10.5 14.875C10.5 15.1071 10.4078 15.3296 10.2437 15.4937C10.0796 15.6578 9.85706 15.75 9.625 15.75H0.875C0.642936 15.75 0.420376 15.6578 0.256282 15.4937C0.0921872 15.3296 0 15.1071 0 14.875ZM12.25 14.875C12.25 14.6429 12.3422 14.4204 12.5063 14.2563C12.6704 14.0922 12.8929 14 13.125 14H25.375C25.6071 14 25.8296 14.0922 25.9937 14.2563C26.1578 14.4204 26.25 14.6429 26.25 14.875C26.25 15.1071 26.1578 15.3296 25.9937 15.4937C25.8296 15.6578 25.6071 15.75 25.375 15.75H13.125C12.8929 15.75 12.6704 15.6578 12.5063 15.4937C12.3422 15.3296 12.25 15.1071 12.25 14.875ZM0 18.375C0 18.1429 0.0921872 17.9204 0.256282 17.7563C0.420376 17.5922 0.642936 17.5 0.875 17.5H14.875C15.1071 17.5 15.3296 17.5922 15.4937 17.7563C15.6578 17.9204 15.75 18.1429 15.75 18.375C15.75 18.6071 15.6578 18.8296 15.4937 18.9937C15.3296 19.1578 15.1071 19.25 14.875 19.25H0.875C0.642936 19.25 0.420376 19.1578 0.256282 18.9937C0.0921872 18.8296 0 18.6071 0 18.375ZM0 21.875C0 21.6429 0.0921872 21.4204 0.256282 21.2563C0.420376 21.0922 0.642936 21 0.875 21H7.875C8.10706 21 8.32962 21.0922 8.49372 21.2563C8.65781 21.4204 8.75 21.6429 8.75 21.875C8.75 22.1071 8.65781 22.3296 8.49372 22.4937C8.32962 22.6578 8.10706 22.75 7.875 22.75H0.875C0.642936 22.75 0.420376 22.6578 0.256282 22.4937C0.0921872 22.3296 0 22.1071 0 21.875ZM0 25.375C0 25.1429 0.0921872 24.9204 0.256282 24.7563C0.420376 24.5922 0.642936 24.5 0.875 24.5H4.375C4.60706 24.5 4.82962 24.5922 4.99372 24.7563C5.15781 24.9204 5.25 25.1429 5.25 25.375C5.25 25.6071 5.15781 25.8296 4.99372 25.9937C4.82962 26.1578 4.60706 26.25 4.375 26.25H0.875C0.642936 26.25 0.420376 26.1578 0.256282 25.9937C0.0921872 25.8296 0 25.6071 0 25.375Z" fill="black"/>
<path fill-rule="evenodd" clip-rule="evenodd" d="M0 0.875C0 0.642936 0.0921872 0.420376 0.256282 0.256282C0.420376 0.0921872 0.642936 0 0.875 0L7.875 0C8.10706 0 8.32962 0.0921872 8.49372 0.256282C8.65781 0.420376 8.75 0.642936 8.75 0.875C8.75 1.10706 8.65781 1.32962 8.49372 1.49372C8.32962 1.65781 8.10706 1.75 7.875 1.75H0.875C0.642936 1.75 0.420376 1.65781 0.256282 1.49372C0.0921872 1.32962 0 1.10706 0 0.875ZM0 4.375C0 4.14294 0.0921872 3.92038 0.256282 3.75628C0.420376 3.59219 0.642936 3.5 0.875 3.5H13.125C13.3571 3.5 13.5796 3.59219 13.7437 3.75628C13.9078 3.92038 14 4.14294 14 4.375C14 4.60706 13.9078 4.82962 13.7437 4.99372C13.5796 5.15781 13.3571 5.25 13.125 5.25H0.875C0.642936 5.25 0.420376 5.15781 0.256282 4.99372C0.0921872 4.82962 0 4.60706 0 4.375ZM15.75 4.375C15.75 4.14294 15.8422 3.92038 16.0063 3.75628C16.1704 3.59219 16.3929 3.5 16.625 3.5H25.375C25.6071 3.5 25.8296 3.59219 25.9937 3.75628C26.1578 3.92038 26.25 4.14294 26.25 4.375C26.25 4.60706 26.1578 4.82962 25.9937 4.99372C25.8296 5.15781 25.6071 5.25 25.375 5.25H16.625C16.3929 5.25 16.1704 5.15781 16.0063 4.99372C15.8422 4.82962 15.75 4.60706 15.75 4.375ZM0 7.875C0 7.64294 0.0921872 7.42038 0.256282 7.25628C0.420376 7.09219 0.642936 7 0.875 7H6.125C6.35706 7 6.57962 7.09219 6.74372 7.25628C6.90781 7.42038 7 7.64294 7 7.875C7 8.10706 6.90781 8.32962 6.74372 8.49372C6.57962 8.65781 6.35706 8.75 6.125 8.75H0.875C0.642936 8.75 0.420376 8.65781 0.256282 8.49372C0.0921872 8.32962 0 8.10706 0 7.875ZM8.75 7.875C8.75 7.64294 8.84219 7.42038 9.00628 7.25628C9.17038 7.09219 9.39294 7 9.625 7H18.375C18.6071 7 18.8296 7.09219 18.9937 7.25628C19.1578 7.42038 19.25 7.64294 19.25 7.875C19.25 8.10706 19.1578 8.32962 18.9937 8.49372C18.8296 8.65781 18.6071 8.75 18.375 8.75H9.625C9.39294 8.75 9.17038 8.65781 9.00628 8.49372C8.84219 8.32962 8.75 8.10706 8.75 7.875ZM21 7.875C21 7.64294 21.0922 7.42038 21.2563 7.25628C21.4204 7.09219 21.6429 7 21.875 7H27.125C27.3571 7 27.5796 7.09219 27.7437 7.25628C27.9078 7.42038 28 7.64294 28 7.875C28 8.10706 27.9078 8.32962 27.7437 8.49372C27.5796 8.65781 27.3571 8.75 27.125 8.75H21.875C21.6429 8.75 21.4204 8.65781 21.2563 8.49372C21.0922 8.32962 21 8.10706 21 7.875ZM0 11.375C0 11.1429 0.0921872 10.9204 0.256282 10.7563C0.420376 10.5922 0.642936 10.5 0.875 10.5H11.375C11.6071 10.5 11.8296 10.5922 11.9937 10.7563C12.1578 10.9204 12.25 11.1429 12.25 11.375C12.25 11.6071 12.1578 11.8296 11.9937 11.9937C11.8296 12.1578 11.6071 12.25 11.375 12.25H0.875C0.642936 12.25 0.420376 12.1578 0.256282 11.9937C0.0921872 11.8296 0 11.6071 0 11.375ZM14 11.375C14 11.1429 14.0922 10.9204 14.2563 10.7563C14.4204 10.5922 14.6429 10.5 14.875 10.5H23.625C23.8571 10.5 24.0796 10.5922 24.2437 10.7563C24.4078 10.9204 24.5 11.1429 24.5 11.375C24.5 11.6071 24.4078 11.8296 24.2437 11.9937C24.0796 12.1578 23.8571 12.25 23.625 12.25H14.875C14.6429 12.25 14.4204 12.1578 14.2563 11.9937C14.0922 11.8296 14 11.6071 14 11.375ZM0 14.875C0 14.6429 0.0921872 14.4204 0.256282 14.2563C0.420376 14.0922 0.642936 14 0.875 14H9.625C9.85706 14 10.0796 14.0922 10.2437 14.2563C10.4078 14.4204 10.5 14.6429 10.5 14.875C10.5 15.1071 10.4078 15.3296 10.2437 15.4937C10.0796 15.6578 9.85706 15.75 9.625 15.75H0.875C0.642936 15.75 0.420376 15.6578 0.256282 15.4937C0.0921872 15.3296 0 15.1071 0 14.875ZM12.25 14.875C12.25 14.6429 12.3422 14.4204 12.5063 14.2563C12.6704 14.0922 12.8929 14 13.125 14H25.375C25.6071 14 25.8296 14.0922 25.9937 14.2563C26.1578 14.4204 26.25 14.6429 26.25 14.875C26.25 15.1071 26.1578 15.3296 25.9937 15.4937C25.8296 15.6578 25.6071 15.75 25.375 15.75H13.125C12.8929 15.75 12.6704 15.6578 12.5063 15.4937C12.3422 15.3296 12.25 15.1071 12.25 14.875ZM0 18.375C0 18.1429 0.0921872 17.9204 0.256282 17.7563C0.420376 17.5922 0.642936 17.5 0.875 17.5H14.875C15.1071 17.5 15.3296 17.5922 15.4937 17.7563C15.6578 17.9204 15.75 18.1429 15.75 18.375C15.75 18.6071 15.6578 18.8296 15.4937 18.9937C15.3296 19.1578 15.1071 19.25 14.875 19.25H0.875C0.642936 19.25 0.420376 19.1578 0.256282 18.9937C0.0921872 18.8296 0 18.6071 0 18.375ZM0 21.875C0 21.6429 0.0921872 21.4204 0.256282 21.2563C0.420376 21.0922 0.642936 21 0.875 21H7.875C8.10706 21 8.32962 21.0922 8.49372 21.2563C8.65781 21.4204 8.75 21.6429 8.75 21.875C8.75 22.1071 8.65781 22.3296 8.49372 22.4937C8.32962 22.6578 8.10706 22.75 7.875 22.75H0.875C0.642936 22.75 0.420376 22.6578 0.256282 22.4937C0.0921872 22.3296 0 22.1071 0 21.875ZM0 25.375C0 25.1429 0.0921872 24.9204 0.256282 24.7563C0.420376 24.5922 0.642936 24.5 0.875 24.5H4.375C4.60706 24.5 4.82962 24.5922 4.99372 24.7563C5.15781 24.9204 5.25 25.1429 5.25 25.375C5.25 25.6071 5.15781 25.8296 4.99372 25.9937C4.82962 26.1578 4.60706 26.25 4.375 26.25H0.875C0.642936 26.25 0.420376 26.1578 0.256282 25.9937C0.0921872 25.8296 0 25.6071 0 25.375Z" fill="#F56E03"/>
</g>
</svg>
