<svg width="28" height="28" viewBox="0 0 28 28" fill="none" xmlns="http://www.w3.org/2000/svg">
<g opacity="0.5" clip-path="url(#clip0_31_120)">
<path d="M25.375 5.25C25.6071 5.25 25.8296 5.34219 25.9937 5.50628C26.1578 5.67038 26.25 5.89294 26.25 6.125V21.875C26.25 22.1071 26.1578 22.3296 25.9937 22.4937C25.8296 22.6578 25.6071 22.75 25.375 22.75H2.625C2.39294 22.75 2.17038 22.6578 2.00628 22.4937C1.84219 22.3296 1.75 22.1071 1.75 21.875V6.125C1.75 5.89294 1.84219 5.67038 2.00628 5.50628C2.17038 5.34219 2.39294 5.25 2.625 5.25H25.375ZM2.625 3.5C1.92881 3.5 1.26113 3.77656 0.768845 4.26884C0.276562 4.76113 0 5.42881 0 6.125L0 21.875C0 22.5712 0.276562 23.2389 0.768845 23.7312C1.26113 24.2234 1.92881 24.5 2.625 24.5H25.375C26.0712 24.5 26.7389 24.2234 27.2312 23.7312C27.7234 23.2389 28 22.5712 28 21.875V6.125C28 5.42881 27.7234 4.76113 27.2312 4.26884C26.7389 3.77656 26.0712 3.5 25.375 3.5H2.625Z" fill="black"/>
<path d="M25.375 5.25C25.6071 5.25 25.8296 5.34219 25.9937 5.50628C26.1578 5.67038 26.25 5.89294 26.25 6.125V21.875C26.25 22.1071 26.1578 22.3296 25.9937 22.4937C25.8296 22.6578 25.6071 22.75 25.375 22.75H2.625C2.39294 22.75 2.17038 22.6578 2.00628 22.4937C1.84219 22.3296 1.75 22.1071 1.75 21.875V6.125C1.75 5.89294 1.84219 5.67038 2.00628 5.50628C2.17038 5.34219 2.39294 5.25 2.625 5.25H25.375ZM2.625 3.5C1.92881 3.5 1.26113 3.77656 0.768845 4.26884C0.276562 4.76113 0 5.42881 0 6.125L0 21.875C0 22.5712 0.276562 23.2389 0.768845 23.7312C1.26113 24.2234 1.92881 24.5 2.625 24.5H25.375C26.0712 24.5 26.7389 24.2234 27.2312 23.7312C27.7234 23.2389 28 22.5712 28 21.875V6.125C28 5.42881 27.7234 4.76113 27.2312 4.26884C26.7389 3.77656 26.0712 3.5 25.375 3.5H2.625Z" fill="#F56E03"/>
<path d="M5.25 14.875C5.25 14.6429 5.34219 14.4204 5.50628 14.2563C5.67038 14.0922 5.89294 14 6.125 14H21.875C22.1071 14 22.3296 14.0922 22.4937 14.2563C22.6578 14.4204 22.75 14.6429 22.75 14.875C22.75 15.1071 22.6578 15.3296 22.4937 15.4937C22.3296 15.6578 22.1071 15.75 21.875 15.75H6.125C5.89294 15.75 5.67038 15.6578 5.50628 15.4937C5.34219 15.3296 5.25 15.1071 5.25 14.875ZM5.25 18.375C5.25 18.1429 5.34219 17.9204 5.50628 17.7563C5.67038 17.5922 5.89294 17.5 6.125 17.5H16.625C16.8571 17.5 17.0796 17.5922 17.2437 17.7563C17.4078 17.9204 17.5 18.1429 17.5 18.375C17.5 18.6071 17.4078 18.8296 17.2437 18.9937C17.0796 19.1578 16.8571 19.25 16.625 19.25H6.125C5.89294 19.25 5.67038 19.1578 5.50628 18.9937C5.34219 18.8296 5.25 18.6071 5.25 18.375ZM5.25 9.625C5.25 9.39294 5.34219 9.17038 5.50628 9.00628C5.67038 8.84219 5.89294 8.75 6.125 8.75H21.875C22.1071 8.75 22.3296 8.84219 22.4937 9.00628C22.6578 9.17038 22.75 9.39294 22.75 9.625V11.375C22.75 11.6071 22.6578 11.8296 22.4937 11.9937C22.3296 12.1578 22.1071 12.25 21.875 12.25H6.125C5.89294 12.25 5.67038 12.1578 5.50628 11.9937C5.34219 11.8296 5.25 11.6071 5.25 11.375V9.625Z" fill="black"/>
<path d="M5.25 14.875C5.25 14.6429 5.34219 14.4204 5.50628 14.2563C5.67038 14.0922 5.89294 14 6.125 14H21.875C22.1071 14 22.3296 14.0922 22.4937 14.2563C22.6578 14.4204 22.75 14.6429 22.75 14.875C22.75 15.1071 22.6578 15.3296 22.4937 15.4937C22.3296 15.6578 22.1071 15.75 21.875 15.75H6.125C5.89294 15.75 5.67038 15.6578 5.50628 15.4937C5.34219 15.3296 5.25 15.1071 5.25 14.875ZM5.25 18.375C5.25 18.1429 5.34219 17.9204 5.50628 17.7563C5.67038 17.5922 5.89294 17.5 6.125 17.5H16.625C16.8571 17.5 17.0796 17.5922 17.2437 17.7563C17.4078 17.9204 17.5 18.1429 17.5 18.375C17.5 18.6071 17.4078 18.8296 17.2437 18.9937C17.0796 19.1578 16.8571 19.25 16.625 19.25H6.125C5.89294 19.25 5.67038 19.1578 5.50628 18.9937C5.34219 18.8296 5.25 18.6071 5.25 18.375ZM5.25 9.625C5.25 9.39294 5.34219 9.17038 5.50628 9.00628C5.67038 8.84219 5.89294 8.75 6.125 8.75H21.875C22.1071 8.75 22.3296 8.84219 22.4937 9.00628C22.6578 9.17038 22.75 9.39294 22.75 9.625V11.375C22.75 11.6071 22.6578 11.8296 22.4937 11.9937C22.3296 12.1578 22.1071 12.25 21.875 12.25H6.125C5.89294 12.25 5.67038 12.1578 5.50628 11.9937C5.34219 11.8296 5.25 11.6071 5.25 11.375V9.625Z" fill="#F56E03"/>
</g>
<defs>
<clipPath id="clip0_31_120">
<rect width="28" height="28" fill="white"/>
</clipPath>
</defs>
</svg>
