<svg width="28" height="28" viewBox="0 0 28 28" fill="none" xmlns="http://www.w3.org/2000/svg">
<g opacity="0.5" clip-path="url(#clip0_31_104)">
<path d="M10.5 5.25C10.5 6.64239 9.94688 7.97774 8.96231 8.96231C7.97774 9.94688 6.64239 10.5 5.25 10.5C3.85761 10.5 2.52226 9.94688 1.53769 8.96231C0.553123 7.97774 0 6.64239 0 5.25C0 3.85761 0.553123 2.52226 1.53769 1.53769C2.52226 0.553123 3.85761 0 5.25 0C6.64239 0 7.97774 0.553123 8.96231 1.53769C9.94688 2.52226 10.5 3.85761 10.5 5.25ZM1.75 5.25C1.75 6.17826 2.11875 7.0685 2.77513 7.72487C3.4315 8.38125 4.32174 8.75 5.25 8.75C6.17826 8.75 7.0685 8.38125 7.72487 7.72487C8.38125 7.0685 8.75 6.17826 8.75 5.25C8.75 4.32174 8.38125 3.4315 7.72487 2.77513C7.0685 2.11875 6.17826 1.75 5.25 1.75C4.32174 1.75 3.4315 2.11875 2.77513 2.77513C2.11875 3.4315 1.75 4.32174 1.75 5.25Z" fill="black"/>
<path d="M10.5 5.25C10.5 6.64239 9.94688 7.97774 8.96231 8.96231C7.97774 9.94688 6.64239 10.5 5.25 10.5C3.85761 10.5 2.52226 9.94688 1.53769 8.96231C0.553123 7.97774 0 6.64239 0 5.25C0 3.85761 0.553123 2.52226 1.53769 1.53769C2.52226 0.553123 3.85761 0 5.25 0C6.64239 0 7.97774 0.553123 8.96231 1.53769C9.94688 2.52226 10.5 3.85761 10.5 5.25ZM1.75 5.25C1.75 6.17826 2.11875 7.0685 2.77513 7.72487C3.4315 8.38125 4.32174 8.75 5.25 8.75C6.17826 8.75 7.0685 8.38125 7.72487 7.72487C8.38125 7.0685 8.75 6.17826 8.75 5.25C8.75 4.32174 8.38125 3.4315 7.72487 2.77513C7.0685 2.11875 6.17826 1.75 5.25 1.75C4.32174 1.75 3.4315 2.11875 2.77513 2.77513C2.11875 3.4315 1.75 4.32174 1.75 5.25Z" fill="#F56E03"/>
<path d="M15.75 10.5C17.1424 10.5 18.4777 9.94688 19.4623 8.96231C20.4469 7.97774 21 6.64239 21 5.25C21 3.85761 20.4469 2.52226 19.4623 1.53769C18.4777 0.553123 17.1424 0 15.75 0C14.3576 0 13.0223 0.553123 12.0377 1.53769C11.0531 2.52226 10.5 3.85761 10.5 5.25C10.5 6.64239 11.0531 7.97774 12.0377 8.96231C13.0223 9.94688 14.3576 10.5 15.75 10.5ZM12.25 5.25C12.25 4.32174 12.6187 3.4315 13.2751 2.77513C13.9315 2.11875 14.8217 1.75 15.75 1.75C16.6783 1.75 17.5685 2.11875 18.2249 2.77513C18.8813 3.4315 19.25 4.32174 19.25 5.25C19.25 6.17826 18.8813 7.0685 18.2249 7.72487C17.5685 8.38125 16.6783 8.75 15.75 8.75C14.8217 8.75 13.9315 8.38125 13.2751 7.72487C12.6187 7.0685 12.25 6.17826 12.25 5.25Z" fill="black"/>
<path d="M15.75 10.5C17.1424 10.5 18.4777 9.94688 19.4623 8.96231C20.4469 7.97774 21 6.64239 21 5.25C21 3.85761 20.4469 2.52226 19.4623 1.53769C18.4777 0.553123 17.1424 0 15.75 0C14.3576 0 13.0223 0.553123 12.0377 1.53769C11.0531 2.52226 10.5 3.85761 10.5 5.25C10.5 6.64239 11.0531 7.97774 12.0377 8.96231C13.0223 9.94688 14.3576 10.5 15.75 10.5ZM12.25 5.25C12.25 4.32174 12.6187 3.4315 13.2751 2.77513C13.9315 2.11875 14.8217 1.75 15.75 1.75C16.6783 1.75 17.5685 2.11875 18.2249 2.77513C18.8813 3.4315 19.25 4.32174 19.25 5.25C19.25 6.17826 18.8813 7.0685 18.2249 7.72487C17.5685 8.38125 16.6783 8.75 15.75 8.75C14.8217 8.75 13.9315 8.38125 13.2751 7.72487C12.6187 7.0685 12.25 6.17826 12.25 5.25Z" fill="#F56E03"/>
<path d="M15.75 10.5H16.625C17.4739 10.4999 18.2939 10.8083 18.9323 11.3679C19.5708 11.9274 19.984 12.6999 20.0952 13.5415L25.5378 11.123C25.8041 11.0043 26.096 10.9541 26.3867 10.9768C26.6775 10.9996 26.9579 11.0947 27.2026 11.2535C27.4472 11.4122 27.6483 11.6296 27.7876 11.8859C27.9269 12.1421 27.9999 12.4291 28 12.7208V25.7793C27.9997 26.0707 27.9267 26.3574 27.7876 26.6134C27.6484 26.8695 27.4475 27.0867 27.2031 27.2454C26.9587 27.4041 26.6785 27.4993 26.388 27.5223C26.0975 27.5452 25.8058 27.4953 25.5395 27.377L20.0952 24.9585C19.984 25.8001 19.5708 26.5726 18.9323 27.1321C18.2939 27.6917 17.4739 28.0001 16.625 28H3.5C2.57174 28 1.6815 27.6313 1.02513 26.9749C0.368749 26.3185 0 25.4283 0 24.5V14C0 13.0717 0.368749 12.1815 1.02513 11.5251C1.6815 10.8687 2.57174 10.5 3.5 10.5H15.75ZM26.25 25.7775V12.7225L20.125 15.4437V23.0563L26.25 25.7793V25.7775ZM1.75 14V24.5C1.75 24.9641 1.93437 25.4092 2.26256 25.7374C2.59075 26.0656 3.03587 26.25 3.5 26.25H16.625C17.0891 26.25 17.5342 26.0656 17.8624 25.7374C18.1906 25.4092 18.375 24.9641 18.375 24.5V14C18.375 13.5359 18.1906 13.0908 17.8624 12.7626C17.5342 12.4344 17.0891 12.25 16.625 12.25H3.5C3.03587 12.25 2.59075 12.4344 2.26256 12.7626C1.93437 13.0908 1.75 13.5359 1.75 14Z" fill="black"/>
<path d="M15.75 10.5H16.625C17.4739 10.4999 18.2939 10.8083 18.9323 11.3679C19.5708 11.9274 19.984 12.6999 20.0952 13.5415L25.5378 11.123C25.8041 11.0043 26.096 10.9541 26.3867 10.9768C26.6775 10.9996 26.9579 11.0947 27.2026 11.2535C27.4472 11.4122 27.6483 11.6296 27.7876 11.8859C27.9269 12.1421 27.9999 12.4291 28 12.7208V25.7793C27.9997 26.0707 27.9267 26.3574 27.7876 26.6134C27.6484 26.8695 27.4475 27.0867 27.2031 27.2454C26.9587 27.4041 26.6785 27.4993 26.388 27.5223C26.0975 27.5452 25.8058 27.4953 25.5395 27.377L20.0952 24.9585C19.984 25.8001 19.5708 26.5726 18.9323 27.1321C18.2939 27.6917 17.4739 28.0001 16.625 28H3.5C2.57174 28 1.6815 27.6313 1.02513 26.9749C0.368749 26.3185 0 25.4283 0 24.5V14C0 13.0717 0.368749 12.1815 1.02513 11.5251C1.6815 10.8687 2.57174 10.5 3.5 10.5H15.75ZM26.25 25.7775V12.7225L20.125 15.4437V23.0563L26.25 25.7793V25.7775ZM1.75 14V24.5C1.75 24.9641 1.93437 25.4092 2.26256 25.7374C2.59075 26.0656 3.03587 26.25 3.5 26.25H16.625C17.0891 26.25 17.5342 26.0656 17.8624 25.7374C18.1906 25.4092 18.375 24.9641 18.375 24.5V14C18.375 13.5359 18.1906 13.0908 17.8624 12.7626C17.5342 12.4344 17.0891 12.25 16.625 12.25H3.5C3.03587 12.25 2.59075 12.4344 2.26256 12.7626C1.93437 13.0908 1.75 13.5359 1.75 14Z" fill="#F56E03"/>
</g>
<defs>
<clipPath id="clip0_31_104">
<rect width="28" height="28" fill="white"/>
</clipPath>
</defs>
</svg>
