<svg width="26" height="26" viewBox="0 0 26 26" fill="none" xmlns="http://www.w3.org/2000/svg">
<path fill-rule="evenodd" clip-rule="evenodd" d="M7.54974 23.3253C7.47407 23.2498 7.41404 23.1601 7.37308 23.0614C7.33212 22.9627 7.31104 22.8569 7.31104 22.75C7.31104 22.6431 7.33212 22.5373 7.37308 22.4386C7.41404 22.3399 7.47407 22.2502 7.54974 22.1748L16.7261 13L7.54974 3.82526C7.47419 3.74972 7.41427 3.66004 7.37339 3.56134C7.3325 3.46264 7.31146 3.35685 7.31146 3.25001C7.31146 3.14318 7.3325 3.03739 7.37339 2.93869C7.41427 2.83999 7.47419 2.75031 7.54974 2.67476C7.62528 2.59922 7.71496 2.5393 7.81366 2.49841C7.91236 2.45753 8.01815 2.43649 8.12499 2.43649C8.23182 2.43649 8.33761 2.45753 8.43631 2.49841C8.53501 2.5393 8.62469 2.59922 8.70024 2.67476L18.4502 12.4248C18.5259 12.5002 18.5859 12.5899 18.6269 12.6886C18.6679 12.7873 18.6889 12.8931 18.6889 13C18.6889 13.1069 18.6679 13.2127 18.6269 13.3114C18.5859 13.4101 18.5259 13.4998 18.4502 13.5753L8.70024 23.3253C8.62476 23.4009 8.5351 23.461 8.43639 23.5019C8.33768 23.5429 8.23186 23.564 8.12499 23.564C8.01812 23.564 7.91229 23.5429 7.81358 23.5019C7.71487 23.461 7.62521 23.4009 7.54974 23.3253Z" fill="white"/>
</svg>
