<svg width="14" height="14" viewBox="0 0 14 14" fill="none" xmlns="http://www.w3.org/2000/svg">
<path fill-rule="evenodd" clip-rule="evenodd" d="M4.06506 12.5598C4.02431 12.5191 3.99199 12.4708 3.96993 12.4177C3.94788 12.3645 3.93652 12.3076 3.93652 12.25C3.93652 12.1925 3.94788 12.1355 3.96993 12.0823C3.99199 12.0292 4.02431 11.9809 4.06506 11.9403L9.00618 7.00001L4.06505 2.05976C4.02438 2.01909 3.99211 1.97079 3.9701 1.91765C3.94808 1.8645 3.93675 1.80754 3.93675 1.75001C3.93675 1.69249 3.94808 1.63552 3.9701 1.58238C3.99211 1.52923 4.02438 1.48094 4.06505 1.44026C4.10573 1.39959 4.15402 1.36732 4.20717 1.3453C4.26032 1.32329 4.31728 1.31196 4.3748 1.31196C4.43233 1.31196 4.48929 1.32329 4.54244 1.3453C4.59559 1.36732 4.64388 1.39959 4.68455 1.44026L9.93456 6.69026C9.9753 6.7309 10.0076 6.77918 10.0297 6.83233C10.0517 6.88548 10.0631 6.94247 10.0631 7.00001C10.0631 7.05756 10.0517 7.11454 10.0297 7.16769C10.0076 7.22084 9.9753 7.26912 9.93456 7.30976L4.68456 12.5598C4.64392 12.6005 4.59564 12.6328 4.54248 12.6549C4.48933 12.6769 4.43235 12.6883 4.37481 12.6883C4.31726 12.6883 4.26028 12.6769 4.20713 12.6549C4.15397 12.6328 4.1057 12.6005 4.06506 12.5598Z" fill="#F56E03"/>
</svg>
