<svg width="16" height="16" viewBox="0 0 16 16" fill="none" xmlns="http://www.w3.org/2000/svg">
<g clip-path="url(#clip0_45_8086)">
<path d="M12.3537 4.35402C12.4001 4.30753 12.437 4.25234 12.4622 4.1916C12.4873 4.13087 12.5003 4.06577 12.5003 4.00002C12.5003 3.93428 12.4873 3.86918 12.4622 3.80844C12.437 3.7477 12.4001 3.69251 12.3537 3.64602C12.3072 3.59953 12.252 3.56266 12.1912 3.5375C12.1305 3.51234 12.0654 3.49939 11.9997 3.49939C11.9339 3.49939 11.8688 3.51234 11.8081 3.5375C11.7473 3.56266 11.6921 3.59953 11.6457 3.64602L4.99966 10.293L1.85366 7.14602C1.80717 7.09953 1.75198 7.06266 1.69124 7.0375C1.6305 7.01234 1.5654 6.99939 1.49966 6.99939C1.36688 6.99939 1.23954 7.05213 1.14566 7.14602C1.05177 7.23991 0.999023 7.36725 0.999023 7.50002C0.999023 7.6328 1.05177 7.76013 1.14566 7.85402L4.64565 11.354C4.6921 11.4006 4.74728 11.4375 4.80802 11.4627C4.86877 11.4879 4.93389 11.5009 4.99966 11.5009C5.06542 11.5009 5.13054 11.4879 5.19129 11.4627C5.25203 11.4375 5.30721 11.4006 5.35366 11.354L12.3537 4.35402ZM8.14566 11.354L7.24966 10.457L7.95666 9.75002L8.49966 10.293L15.1457 3.64602C15.2395 3.55213 15.3669 3.49939 15.4997 3.49939C15.6324 3.49939 15.7598 3.55213 15.8537 3.64602C15.9475 3.73991 16.0003 3.86725 16.0003 4.00002C16.0003 4.1328 15.9475 4.26013 15.8537 4.35402L8.85366 11.354C8.80721 11.4006 8.75203 11.4375 8.69129 11.4627C8.63054 11.4879 8.56542 11.5009 8.49966 11.5009C8.43389 11.5009 8.36877 11.4879 8.30802 11.4627C8.24728 11.4375 8.1921 11.4006 8.14566 11.354Z" fill="#F56E03"/>
<path d="M5.35366 7.14602L6.24966 8.04302L5.54266 8.75002L4.64566 7.85402C4.55177 7.76013 4.49902 7.6328 4.49902 7.50002C4.49902 7.36725 4.55177 7.23991 4.64566 7.14602C4.73954 7.05213 4.86688 6.99939 4.99966 6.99939C5.13243 6.99939 5.25977 7.05213 5.35366 7.14602Z" fill="#F56E03"/>
</g>
<defs>
<clipPath id="clip0_45_8086">
<rect width="16" height="16" fill="white"/>
</clipPath>
</defs>
</svg>
