<svg width="16" height="16" viewBox="0 0 16 16" fill="none" xmlns="http://www.w3.org/2000/svg">
<g clip-path="url(#clip0_45_5788)">
<path d="M6.95014 0.435C7.53014 -0.145 8.47014 -0.145 9.05014 0.435L15.5651 6.951C16.1451 7.531 16.1451 8.47 15.5651 9.049L9.05014 15.565C8.47014 16.145 7.53114 16.145 6.95214 15.565L0.435137 9.05C0.2972 8.91234 0.187766 8.74884 0.1131 8.56883C0.0384333 8.38883 0 8.19587 0 8.001C0 7.80613 0.0384333 7.61317 0.1131 7.43317C0.187766 7.25316 0.2972 7.08966 0.435137 6.952L6.95014 0.435ZM8.35014 1.135C8.25731 1.04218 8.13141 0.990036 8.00014 0.990036C7.86886 0.990036 7.74297 1.04218 7.65014 1.135L1.13414 7.65C1.04132 7.74283 0.989172 7.86873 0.989172 8C0.989172 8.13127 1.04132 8.25717 1.13414 8.35L7.65014 14.866C7.74297 14.9588 7.86886 15.011 8.00014 15.011C8.13141 15.011 8.25731 14.9588 8.35014 14.866L14.8661 8.35C14.959 8.25717 15.0111 8.13127 15.0111 8C15.0111 7.86873 14.959 7.74283 14.8661 7.65L8.35014 1.134V1.135Z" fill="#F50303"/>
<path d="M7.00195 11C7.00195 10.8687 7.02782 10.7386 7.07807 10.6173C7.12833 10.496 7.20199 10.3857 7.29485 10.2929C7.38771 10.2 7.49794 10.1264 7.61927 10.0761C7.7406 10.0259 7.87063 10 8.00195 10C8.13328 10 8.26331 10.0259 8.38464 10.0761C8.50596 10.1264 8.6162 10.2 8.70906 10.2929C8.80192 10.3857 8.87558 10.496 8.92583 10.6173C8.97609 10.7386 9.00195 10.8687 9.00195 11C9.00195 11.2652 8.8966 11.5196 8.70906 11.7071C8.52152 11.8946 8.26717 12 8.00195 12C7.73674 12 7.48238 11.8946 7.29485 11.7071C7.10731 11.5196 7.00195 11.2652 7.00195 11ZM7.09995 4.995C7.08664 4.86884 7.09999 4.74129 7.13915 4.62062C7.17831 4.49996 7.24241 4.38888 7.32727 4.29458C7.41214 4.20029 7.51588 4.12489 7.63176 4.07328C7.74765 4.02167 7.87309 3.995 7.99995 3.995C8.12681 3.995 8.25226 4.02167 8.36814 4.07328C8.48403 4.12489 8.58777 4.20029 8.67263 4.29458C8.7575 4.38888 8.82159 4.49996 8.86075 4.62062C8.89991 4.74129 8.91327 4.86884 8.89995 4.995L8.54995 8.502C8.53819 8.63977 8.47516 8.76811 8.37331 8.86163C8.27146 8.95515 8.13823 9.00705 7.99995 9.00705C7.86168 9.00705 7.72844 8.95515 7.6266 8.86163C7.52475 8.76811 7.46171 8.63977 7.44995 8.502L7.09995 4.995Z" fill="black"/>
<path d="M7.00195 11C7.00195 10.8687 7.02782 10.7386 7.07807 10.6173C7.12833 10.496 7.20199 10.3857 7.29485 10.2929C7.38771 10.2 7.49794 10.1264 7.61927 10.0761C7.7406 10.0259 7.87063 10 8.00195 10C8.13328 10 8.26331 10.0259 8.38464 10.0761C8.50596 10.1264 8.6162 10.2 8.70906 10.2929C8.80192 10.3857 8.87558 10.496 8.92583 10.6173C8.97609 10.7386 9.00195 10.8687 9.00195 11C9.00195 11.2652 8.8966 11.5196 8.70906 11.7071C8.52152 11.8946 8.26717 12 8.00195 12C7.73674 12 7.48238 11.8946 7.29485 11.7071C7.10731 11.5196 7.00195 11.2652 7.00195 11ZM7.09995 4.995C7.08664 4.86884 7.09999 4.74129 7.13915 4.62062C7.17831 4.49996 7.24241 4.38888 7.32727 4.29458C7.41214 4.20029 7.51588 4.12489 7.63176 4.07328C7.74765 4.02167 7.87309 3.995 7.99995 3.995C8.12681 3.995 8.25226 4.02167 8.36814 4.07328C8.48403 4.12489 8.58777 4.20029 8.67263 4.29458C8.7575 4.38888 8.82159 4.49996 8.86075 4.62062C8.89991 4.74129 8.91327 4.86884 8.89995 4.995L8.54995 8.502C8.53819 8.63977 8.47516 8.76811 8.37331 8.86163C8.27146 8.95515 8.13823 9.00705 7.99995 9.00705C7.86168 9.00705 7.72844 8.95515 7.6266 8.86163C7.52475 8.76811 7.46171 8.63977 7.44995 8.502L7.09995 4.995Z" fill="#F50303"/>
</g>
<defs>
<clipPath id="clip0_45_5788">
<rect width="16" height="16" fill="white"/>
</clipPath>
</defs>
</svg>
