<svg width="34" height="34" viewBox="0 0 34 34" fill="none" xmlns="http://www.w3.org/2000/svg">
<g opacity="0.5" clip-path="url(#clip0_45_5764)">
<path d="M17 31.875C13.0549 31.875 9.27139 30.3078 6.48179 27.5182C3.69218 24.7286 2.125 20.9451 2.125 17C2.125 13.0549 3.69218 9.27139 6.48179 6.48179C9.27139 3.69218 13.0549 2.125 17 2.125C20.9451 2.125 24.7286 3.69218 27.5182 6.48179C30.3078 9.27139 31.875 13.0549 31.875 17C31.875 20.9451 30.3078 24.7286 27.5182 27.5182C24.7286 30.3078 20.9451 31.875 17 31.875ZM17 34C21.5087 34 25.8327 32.2089 29.0208 29.0208C32.2089 25.8327 34 21.5087 34 17C34 12.4913 32.2089 8.1673 29.0208 4.97919C25.8327 1.79107 21.5087 0 17 0C12.4913 0 8.1673 1.79107 4.97919 4.97919C1.79107 8.1673 0 12.4913 0 17C0 21.5087 1.79107 25.8327 4.97919 29.0208C8.1673 32.2089 12.4913 34 17 34Z" fill="white"/>
<path d="M18.9761 13.9995L14.1099 14.6094L13.9356 15.4169L14.8919 15.5932C15.5166 15.742 15.6399 15.9672 15.5039 16.5899L13.9356 23.9594C13.5234 25.8655 14.1588 26.7622 15.6526 26.7622C16.8108 26.7622 18.1559 26.2268 18.7658 25.4915L18.9528 24.6075C18.5278 24.9815 17.9073 25.1303 17.495 25.1303C16.9106 25.1303 16.6981 24.7201 16.849 23.9976L18.9761 13.9995ZM19.1249 9.5625C19.1249 10.1261 18.901 10.6666 18.5025 11.0651C18.104 11.4636 17.5635 11.6875 16.9999 11.6875C16.4363 11.6875 15.8958 11.4636 15.4973 11.0651C15.0988 10.6666 14.8749 10.1261 14.8749 9.5625C14.8749 8.99891 15.0988 8.45841 15.4973 8.0599C15.8958 7.66138 16.4363 7.4375 16.9999 7.4375C17.5635 7.4375 18.104 7.66138 18.5025 8.0599C18.901 8.45841 19.1249 8.99891 19.1249 9.5625Z" fill="white"/>
</g>
<defs>
<clipPath id="clip0_45_5764">
<rect width="34" height="34" fill="white"/>
</clipPath>
</defs>
</svg>
