<svg width="27" height="26" viewBox="0 0 27 26" fill="none" xmlns="http://www.w3.org/2000/svg">
<path d="M4.65701 24.1312C4.53026 24.8527 5.24201 25.4165 5.86927 25.0948L13.003 21.4288L20.1351 25.0948C20.7624 25.4165 21.4741 24.8527 21.3474 24.1328L19.9986 16.4465L25.7219 10.993C26.2581 10.4828 25.9819 9.55003 25.2636 9.44928L17.3044 8.31828L13.7554 1.28691C13.6878 1.14437 13.5811 1.02395 13.4478 0.939631C13.3145 0.855308 13.16 0.810547 13.0022 0.810547C12.8444 0.810547 12.6899 0.855308 12.5566 0.939631C12.4233 1.02395 12.3166 1.14437 12.249 1.28691L8.70002 8.31991L0.740765 9.45091C0.0241399 9.55166 -0.253735 10.4844 0.28089 10.9947L6.00576 16.4482L4.65701 24.1344V24.1312ZM12.6276 19.6348L6.63789 22.7125L7.76564 16.2824C7.79206 16.1344 7.78172 15.9821 7.73554 15.8391C7.68935 15.696 7.60874 15.5664 7.50077 15.4618L2.77851 10.9605L9.36302 10.0245C9.49936 10.0039 9.62868 9.95061 9.73991 9.8691C9.85113 9.78759 9.94094 9.68034 10.0016 9.55653L12.9998 3.61228L16.0011 9.55653C16.0618 9.68034 16.1517 9.78759 16.2629 9.8691C16.3741 9.95061 16.5034 10.0039 16.6398 10.0245L23.2243 10.9589L18.502 15.4602C18.3938 15.565 18.313 15.6948 18.2668 15.8382C18.2206 15.9816 18.2104 16.1341 18.2371 16.2824L19.3649 22.7125L13.3751 19.6348C13.2593 19.5751 13.1309 19.5439 13.0006 19.5439C12.8703 19.5439 12.7418 19.5751 12.626 19.6348H12.6276Z" fill="#F56E03"/>
</svg>
